<svg width="249" height="250" viewBox="0 0 249 250" fill="none" xmlns="http://www.w3.org/2000/svg">
<ellipse cx="128.764" cy="135.265" rx="92.9486" ry="88.6961" fill="#A3D5FF"/>
<path d="M248.013 117.898C248.406 120.846 248.684 123.829 248.843 126.841L247.844 126.894C247.948 128.858 248 130.835 248 132.823C248 134.812 247.948 136.789 247.844 138.753L248.843 138.806C248.684 141.818 248.406 144.801 248.013 147.749L247.022 147.617C246.496 151.566 245.762 155.453 244.831 159.268L245.802 159.505C245.09 162.423 244.264 165.299 243.328 168.129L242.379 167.815C241.133 171.583 239.69 175.268 238.063 178.86L238.974 179.273C237.738 182.003 236.396 184.679 234.953 187.296L234.077 186.814C232.166 190.28 230.078 193.642 227.822 196.891L228.643 197.461C226.938 199.918 225.137 202.31 223.247 204.632L222.472 204.001C219.978 207.065 217.327 210.007 214.531 212.816L215.239 213.521C213.131 215.638 210.941 217.68 208.674 219.643L208.02 218.887C205.037 221.468 201.919 223.911 198.677 226.204L199.255 227.02C196.819 228.743 194.314 230.382 191.745 231.932L191.229 231.076C187.855 233.111 184.37 234.993 180.783 236.711L181.215 237.613C178.527 238.9 175.782 240.097 172.986 241.197L172.62 240.266C168.959 241.707 165.21 242.982 161.38 244.082L161.656 245.043C158.796 245.864 155.893 246.589 152.949 247.213L152.742 246.235C148.902 247.049 144.994 247.689 141.027 248.149L141.142 249.142C138.189 249.484 135.204 249.725 132.19 249.863L132.144 248.864C130.177 248.954 128.197 249 126.206 249C124.214 249 122.234 248.954 120.267 248.864L120.221 249.863C117.207 249.725 114.222 249.484 111.269 249.142L111.384 248.149C107.417 247.689 103.509 247.049 99.6692 246.235L99.4619 247.213C96.5184 246.589 93.6147 245.864 90.7549 245.043L91.031 244.082C87.2015 242.982 83.4516 241.707 79.7914 240.266L79.4252 241.197C76.6287 240.097 73.8841 238.9 71.1958 237.613L71.6278 236.711C68.0411 234.993 64.5558 233.111 61.1825 231.076L60.6659 231.932C58.0966 230.382 55.5919 228.743 53.1562 227.02L53.7337 226.204C50.4923 223.911 47.3745 221.468 44.3915 218.887L43.7371 219.643C41.4698 217.68 39.2797 215.638 37.1716 213.521L37.8803 212.816C35.0837 210.007 32.4328 207.065 29.9394 204.001L29.1638 204.632C27.2739 202.31 25.4735 199.918 23.7676 197.461L24.589 196.891C22.3334 193.642 20.2446 190.279 18.334 186.814L17.4583 187.296C16.0154 184.679 14.6732 182.003 13.4367 179.273L14.3476 178.86C12.7207 175.268 11.2785 171.583 10.0323 167.815L9.08283 168.129C8.14699 165.299 7.32064 162.423 6.60855 159.505L7.58004 159.268C6.64904 155.453 5.91509 151.566 5.38898 147.617L4.39774 147.749C4.00499 144.801 3.72703 141.818 3.56828 138.806L4.5669 138.753C4.46339 136.789 4.41101 134.812 4.41101 132.823C4.41101 130.835 4.46339 128.858 4.5669 126.894L3.56828 126.841C3.72703 123.829 4.00499 120.846 4.39774 117.898L5.38898 118.03C5.91509 114.081 6.64905 110.194 7.58004 106.379L6.60855 106.142C7.32065 103.224 8.14699 100.348 9.08284 97.5182L10.0323 97.8322C11.2785 94.0639 12.7207 90.3785 14.3476 86.7868L13.4367 86.3742C14.6732 83.6444 16.0154 80.9683 17.4583 78.3507L18.334 78.8334C20.2446 75.3675 22.3334 72.0047 24.589 68.7561L23.7676 68.1858C25.4735 65.7289 27.2739 63.337 29.1638 61.0148L29.9394 61.646C32.4329 58.582 35.0837 55.6402 37.8803 52.8314L37.1717 52.1258C39.2797 50.0086 41.4698 47.9666 43.7371 46.0043L44.3915 46.7604C47.3745 44.1787 50.4923 41.7361 53.7337 39.4434L53.1562 38.6269C55.5919 36.9042 58.0966 35.2653 60.6659 33.715L61.1825 34.5712C64.5558 32.5357 68.0411 30.6538 71.6278 28.936L71.1958 28.0341C73.8841 26.7465 76.6287 25.5504 79.4252 24.45L79.7914 25.3806C83.4516 23.9403 87.2015 22.6653 91.031 21.5652L90.7549 20.6041C93.6147 19.7826 96.5184 19.0579 99.4619 18.434L99.6692 19.4123C103.509 18.5985 107.417 17.9575 111.384 17.4984L111.269 16.5051C114.222 16.1634 117.207 15.9217 120.221 15.7837L120.267 16.7827C122.234 16.6925 124.214 16.647 126.206 16.647C128.197 16.647 130.177 16.6925 132.144 16.7827L132.19 15.7837C135.204 15.9217 138.189 16.1634 141.142 16.5051L141.027 17.4984C144.994 17.9575 148.902 18.5984 152.742 19.4123L152.949 18.434C155.893 19.0579 158.796 19.7826 161.656 20.6041L161.38 21.5652C165.21 22.6653 168.959 23.9403 172.62 25.3806L172.986 24.45C175.782 25.5504 178.527 26.7465 181.215 28.0341L180.783 28.936C184.37 30.6538 187.855 32.5357 191.229 34.5712L191.745 33.715C194.314 35.2653 196.819 36.9042 199.255 38.6269L198.677 39.4434C201.919 41.7361 205.037 44.1787 208.02 46.7604L208.674 46.0043C210.941 47.9666 213.131 50.0087 215.239 52.1258L214.531 52.8314C217.327 55.6402 219.978 58.582 222.472 61.646L223.247 61.0148C225.137 63.337 226.938 65.7289 228.643 68.1858L227.822 68.7561C230.078 72.0047 232.166 75.3675 234.077 78.8334L234.953 78.3507C236.396 80.9683 237.738 83.6444 238.974 86.3742L238.063 86.7868C239.69 90.3785 241.133 94.0639 242.379 97.8322L243.328 97.5182C244.264 100.348 245.09 103.224 245.802 106.142L244.831 106.379C245.762 110.194 246.496 114.081 247.022 118.03L248.013 117.898Z" stroke="black" stroke-width="2" stroke-dasharray="12 9"/>
<path d="M194.777 59.5882C194.777 83.5583 174.407 103.029 149.229 103.029C124.052 103.029 103.681 83.5583 103.681 59.5882C103.681 35.6181 124.052 16.147 149.229 16.147C174.407 16.147 194.777 35.6181 194.777 59.5882Z" fill="white" stroke="black"/>
<path d="M149.229 6.69608C105.982 11.1996 96.319 27.3164 90.3903 58.7745H104.034C106.217 35.8623 118.531 20.5294 150.082 17.2745V24.598L170.548 13.2059L150.082 1L149.229 6.69608Z" fill="#5DBA63" stroke="black"/>
<path d="M150.082 113.294C193.33 108.791 202.992 92.6738 208.921 61.2157H194.425C192.241 84.1279 180.781 99.4608 149.229 102.716V95.3922L128.764 106.784L149.229 118.99L150.082 113.294Z" fill="#5DBA63" stroke="black"/>
<path d="M167.62 48.5477C169.432 50.9555 170.708 53.736 171.285 56.7402H178.222V64.0638H171.285C170.708 67.0679 169.432 69.8484 167.62 72.2562L172.526 76.8007L166.935 81.9791L162.028 77.4348C159.429 79.1136 156.427 80.295 153.183 80.8299V87.2549H145.276V80.8299C142.032 80.295 139.03 79.1136 136.43 77.4348L131.524 81.9791L125.932 76.8007L130.839 72.2562C129.026 69.8484 127.751 67.0679 127.173 64.0638H120.236V56.7402H127.173C127.751 53.736 129.026 50.9555 130.839 48.5477L125.932 44.0033L131.524 38.8248L136.43 43.3691C139.03 41.6903 142.032 40.5089 145.276 39.974V33.549H153.183V39.974C156.427 40.5089 159.429 41.6903 162.028 43.3691L166.935 38.8248L172.526 44.0033L167.62 48.5477Z" fill="#F7CB34" stroke="black" stroke-width="1.5" stroke-linejoin="round"/>
<path d="M148.377 69.353C153.557 69.353 157.757 65.3454 157.757 60.402C157.757 55.4585 153.557 51.451 148.377 51.451C143.196 51.451 138.997 55.4585 138.997 60.402C138.997 65.3454 143.196 69.353 148.377 69.353Z" fill="white" stroke="black" stroke-linejoin="round"/>
<path d="M38.1021 99.6855C38.0797 99.3951 38.3093 99.1471 38.6006 99.1471H89.3104C89.6017 99.1471 89.8313 99.3951 89.8089 99.6855L85.6993 153.019C85.6793 153.279 85.4621 153.48 85.2008 153.48H42.7102C42.4489 153.48 42.2317 153.279 42.2117 153.019L38.1021 99.6855Z" fill="#FFCF30" stroke="black"/>
<line y1="-0.5" x2="30.9695" y2="-0.5" transform="matrix(0.0550713 0.998482 -0.998741 0.0501604 46.048 113.294)" stroke="black"/>
<line y1="-0.5" x2="30.9695" y2="-0.5" transform="matrix(0.0550204 -0.998485 0.998743 0.050114 80.1583 144.216)" stroke="black"/>
<line x1="63.6027" y1="113.294" x2="63.6027" y2="144.216" stroke="black"/>
<path d="M31.1987 90.2549C31.1987 88.8741 32.318 87.7549 33.6987 87.7549H91.5069C93.4399 87.7549 95.0069 89.3219 95.0069 91.2549V101.402H31.1987V90.2549Z" fill="#FFCF30" stroke="black"/>
<path d="M64.8082 153.167V162.525M64.8082 171.882V162.525M64.8082 162.525H110.856M110.856 162.525V171.882M110.856 162.525H17.0548V171.882" stroke="black"/>
<path d="M23.3767 176.765C23.3767 180.062 20.5687 182.775 17.0548 182.775C13.541 182.775 10.7329 180.062 10.7329 176.765C10.7329 173.467 13.541 170.755 17.0548 170.755C20.5687 170.755 23.3767 173.467 23.3767 176.765Z" fill="white" stroke="black"/>
<path d="M71.1301 176.765C71.1301 180.062 68.322 182.775 64.8082 182.775C61.2944 182.775 58.4863 180.062 58.4863 176.765C58.4863 173.467 61.2944 170.755 64.8082 170.755C68.322 170.755 71.1301 173.467 71.1301 176.765Z" fill="white" stroke="black"/>
<path d="M117.178 176.765C117.178 180.062 114.37 182.775 110.856 182.775C107.342 182.775 104.534 180.062 104.534 176.765C104.534 173.467 107.342 170.755 110.856 170.755C114.37 170.755 117.178 173.467 117.178 176.765Z" fill="white" stroke="black"/>
<rect x="0.5" y="190.284" width="36.5205" height="20.1569" fill="#5DBA63" stroke="black"/>
<rect x="48.2535" y="190.284" width="36.5205" height="20.1569" fill="#FFCF30" stroke="black"/>
<rect x="90.8904" y="190.284" width="36.5205" height="20.1569" fill="#FFCF30" stroke="black"/>
<rect x="135.233" y="218.765" width="109.856" height="25.0392" rx="7.5" fill="#FFCF30" stroke="black"/>
<path d="M159.815 230.471C159.815 234.217 156.625 237.294 152.64 237.294C148.656 237.294 145.466 234.217 145.466 230.471C145.466 226.724 148.656 223.647 152.64 223.647C156.625 223.647 159.815 226.724 159.815 230.471Z" fill="white" stroke="black"/>
<path d="M185.397 230.471C185.397 234.217 182.207 237.294 178.223 237.294C174.238 237.294 171.048 234.217 171.048 230.471C171.048 226.724 174.238 223.647 178.223 223.647C182.207 223.647 185.397 226.724 185.397 230.471Z" fill="white" stroke="black"/>
<path d="M209.274 230.471C209.274 234.217 206.084 237.294 202.099 237.294C198.114 237.294 194.924 234.217 194.924 230.471C194.924 226.724 198.114 223.647 202.099 223.647C206.084 223.647 209.274 226.724 209.274 230.471Z" fill="white" stroke="black"/>
<path d="M233.151 230.471C233.151 234.217 229.961 237.294 225.976 237.294C221.991 237.294 218.801 234.217 218.801 230.471C218.801 226.724 221.991 223.647 225.976 223.647C229.961 223.647 233.151 226.724 233.151 230.471Z" fill="white" stroke="black"/>
<path d="M192.719 183.275L191.014 193.039L179.928 172.696L209.774 150.726L205.51 164.559L186.75 175.137L192.719 183.275Z" fill="white" stroke="black"/>
<path d="M150.935 186.529L173.959 193.853L183.339 197.108L181.633 219.079L148.377 217.451L150.935 186.529Z" fill="#5DBA63"/>
<path d="M196.983 206.059V176.765L216.596 184.902L226.829 176.765V206.059L209.774 197.108L196.983 206.059Z" fill="#5DBA63"/>
<path d="M209.774 154.794V143.402H159.462L173.959 193.853M173.959 193.853L150.935 186.529L148.377 217.451L181.633 219.079L183.339 197.108L173.959 193.853ZM196.983 176.765V206.059L209.774 197.108L226.829 206.059V176.765L216.596 184.902L196.983 176.765Z" stroke="black"/>
<path d="M137.291 225.588V134.451H214.89V148.284" stroke="black"/>
<path d="M232.798 183.275L234.503 193.039L245.589 172.696L215.743 150.726L220.007 164.559L238.767 175.137L232.798 183.275Z" fill="white" stroke="black"/>
<path d="M222.918 158.049C222.918 163.144 218.582 167.314 213.185 167.314C207.787 167.314 203.452 163.144 203.452 158.049C203.452 152.954 207.787 148.784 213.185 148.784C218.582 148.784 222.918 152.954 222.918 158.049Z" fill="#FFCF30" stroke="black"/>
</svg>
