<svg width="249" height="249" viewBox="0 0 249 249" fill="none" xmlns="http://www.w3.org/2000/svg">
<ellipse cx="127.094" cy="127.094" rx="94.2396" ry="94.2396" fill="white"/>
<circle cx="124.5" cy="124.5" r="123.5" stroke="black" stroke-width="2" stroke-dasharray="12 9"/>
<path d="M84.7481 179.5C71.8482 174.05 73.3478 146.447 73.3478 146.447L94.8073 139.967V126.436C94.8073 124.913 95.9505 123.629 97.4732 123.64C100.042 123.659 103.623 124.101 104.196 126.357C104.446 127.34 103.897 127.979 104.196 128.949C104.839 131.036 107.931 130.219 108.89 132.189C110.705 135.918 101.513 139.967 101.513 139.967C101.513 139.967 109.443 146.606 112.243 152.28C115.654 159.194 118.839 165.062 114.926 171.723C112.99 175.018 107.94 177.737 105.523 178.897C104.648 179.317 103.727 179.613 102.774 179.795C99.3032 180.459 90.279 181.837 84.7481 179.5Z" fill="#F8F8F8"/>
<path d="M101.513 139.967C101.513 139.967 109.443 146.606 112.243 152.28C115.654 159.194 118.839 165.062 114.926 171.723C112.99 175.018 107.94 177.737 105.523 178.897C104.648 179.317 103.727 179.613 102.774 179.795C99.3032 180.459 90.279 181.837 84.7481 179.5C71.8482 174.05 73.3478 146.447 73.3478 146.447L94.8073 139.967M101.513 139.967H94.8073M101.513 139.967C101.513 139.967 110.705 135.918 108.89 132.189C107.931 130.219 104.839 131.036 104.196 128.949C103.897 127.979 104.446 127.34 104.196 126.357C103.623 124.101 100.042 123.659 97.4732 123.64C95.9505 123.629 94.8073 124.913 94.8073 126.436V139.967" stroke="black"/>
<path d="M38.1106 108.186H81.5101C83.4431 108.186 85.0101 109.753 85.0101 111.686V176.807C85.0101 178.74 83.4431 180.307 81.5101 180.307H40.946C39.0723 180.307 37.5309 178.831 37.4493 176.959L34.6139 111.839C34.5272 109.848 36.1178 108.186 38.1106 108.186Z" fill="#FED03C" stroke="black"/>
<path d="M47.0055 169.506C47.0055 175.461 42.0739 180.307 35.9685 180.307C29.863 180.307 24.9314 175.461 24.9314 169.506C24.9314 163.551 29.863 158.706 35.9685 158.706C42.0739 158.706 47.0055 163.551 47.0055 169.506Z" fill="#5DBA63" stroke="black"/>
<path d="M39.3187 169.606C39.3187 171.155 38.0332 172.429 36.4255 172.429C34.8178 172.429 33.5322 171.155 33.5322 169.606C33.5322 168.056 34.8178 166.782 36.4255 166.782C38.0332 166.782 39.3187 168.056 39.3187 169.606Z" fill="#D9D9D9" stroke="black"/>
<path d="M42.5597 97.0506L38.0044 105.027L85.51 103.698L80.3039 97.0506H42.5597Z" fill="#5DBA63" stroke="black"/>
<path d="M72.5302 113.787H33.218C32.1134 113.787 31.218 112.891 31.218 111.787V105.698C31.218 104.593 32.1134 103.698 33.218 103.698H88.9393C90.0439 103.698 90.9393 104.593 90.9393 105.698V125.038C90.9393 125.59 90.4916 126.038 89.9393 126.038H79.4878C78.6263 126.038 77.8616 125.486 77.5899 124.669L74.4281 115.156C74.1564 114.339 73.3917 113.787 72.5302 113.787Z" fill="white" stroke="black"/>
<g clip-path="url(#clip0_104_2365)">
<path d="M95.4931 77.9347L95.4931 77.9347C76.904 94.7761 47.9752 94.7822 29.3788 77.9347C28.8885 77.4905 28.8765 76.7412 29.3537 76.2767L32.9841 72.7488C32.9841 72.7488 32.9841 72.7487 32.9842 72.7487C33.4442 72.3019 34.1934 72.2885 34.6769 72.7227L34.6771 72.7228C50.3435 86.781 74.5305 86.7778 90.1937 72.7228L90.1939 72.7227C90.6778 72.2881 91.4268 72.3013 91.8864 72.7485L91.8866 72.7487L95.5174 76.277C95.9953 76.7414 95.9833 77.4905 95.4931 77.9347ZM83.5996 66.1355L83.5995 66.1356C71.579 76.5484 53.3064 76.5596 41.2723 66.1356L40.947 66.5111L41.2722 66.1355C40.766 65.6973 40.7464 64.938 41.2327 64.4689L41.2331 64.4686L44.8851 60.9382L44.8853 60.938C45.3391 60.4987 46.0736 60.4719 46.5528 60.8773C55.6198 68.5557 69.2316 68.5727 78.3203 60.8772C78.7991 60.4722 79.5337 60.4994 79.9879 60.9383L83.6398 64.4686L83.64 64.4687C84.1257 64.9379 84.1068 65.6964 83.5996 66.1355ZM68.7224 51.1842C68.7224 54.57 65.9181 57.3315 62.4359 57.3315C58.9538 57.3315 56.1494 54.57 56.1494 51.1842C56.1494 47.7985 58.9538 45.0369 62.4359 45.0369C65.9181 45.0369 68.7224 47.7985 68.7224 51.1842Z" fill="#F8F8F8" stroke="black"/>
</g>
<rect x="138.945" y="121.481" width="85.8674" height="73.4498" rx="1.5" fill="white" stroke="black"/>
<path d="M139.145 134.23L225.312 133.599" stroke="black"/>
<path d="M178.681 182.748L144.749 182.748C143.327 180.674 149.662 165.518 163.154 165.518C176.645 165.518 178.681 182.748 178.681 182.748Z" fill="#FCCE30"/>
<path fill-rule="evenodd" clip-rule="evenodd" d="M147.815 172.957C150.986 168.806 156.122 164.853 163.154 164.853C170.267 164.853 174.333 169.42 176.584 173.836C177.711 176.048 178.402 178.252 178.812 179.899C179.017 180.723 179.152 181.412 179.236 181.896C179.278 182.138 179.308 182.33 179.327 182.462C179.336 182.528 179.343 182.579 179.348 182.614L179.353 182.655L179.355 182.667L179.355 182.67C179.355 182.67 179.355 182.672 178.681 182.748L179.355 182.672L179.443 183.413L144.387 183.413L144.185 183.119C144.015 182.871 143.935 182.576 143.899 182.294C143.863 182.006 143.868 181.685 143.903 181.345C143.973 180.666 144.172 179.852 144.486 178.964C145.114 177.184 146.228 175.034 147.815 172.957ZM177.892 182.083C177.812 181.627 177.684 180.983 177.493 180.213C177.099 178.629 176.438 176.526 175.37 174.43C173.23 170.231 169.532 166.182 163.154 166.182C156.694 166.182 151.917 169.807 148.902 173.753C147.396 175.724 146.35 177.753 145.769 179.398C145.478 180.222 145.31 180.933 145.253 181.479C145.228 181.727 145.226 181.928 145.241 182.083L177.892 182.083Z" fill="black"/>
<path d="M162.198 177.483C159.181 177.312 157.447 182.136 157.447 182.136H166.27C166.27 182.136 165.01 177.642 162.198 177.483Z" fill="white"/>
<path fill-rule="evenodd" clip-rule="evenodd" d="M161.519 176.853V170.836H162.876V176.917C164.304 177.278 165.281 178.516 165.878 179.54C166.234 180.151 166.494 180.753 166.664 181.198C166.75 181.422 166.814 181.609 166.857 181.742C166.878 181.808 166.895 181.861 166.906 181.898L166.919 181.941L166.922 181.954L166.923 181.958L166.924 181.959C166.924 181.959 166.924 181.96 166.27 182.136L166.924 181.959L167.16 182.801H156.489L156.807 181.915L157.447 182.136C156.807 181.915 156.807 181.916 156.807 181.915L156.808 181.913L156.809 181.909L156.814 181.896L156.831 181.85C156.846 181.81 156.868 181.754 156.897 181.684C156.954 181.543 157.038 181.345 157.148 181.109C157.367 180.638 157.696 180.006 158.127 179.375C158.845 178.327 159.982 177.087 161.519 176.853ZM158.473 181.471H165.317C165.167 181.1 164.962 180.649 164.699 180.199C164.048 179.082 163.19 178.205 162.159 178.147C161.046 178.084 160.051 178.952 159.255 180.115C158.93 180.591 158.667 181.073 158.473 181.471Z" fill="black"/>
<path d="M178.681 161.477L144.749 161.477C143.327 159.403 149.662 144.246 163.154 144.246C176.645 144.246 178.681 161.477 178.681 161.477Z" fill="#5DBA63"/>
<path fill-rule="evenodd" clip-rule="evenodd" d="M147.815 151.686C150.986 147.535 156.122 143.582 163.154 143.582C170.267 143.582 174.333 148.148 176.584 152.565C177.711 154.776 178.402 156.98 178.812 158.627C179.017 159.452 179.152 160.141 179.236 160.625C179.278 160.867 179.308 161.058 179.327 161.19C179.336 161.256 179.343 161.308 179.348 161.343L179.353 161.384L179.355 161.395L179.355 161.399C179.355 161.399 179.355 161.4 178.681 161.477L179.355 161.4L179.443 162.142L144.387 162.142L144.185 161.847C144.015 161.599 143.935 161.305 143.899 161.023C143.863 160.735 143.868 160.413 143.903 160.074C143.973 159.395 144.172 158.58 144.486 157.692C145.114 155.913 146.228 153.763 147.815 151.686ZM177.892 160.812C177.812 160.356 177.684 159.712 177.493 158.942C177.099 157.358 176.438 155.255 175.37 153.159C173.23 148.96 169.532 144.911 163.154 144.911C156.694 144.911 151.917 148.536 148.902 152.482C147.396 154.453 146.35 156.481 145.769 158.127C145.478 158.951 145.31 159.661 145.253 160.208C145.228 160.455 145.226 160.656 145.241 160.812L177.892 160.812Z" fill="black"/>
<path d="M162.198 156.212C159.181 156.041 157.447 160.865 157.447 160.865H166.27C166.27 160.865 165.01 156.371 162.198 156.212Z" fill="white"/>
<path fill-rule="evenodd" clip-rule="evenodd" d="M161.519 155.582V149.564H162.876V155.646C164.304 156.007 165.281 157.245 165.878 158.268C166.234 158.88 166.494 159.481 166.664 159.927C166.75 160.151 166.814 160.338 166.857 160.47C166.878 160.536 166.895 160.589 166.906 160.626L166.919 160.67L166.922 160.683L166.923 160.687L166.924 160.688C166.924 160.688 166.924 160.689 166.27 160.865L166.924 160.688L167.16 161.529H156.489L156.807 160.644L157.447 160.865C156.807 160.644 156.807 160.644 156.807 160.644L156.808 160.642L156.809 160.638L156.814 160.625L156.831 160.578C156.846 160.539 156.868 160.483 156.897 160.413C156.954 160.272 157.038 160.074 157.148 159.837C157.367 159.367 157.696 158.735 158.127 158.104C158.845 157.056 159.982 155.816 161.519 155.582ZM158.473 160.2H165.317C165.167 159.828 164.962 159.378 164.699 158.927C164.048 157.81 163.19 156.934 162.159 156.875C161.046 156.812 160.051 157.68 159.255 158.844C158.93 159.319 158.667 159.802 158.473 160.2Z" fill="black"/>
<rect x="186.45" y="152.058" width="7.14382" height="8.30622" fill="#FCCE30" stroke="black"/>
<rect x="197.309" y="141.423" width="7.14382" height="18.9419" fill="#FCCE30" stroke="black"/>
<rect x="209.525" y="146.741" width="7.14382" height="13.6241" fill="#FCCE30" stroke="black"/>
<path d="M187.986 180.142L192.058 174.824L196.13 177.483L202.917 171.5L210.382 177.483L215.811 171.5M187.986 166.182V184.13H215.811" stroke="black"/>
<path d="M189.344 77.1009C187.871 77.1009 186.677 78.2948 186.677 79.7676C186.677 81.2404 187.871 82.4343 189.344 82.4343C190.817 82.4343 192.01 81.2404 192.01 79.7676C192.01 78.2948 190.817 77.1009 189.344 77.1009ZM188.844 43.8722V79.7676H189.844V43.8722H188.844Z" fill="black"/>
<line x1="170.52" y1="108.314" x2="170.52" y2="48.5621" stroke="black"/>
<path d="M190.07 108.351C190.07 109.824 191.264 111.018 192.737 111.018C194.21 111.018 195.404 109.824 195.404 108.351C195.404 106.878 194.21 105.684 192.737 105.684C191.264 105.684 190.07 106.878 190.07 108.351ZM169.663 108.851H192.737V107.851H169.663V108.851Z" fill="black"/>
<g clip-path="url(#clip1_104_2365)">
<path d="M149.985 15.8461L149.501 15.273L149.985 15.846C154.512 12.0223 160.288 9.90866 166.271 9.89001C178.463 9.89057 188.532 18.7647 189.626 30.1379L189.683 30.7278L190.27 30.809C197.362 31.7909 202.845 37.5956 202.845 44.6628C202.845 52.4193 196.23 58.6602 188.138 58.6602H146.585C137.289 58.6602 129.694 51.4918 129.694 42.5834C129.694 34.9121 135.321 28.5198 142.829 26.8964L143.325 26.7891L143.41 26.2884C144.04 22.566 146.505 18.7827 149.985 15.8461Z" fill="white" stroke="black" stroke-width="1.5"/>
</g>
<line y1="-0.5" x2="59.7518" y2="-0.5" transform="matrix(0 -1 -1 0 153.375 106.984)" stroke="black"/>
<path d="M134.325 107.021C134.325 108.494 133.131 109.688 131.658 109.688C130.186 109.688 128.992 108.494 128.992 107.021C128.992 105.549 130.186 104.355 131.658 104.355C133.131 104.355 134.325 105.549 134.325 107.021ZM154.733 107.521H131.658V106.521H154.733V107.521Z" fill="black"/>
<path d="M154.904 44.7223C157.195 48.06 158.807 51.9145 159.537 56.079H168.306V66.2313H159.537C158.807 70.3959 157.195 74.2503 154.904 77.5881L161.106 83.8878L154.038 91.0665L147.836 84.7669C144.55 87.0942 140.756 88.7319 136.656 89.4734V98.3801H126.661V89.4734C122.561 88.7319 118.766 87.0942 115.481 84.7669L109.279 91.0665L102.211 83.8878L108.413 77.5881C106.122 74.2503 104.51 70.3959 103.78 66.2313H95.0112V56.079H103.78C104.51 51.9145 106.122 48.06 108.413 44.7223L102.211 38.4225L109.279 31.2439L115.481 37.5434C118.766 35.2161 122.561 33.5785 126.661 32.837V23.9303H136.656V32.837C140.756 33.5785 144.55 35.2161 147.836 37.5434L154.038 31.2439L161.106 38.4225L154.904 44.7223Z" fill="#F7CB34" stroke="black" stroke-width="1.5" stroke-linejoin="round"/>
<path d="M131.938 73.5635C138.486 73.5635 143.794 68.0081 143.794 61.1552C143.794 54.3024 138.486 48.7469 131.938 48.7469C125.39 48.7469 120.081 54.3024 120.081 61.1552C120.081 68.0081 125.39 73.5635 131.938 73.5635Z" fill="white" stroke="black" stroke-linejoin="round"/>
<defs>
<clipPath id="clip0_104_2365">
<rect width="67.8651" height="53.1784" fill="white" transform="translate(96.3685 94.3917) rotate(-180)"/>
</clipPath>
<clipPath id="clip1_104_2365">
<rect width="74.6517" height="73.1203" fill="white" transform="translate(128.944)"/>
</clipPath>
</defs>
</svg>
