<svg width="249" height="246" viewBox="0 0 249 246" fill="none" xmlns="http://www.w3.org/2000/svg">
<ellipse cx="122.836" cy="126.09" rx="88.9033" ry="84.0603" fill="#A3D5FF"/>
<path d="M248.034 107.604C248.419 110.646 248.691 113.723 248.846 116.83L247.847 116.88C247.949 118.907 248 120.948 248 123C248 125.052 247.949 127.093 247.847 129.12L248.846 129.17C248.691 132.277 248.419 135.354 248.034 138.396L247.042 138.271C246.526 142.352 245.806 146.37 244.893 150.316L245.867 150.541C245.168 153.561 244.356 156.537 243.437 159.467L242.483 159.168C241.255 163.08 239.834 166.908 238.229 170.641L239.148 171.036C237.926 173.879 236.599 176.667 235.171 179.396L234.285 178.932C232.389 182.556 230.315 186.075 228.074 189.476L228.909 190.026C227.209 192.605 225.414 195.117 223.529 197.557L222.738 196.945C220.242 200.176 217.586 203.28 214.783 206.246L215.509 206.933C213.39 209.175 211.188 211.338 208.906 213.418L208.232 212.679C205.22 215.425 202.068 218.025 198.79 220.468L199.387 221.27C196.917 223.11 194.375 224.862 191.766 226.52L191.23 225.676C187.796 227.858 184.245 229.877 180.589 231.722L181.039 232.614C178.292 234 175.485 235.288 172.624 236.474L172.242 235.55C168.491 237.105 164.645 238.482 160.717 239.67L161.007 240.627C158.068 241.516 155.084 242.301 152.058 242.976L151.84 242C147.888 242.883 143.864 243.578 139.778 244.076L139.899 245.068C136.856 245.439 133.778 245.702 130.671 245.852L130.623 244.853C128.594 244.951 126.553 245 124.5 245C122.447 245 120.406 244.951 118.377 244.853L118.329 245.852C115.222 245.702 112.144 245.439 109.101 245.068L109.222 244.076C105.136 243.578 101.112 242.883 97.16 242L96.9422 242.976C93.916 242.301 90.9316 241.516 87.9934 240.627L88.283 239.67C84.3546 238.482 80.5094 237.105 76.7584 235.55L76.3755 236.474C73.5148 235.289 70.7083 234 67.9609 232.614L68.4112 231.722C64.7551 229.877 61.2042 227.858 57.7699 225.676L57.2335 226.52C54.6249 224.862 52.0829 223.11 49.6126 221.27L50.21 220.468C46.9317 218.025 43.7805 215.425 40.768 212.679L40.0943 213.418C37.8125 211.338 35.6096 209.175 33.4906 206.933L34.2173 206.246C31.4137 203.28 28.7582 200.176 26.2623 196.945L25.4709 197.557C23.5858 195.117 21.791 192.605 20.0914 190.026L20.9264 189.476C18.6849 186.075 16.6105 182.556 14.7147 178.932L13.8286 179.396C12.4011 176.667 11.074 173.879 9.8521 171.036L10.7708 170.641C9.16636 166.908 7.74475 163.08 6.51711 159.168L5.56298 159.467C4.64359 156.537 3.83208 153.561 3.13302 150.541L4.10725 150.316C3.19374 146.37 2.47386 142.352 1.95801 138.271L0.965908 138.396C0.581378 135.354 0.309305 132.277 0.153928 129.17L1.15268 129.12C1.0513 127.093 1 125.052 1 123C1 120.948 1.0513 118.907 1.15268 116.88L0.153929 116.83C0.309306 113.723 0.581379 110.646 0.965909 107.604L1.95802 107.729C2.47386 103.648 3.19375 99.6296 4.10725 95.6842L3.13302 95.4587C3.83208 92.4395 4.6436 89.4626 5.56298 86.5327L6.51711 86.8321C7.74476 82.9197 9.16636 79.0915 10.7708 75.3586L9.85211 74.9637C11.074 72.1207 12.4011 69.3326 13.8286 66.604L14.7147 67.0675C16.6105 63.4435 18.6849 59.9254 20.9264 56.5244L20.0914 55.9741C21.791 53.3953 23.5858 50.8833 25.4709 48.4432L26.2623 49.0545C28.7582 45.8237 31.4137 42.7196 34.2173 39.7538L33.4906 39.0668C35.6096 36.8251 37.8125 34.6618 40.0943 32.5817L40.768 33.3207C43.7805 30.5745 46.9317 27.9746 50.21 25.5323L49.6126 24.7303C52.0829 22.89 54.6248 21.1384 57.2335 19.4805L57.7699 20.3245C61.2042 18.1418 64.7551 16.1228 68.4112 14.2784L67.9609 13.3856C70.7083 11.9996 73.5148 10.7115 76.3755 9.52591L76.7584 10.4497C80.5094 8.89515 84.3546 7.51825 88.283 6.32967L87.9934 5.37252C90.9316 4.48357 93.916 3.69911 96.9422 3.02355L97.16 3.99952C101.112 3.11729 105.136 2.42222 109.222 1.92427L109.101 0.931611C112.144 0.560696 115.222 0.298296 118.329 0.14845L118.377 1.14729C120.406 1.04948 122.447 1 124.5 1C126.553 1 128.594 1.04948 130.623 1.14729L130.671 0.148451C133.778 0.298297 136.856 0.560696 139.899 0.931611L139.778 1.92427C143.864 2.42222 147.888 3.11728 151.84 3.99952L152.058 3.02354C155.084 3.69911 158.068 4.48356 161.007 5.37252L160.717 6.32967C164.645 7.51825 168.491 8.89514 172.242 10.4497L172.624 9.5259C175.485 10.7115 178.292 11.9996 181.039 13.3856L180.589 14.2784C184.245 16.1228 187.796 18.1418 191.23 20.3245L191.766 19.4805C194.375 21.1384 196.917 22.89 199.387 24.7303L198.79 25.5323C202.068 27.9746 205.22 30.5745 208.232 33.3207L208.906 32.5817C211.188 34.6618 213.39 36.8251 215.509 39.0668L214.783 39.7538C217.586 42.7196 220.242 45.8237 222.738 49.0545L223.529 48.4432C225.414 50.8834 227.209 53.3953 228.909 55.9741L228.074 56.5244C230.315 59.9254 232.389 63.4435 234.285 67.0675L235.171 66.604C236.599 69.3326 237.926 72.1207 239.148 74.9637L238.229 75.3586C239.834 79.0915 241.255 82.9197 242.483 86.8321L243.437 86.5327C244.356 89.4626 245.168 92.4395 245.867 95.4587L244.893 95.6843C245.806 99.6296 246.526 103.648 247.042 107.729L248.034 107.604Z" stroke="black" stroke-width="2" stroke-dasharray="12 9"/>
<rect x="108.655" y="50.7614" width="53" height="13" fill="#5DBA63" stroke="black"/>
<path d="M103.655 65.2614C103.655 64.4329 104.327 63.7614 105.155 63.7614H166.155C166.983 63.7614 167.655 64.4329 167.655 65.2614V75.2614C167.655 76.0898 166.983 76.7614 166.155 76.7614H105.155C104.327 76.7614 103.655 76.0898 103.655 75.2614V65.2614Z" fill="white" stroke="black"/>
<g filter="url(#filter0_d_104_2200)">
<line x1="109.155" y1="70.7614" x2="117.155" y2="70.7614" stroke="black"/>
</g>
<g filter="url(#filter1_d_104_2200)">
<line x1="153.155" y1="70.7614" x2="161.155" y2="70.7614" stroke="black"/>
</g>
<path d="M103.655 39.2614C103.655 38.4329 104.327 37.7614 105.155 37.7614H166.155C166.983 37.7614 167.655 38.4329 167.655 39.2614V49.2614C167.655 50.0898 166.983 50.7614 166.155 50.7614H105.155C104.327 50.7614 103.655 50.0898 103.655 49.2614V39.2614Z" fill="white" stroke="black"/>
<g filter="url(#filter2_d_104_2200)">
<line x1="109.155" y1="44.7614" x2="117.155" y2="44.7614" stroke="black"/>
</g>
<g filter="url(#filter3_d_104_2200)">
<line x1="153.155" y1="44.7614" x2="161.155" y2="44.7614" stroke="black"/>
</g>
<path d="M162.155 37.2614H112.155L119.655 21.2614H128.655L132.655 15.7614L138.155 17.7614L139.655 22.7614L146.655 19.7614L151.155 27.7614H155.155L162.155 37.2614Z" fill="#FCCE38"/>
<path d="M122.655 32.7614C122.655 32.7614 120.722 27.6943 122.655 25.7614C124.588 23.8284 129.655 25.7614 129.655 25.7614M112.155 37.2614H162.155L155.155 27.7614H151.155L146.655 19.7614L139.655 22.7614L138.155 17.7614L132.655 15.7614L128.655 21.2614H119.655L112.155 37.2614Z" stroke="black"/>
<path d="M133.655 30.7614C133.655 30.7614 133.251 29.1502 133.655 28.2614C134.544 26.306 137.892 26.5243 139.155 28.2614C140.074 29.5247 139.155 32.2614 139.155 32.2614" stroke="black"/>
<path d="M146.655 33.2613C146.655 33.2613 147.027 30.9138 148.155 30.7613C149.394 30.5939 150.155 33.2613 150.155 33.2613" stroke="black"/>
<path d="M149.669 148.979C149.478 149.479 149.327 149.919 149.22 150.294L143.897 140.616L143.886 140.596L143.874 140.577C143.568 140.124 143.411 139.647 143.394 139.137C143.374 138.567 143.436 138.176 143.54 137.927L143.779 137.408C144.505 136.144 145.689 134.255 147.334 131.736L147.619 131.299L147.171 131.033L144.461 129.422L155.804 129.853L160.576 139.576L157.417 137.663L157.064 137.449L156.787 137.755C155.454 139.229 154.273 140.71 153.244 142.2C152.219 143.681 151.444 144.973 150.925 146.071C150.418 147.143 149.999 148.113 149.669 148.979ZM193.216 146.22L193.718 146.029L188.452 155.76L188.441 155.781L188.432 155.802C188.216 156.305 187.894 156.701 187.46 157.001C186.979 157.334 186.595 157.496 186.302 157.541L186.287 157.543L186.273 157.547L185.736 157.662C184.264 157.801 181.993 157.922 178.915 158.022L178.407 158.039L178.432 158.547L178.59 161.672L172.546 152.34L178.156 143.027L178.306 146.624L178.325 147.062L178.76 147.102C182.338 147.427 185.336 147.48 187.744 147.253C190.124 147.029 191.957 146.69 193.214 146.221L193.216 146.22ZM168.962 113.474C168.61 113.094 168.294 112.77 168.014 112.508L179.307 112.535L179.331 112.535L179.355 112.532C179.917 112.48 180.433 112.571 180.913 112.804C181.442 113.06 181.777 113.308 181.965 113.531L182.293 113.965C183.102 115.19 184.267 117.102 185.789 119.705L186.038 120.131L186.467 119.888L189.254 118.312L183.497 127.757L172.399 127.244L175.591 125.485L175.976 125.273L175.815 124.864C175.096 123.042 174.301 121.34 173.431 119.759C172.566 118.186 171.761 116.911 171.018 115.941C170.288 114.99 169.603 114.167 168.962 113.474ZM162.671 112.167L162.671 112.167L162.679 112.168C163.128 112.204 163.588 112.313 164.059 112.5C164.553 112.695 164.966 112.895 165.303 113.1C165.634 113.301 166.043 113.614 166.535 114.05C167.035 114.494 167.403 114.835 167.643 115.077C167.887 115.324 168.259 115.718 168.761 116.264C169.054 116.584 169.294 116.842 169.479 117.036C168.322 118.648 165.701 122.828 161.633 129.54L152.103 124.1L151.952 124.008L158.737 113.619C158.737 113.619 158.737 113.618 158.738 113.617C159.086 113.097 159.615 112.702 160.366 112.447C161.14 112.185 161.907 112.093 162.671 112.167ZM152.626 146.878C154.623 147.109 159.681 147.369 167.76 147.663L167.31 158.336L167.294 158.507L154.59 157.659C154.589 157.659 154.588 157.658 154.587 157.658C153.958 157.607 153.357 157.341 152.778 156.826C152.179 156.294 151.732 155.688 151.427 155.009C151.215 154.503 151.076 153.991 151.009 153.472C150.945 152.975 150.979 152.374 151.128 151.662C151.285 150.913 151.409 150.365 151.5 150.012C151.586 149.678 151.801 149.054 152.158 148.12C152.364 147.58 152.521 147.164 152.626 146.878ZM190.368 127.091L190.536 126.997L196.936 137.602C197.263 138.26 197.371 138.921 197.272 139.599C197.168 140.313 196.909 140.994 196.486 141.646C196.244 142.006 195.933 142.344 195.549 142.66C195.145 142.992 194.768 143.26 194.418 143.467C194.08 143.667 193.606 143.877 192.984 144.094C192.347 144.317 191.865 144.475 191.531 144.573C191.196 144.671 190.665 144.811 189.933 144.993C189.487 145.104 189.132 145.193 188.871 145.26C187.94 143.518 185.301 139.335 180.985 132.748L190.368 127.091Z" fill="#5DBA63" stroke="black"/>
<path d="M144.553 158.927C147.831 159.984 149.303 166.15 149.303 166.15L145.231 166.15V191.763H124.193V166.15H120.121C120.121 166.15 121.674 159.793 124.872 158.927C131.168 157.22 139.738 157.374 144.553 158.927Z" fill="#5DBA63"/>
<path d="M144.553 158.927C147.831 159.984 149.303 166.15 149.303 166.15L145.231 166.15V191.763H124.193V166.15H120.121C120.121 166.15 121.674 159.793 124.872 158.927C131.168 157.22 139.738 157.374 144.553 158.927Z" fill="#5DBA63"/>
<path d="M144.553 158.927C147.831 159.984 149.303 166.15 149.303 166.15L145.231 166.15V191.763H124.193V166.15H120.121C120.121 166.15 121.674 159.793 124.872 158.927C131.168 157.22 139.738 157.374 144.553 158.927Z" fill="#5DBA63"/>
<path d="M124.193 166.15H120.121C120.121 166.15 121.674 159.793 124.872 158.927C131.168 157.22 139.738 157.374 144.553 158.927C147.831 159.984 149.303 166.15 149.303 166.15L145.231 166.15M124.193 166.15V191.763H145.231V166.15M124.193 166.15H145.231" stroke="black"/>
<path d="M177.807 168.03C181.085 169.087 181.879 175.254 181.879 175.254H178.485V200.866H157.447V175.254H154.733C154.733 175.254 154.928 168.896 158.126 168.03C164.422 166.324 172.992 166.477 177.807 168.03Z" fill="#FEC632"/>
<path d="M157.447 175.254H154.733C154.733 175.254 154.928 168.896 158.126 168.03C164.422 166.324 172.992 166.477 177.807 168.03C181.085 169.087 181.879 175.254 181.879 175.254H178.485M157.447 175.254V200.866H178.485V175.254M157.447 175.254H178.485" stroke="black"/>
<path d="M214.454 158.836C217.732 159.893 218.526 166.06 218.526 166.06H215.133V191.672H194.094V166.06H191.38C191.38 166.06 191.575 159.702 194.773 158.836C201.069 157.13 209.639 157.283 214.454 158.836Z" fill="#FEC632"/>
<path d="M194.094 166.06H191.38C191.38 166.06 191.575 159.702 194.773 158.836C201.069 157.13 209.639 157.283 214.454 158.836C217.732 159.893 218.526 166.06 218.526 166.06H215.133M194.094 166.06V191.672H215.133V166.06M194.094 166.06H215.133" stroke="black"/>
<path d="M59.0427 110.329L47.5056 104.419V105.732L44.791 152.359C44.791 152.359 48.9929 152.576 52.2562 151.046C55.5195 149.515 60.3321 143.614 63.7933 133.314H67.1865L72.6157 137.255L69.9011 128.061L67.1865 120.18L59.0427 110.329Z" fill="#FEFEFE" stroke="black"/>
<path d="M39.197 100.463C38.1112 94.6834 33.3154 88.4227 31.0532 86.6714C31.0532 86.6714 30.7179 85.0177 31.0532 84.0445C32.0589 81.1249 39.197 84.0445 39.197 84.0445L48.0195 96.5222L57.5206 100.463C64.1792 103.351 68.1714 106.592 72.9176 118.21C73.5373 129.709 76.3109 147.746 81.0614 147.746C85.812 147.746 87.5257 146.909 92.8105 145.12C98.0953 143.33 117.242 135.925 120.635 135.925C124.028 135.925 127.481 143.822 127.481 143.822C124.314 141.414 117.632 138.043 114.375 143.822C111.117 149.601 97.3348 157.159 90.7745 159.567C90.7745 159.567 82.5566 162.133 76.5228 159.567C70.4891 157.001 68.9146 154.366 67.0217 149.06C67.0217 149.06 62.2712 124.761 62.2712 119.507C62.2712 114.254 55.9513 109.672 55.9513 109.672L53.9154 134.628C48.1034 153.236 43.6239 155.056 33.5558 156.956H19.9828C19.9828 156.956 2.85916 153.256 1.6592 146.449C1.39181 144.932 0.513844 142.493 3.90713 145.12C7.30042 147.746 35.1251 150.373 39.197 147.746C43.2689 145.12 41.6996 141.852 41.6996 141.852C41.6996 141.852 38.7446 133.08 39.197 126.731C39.6494 120.383 40.2828 106.242 39.197 100.463Z" fill="#FAD144"/>
<path d="M31.0532 86.6714C33.3154 88.4227 38.1112 94.6834 39.197 100.463C40.2828 106.242 39.6494 120.383 39.197 126.731C38.7446 133.08 41.6996 141.852 41.6996 141.852C41.6996 141.852 43.2689 145.12 39.197 147.746C35.1251 150.373 7.30042 147.746 3.90713 145.12C0.513844 142.493 1.39181 144.932 1.6592 146.449C2.85916 153.256 19.9828 156.956 19.9828 156.956H33.5558C43.6239 155.056 48.1034 153.236 53.9154 134.628L55.9513 109.672M31.0532 86.6714C31.0532 86.6714 34.4834 88.8396 36.4824 87.9848C38.2305 87.2374 39.197 84.0445 39.197 84.0445M31.0532 86.6714C31.0532 86.6714 30.7179 85.0177 31.0532 84.0445C32.0589 81.1249 39.197 84.0445 39.197 84.0445M55.9513 109.672L45.9835 102.433M55.9513 109.672C55.9513 109.672 62.2712 114.254 62.2712 119.507C62.2712 124.761 67.0217 149.06 67.0217 149.06C68.9146 154.366 70.4891 157.001 76.5228 159.567C82.5566 162.133 90.7745 159.567 90.7745 159.567C97.3348 157.159 111.117 149.601 114.375 143.822C117.632 138.043 124.314 141.414 127.481 143.822C127.481 143.822 124.028 135.925 120.635 135.925C117.242 135.925 98.0953 143.33 92.8105 145.12C87.5257 146.909 85.812 147.746 81.0614 147.746C76.3109 147.746 73.5373 129.709 72.9176 118.21C68.1714 106.592 64.1792 103.351 57.5206 100.463L48.0195 96.5222L39.197 84.0445" stroke="black"/>
<path d="M50.8989 66.9855C50.8989 66.9855 46.2733 72.9606 47.5056 76.8364C48.4977 79.9563 53.1175 79.518 53.6135 82.7468C54.0332 85.479 50.8989 89.3141 50.8989 89.3141" stroke="black" stroke-width="1.5"/>
<path d="M61.4412 63.0452C61.4412 63.0452 57.9899 65.0527 59.0427 69.6124C59.8902 73.2829 62.6909 74.3512 63.1146 78.1498C63.4732 81.3642 61.4412 85.3737 61.4412 85.3737" stroke="black" stroke-width="1.5"/>
<path d="M69.1061 95.8813C69.1061 95.8813 65.6548 93.8738 66.7076 89.3141C67.5551 85.6436 70.3558 84.5753 70.7795 80.7767C71.1381 77.5624 69.1061 73.5528 69.1061 73.5528" stroke="black" stroke-width="1.5"/>
<defs>
<filter id="filter0_d_104_2200" x="105.155" y="70.2614" width="16" height="9" filterUnits="userSpaceOnUse" color-interpolation-filters="sRGB">
<feFlood flood-opacity="0" result="BackgroundImageFix"/>
<feColorMatrix in="SourceAlpha" type="matrix" values="0 0 0 0 0 0 0 0 0 0 0 0 0 0 0 0 0 0 127 0" result="hardAlpha"/>
<feOffset dy="4"/>
<feGaussianBlur stdDeviation="2"/>
<feComposite in2="hardAlpha" operator="out"/>
<feColorMatrix type="matrix" values="0 0 0 0 0 0 0 0 0 0 0 0 0 0 0 0 0 0 0.25 0"/>
<feBlend mode="normal" in2="BackgroundImageFix" result="effect1_dropShadow_104_2200"/>
<feBlend mode="normal" in="SourceGraphic" in2="effect1_dropShadow_104_2200" result="shape"/>
</filter>
<filter id="filter1_d_104_2200" x="149.155" y="70.2614" width="16" height="9" filterUnits="userSpaceOnUse" color-interpolation-filters="sRGB">
<feFlood flood-opacity="0" result="BackgroundImageFix"/>
<feColorMatrix in="SourceAlpha" type="matrix" values="0 0 0 0 0 0 0 0 0 0 0 0 0 0 0 0 0 0 127 0" result="hardAlpha"/>
<feOffset dy="4"/>
<feGaussianBlur stdDeviation="2"/>
<feComposite in2="hardAlpha" operator="out"/>
<feColorMatrix type="matrix" values="0 0 0 0 0 0 0 0 0 0 0 0 0 0 0 0 0 0 0.25 0"/>
<feBlend mode="normal" in2="BackgroundImageFix" result="effect1_dropShadow_104_2200"/>
<feBlend mode="normal" in="SourceGraphic" in2="effect1_dropShadow_104_2200" result="shape"/>
</filter>
<filter id="filter2_d_104_2200" x="105.155" y="44.2614" width="16" height="9" filterUnits="userSpaceOnUse" color-interpolation-filters="sRGB">
<feFlood flood-opacity="0" result="BackgroundImageFix"/>
<feColorMatrix in="SourceAlpha" type="matrix" values="0 0 0 0 0 0 0 0 0 0 0 0 0 0 0 0 0 0 127 0" result="hardAlpha"/>
<feOffset dy="4"/>
<feGaussianBlur stdDeviation="2"/>
<feComposite in2="hardAlpha" operator="out"/>
<feColorMatrix type="matrix" values="0 0 0 0 0 0 0 0 0 0 0 0 0 0 0 0 0 0 0.25 0"/>
<feBlend mode="normal" in2="BackgroundImageFix" result="effect1_dropShadow_104_2200"/>
<feBlend mode="normal" in="SourceGraphic" in2="effect1_dropShadow_104_2200" result="shape"/>
</filter>
<filter id="filter3_d_104_2200" x="149.155" y="44.2614" width="16" height="9" filterUnits="userSpaceOnUse" color-interpolation-filters="sRGB">
<feFlood flood-opacity="0" result="BackgroundImageFix"/>
<feColorMatrix in="SourceAlpha" type="matrix" values="0 0 0 0 0 0 0 0 0 0 0 0 0 0 0 0 0 0 127 0" result="hardAlpha"/>
<feOffset dy="4"/>
<feGaussianBlur stdDeviation="2"/>
<feComposite in2="hardAlpha" operator="out"/>
<feColorMatrix type="matrix" values="0 0 0 0 0 0 0 0 0 0 0 0 0 0 0 0 0 0 0.25 0"/>
<feBlend mode="normal" in2="BackgroundImageFix" result="effect1_dropShadow_104_2200"/>
<feBlend mode="normal" in="SourceGraphic" in2="effect1_dropShadow_104_2200" result="shape"/>
</filter>
</defs>
</svg>
