<svg width="177" height="195" viewBox="0 0 177 195" fill="none" xmlns="http://www.w3.org/2000/svg">
<path d="M70.7078 47.4291H70.7065C70.4497 47.4279 70.2419 47.2209 70.2432 46.9677C70.2444 46.7302 70.5984 23.0272 94.8158 3.98174C95.0173 3.82344 95.3086 3.85632 95.4684 4.05601C95.6282 4.25449 95.595 4.5443 95.3946 4.7026C71.5239 23.4765 71.1736 46.7375 71.1736 46.9701C71.1724 47.2246 70.9647 47.4291 70.7078 47.4291Z" fill="#46332A"/>
<path d="M81.9303 23.9405C81.9303 23.9405 84.7633 30.8994 91.6472 30.964C98.8975 31.0334 99.2981 20.1901 92.054 19.8808C89.2714 19.7627 85.8977 20.7867 81.9303 23.9405Z" fill="#7F9922"/>
<path d="M76.8765 26.3636C76.7217 26.3636 76.5705 26.2869 76.482 26.1469C76.3468 25.9313 76.412 25.6476 76.6307 25.5124C82.9125 21.6196 91.2848 24.514 91.6376 24.6394C91.8797 24.7246 92.005 24.9889 91.9202 25.2275C91.8329 25.4674 91.5687 25.5928 91.3254 25.5064C91.2442 25.4771 83.0218 22.64 77.1224 26.293L76.8765 26.3636Z" fill="#47332A"/>
<path d="M96.1115 7.3401C96.1115 7.3401 98.486 10.5024 101.582 10.9602C105.349 11.5167 106.33 5.87039 102.603 5.08987C100.869 4.727 98.6753 5.12274 96.1115 7.3401Z" fill="#AFC547"/>
<path d="M89.3391 9.7973C89.1793 9.7973 89.0232 9.71572 88.9372 9.5696C88.8069 9.3492 88.8831 9.06792 89.1043 8.93884C94.7039 5.69864 101.733 7.03442 102.03 7.09408C102.282 7.14279 102.446 7.38633 102.395 7.63473C102.346 7.88435 102.104 8.04874 101.85 7.99759C101.78 7.98298 94.8637 6.674 89.5726 9.73398L89.3391 9.7973Z" fill="#47332A"/>
<path d="M81.6549 11.1477C81.6549 11.1477 77.6667 7.39975 79.2497 2.93458C81.0724 -2.21126 88.9765 -0.0511389 87.6995 5.25422C87.2091 7.28528 85.54 9.38818 81.6549 11.1477Z" fill="#AFC547"/>
<path d="M82.6544 17.2762C82.4688 17.2762 82.2918 17.1629 82.2205 16.9791C80.2282 11.7894 82.0079 3.86363 82.0853 3.52877C82.1406 3.28037 82.3889 3.12573 82.6409 3.18052C82.8916 3.23775 83.0489 3.48493 82.9912 3.73211C82.9727 3.81126 81.198 11.7236 83.0907 16.6515C83.1804 16.889 83.0612 17.1556 82.8203 17.2457L82.6544 17.2762Z" fill="#47332A"/>
<path d="M71.5792 28.3642C71.5792 28.3642 63.8066 30.0275 60.235 24.587C56.887 19.4862 63.1614 13.7474 68.096 17.3724C70.6131 19.222 72.426 22.5207 71.5792 28.3642Z" fill="#7F9922"/>
<path d="M73.1613 35.0115H73.149C72.8921 35.0054 72.6905 34.7935 72.6967 34.539C72.8724 27.6495 66.2257 22.0787 66.1593 22.0227C65.9614 21.8595 65.9356 21.5697 66.1003 21.3749C66.265 21.1788 66.5588 21.1545 66.7554 21.3152C67.0418 21.5527 73.8139 27.2221 73.6259 34.5634C73.6197 34.813 73.4133 35.0115 73.1613 35.0115Z" fill="#47332A"/>
<path d="M27.2642 70.102C22.1697 72.2488 16.0711 70.1288 11.5617 65.2569C9.83121 63.3963 8.33542 61.112 7.22804 58.5233C5.49015 55.3366 -0.200364 50.371 3.69575 45.4894C-1.7711 41.336 0.943899 35.44 2.69162 30.5402C1.6039 26.9481 4.18859 22.7654 6.54101 21.7803C8.76192 20.8415 14.332 21.0156 15.4197 24.4981C15.4848 24.6917 15.5402 24.9036 15.5685 25.1155C21.3229 26.2662 25.117 29.6464 25.7204 36.1499L25.7303 36.2145C30.8161 37.3018 31.411 44.6517 32.7507 47.775C33.8654 50.3625 34.4886 53.0158 34.6373 55.54C35.0564 62.1349 32.3598 67.9553 27.2642 70.102Z" fill="#7F9922"/>
<path d="M7.22829 58.9835C7.0636 58.9835 6.90507 58.8971 6.82026 58.7424C6.45523 58.0739 5.88861 57.2958 5.29006 56.4727C3.15273 53.5333 0.248502 49.5418 3.05567 45.5722C-1.82246 41.5393 0.211628 35.977 1.85488 31.4863C1.9913 31.1149 2.12524 30.7484 2.25306 30.3867C2.34156 30.1468 2.60584 30.0226 2.84797 30.1055C3.08886 30.1907 3.21666 30.4537 3.13063 30.6936C3.00158 31.0577 2.86515 31.4266 2.72872 31.7992C1.06949 36.3387 -0.813402 41.4833 3.97993 45.1241L4.35357 45.409L4.061 45.7755C1.23294 49.3202 3.90004 52.9865 6.04352 55.9333C6.66174 56.782 7.24428 57.5832 7.63758 58.3041C7.76048 58.5281 7.67693 58.8082 7.44956 58.9287L7.22829 58.9835Z" fill="#46332A"/>
<path d="M34.6411 55.5424C35.0541 62.1349 32.3587 67.9529 27.2668 70.0972C22.1674 72.2451 16.0676 70.13 11.5643 65.2606C10.5172 57.1936 13.5382 52.1086 18.6302 49.9643C23.7197 47.8212 29.5036 49.1984 34.6411 55.5424Z" fill="#F4E0C7"/>
<path d="M13.7297 37.7682C14.4795 38.8105 15.1395 39.8894 15.8094 40.9646C16.4571 42.0483 17.0924 43.1381 17.6959 44.2413C18.3166 45.3372 18.8759 46.4587 19.4658 47.568L20.2991 49.252L20.7157 50.0946L20.9247 50.5159C20.9615 50.5853 20.9492 50.6742 20.8399 50.8057C20.7575 50.9251 20.5461 51.0992 20.2179 51.3232C19.6907 51.68 19.0934 51.9199 18.5059 52.0429C18.1151 52.1232 17.8422 52.1537 17.6984 52.1293C17.5263 52.1172 17.4526 52.0636 17.4292 51.9881L17.267 51.5473L16.945 50.6657L16.2973 48.9025C15.9015 47.7117 15.475 46.5342 15.1088 45.3311C14.7265 44.1354 14.3762 42.925 14.037 41.711C13.7211 40.4873 13.3942 39.2672 13.157 38.0105C13.1239 37.8388 13.2382 37.6733 13.4127 37.6416C13.5381 37.6185 13.6609 37.672 13.7297 37.7682Z" fill="#F4E0C7"/>
<path d="M11.8039 42.3003C12.5008 43.35 13.14 44.4288 13.8098 45.4931L15.721 48.732C16.3638 49.8097 16.9635 50.9092 17.5854 51.9966L18.49 53.6416L18.9436 54.4648L19.1697 54.8764C19.241 55.0164 19.2397 55.1917 18.9632 55.5071C18.7481 55.7519 18.4544 55.8907 18.1533 55.9187C17.7329 55.9552 17.5879 55.8529 17.5141 55.7153L17.3102 55.2928L16.9021 54.4477L16.0848 52.7564C15.5599 51.6203 15.0106 50.4952 14.5042 49.3494L12.9715 45.9168C12.4922 44.7576 11.9834 43.6118 11.5323 42.4379L11.622 42.2419L11.8039 42.3003Z" fill="#F4E0C7"/>
<path d="M18.9838 40.3862C19.4558 41.5515 19.865 42.7351 20.3075 43.9101L21.5292 47.462C21.9422 48.6444 22.3097 49.8401 22.7005 51.0286L23.256 52.8197L23.535 53.7159L23.6739 54.164C23.7145 54.3138 23.6788 54.4867 23.3445 54.7412C23.0852 54.9385 22.7693 55.0152 22.4682 54.9835C22.0491 54.9372 21.9274 54.8082 21.8832 54.6584L21.7677 54.2042L21.5378 53.2958L21.0769 51.4779C20.7893 50.2602 20.4796 49.0498 20.2129 47.8261L19.4005 44.1609C19.1645 42.9299 18.8953 41.7074 18.6888 40.4678L18.8167 40.2924L18.9838 40.3862Z" fill="#F4E0C7"/>
<path d="M25.7206 36.1499C25.127 36.5457 24.8467 36.2875 24.2433 35.5326C23.4247 34.5292 23.5464 35.2196 22.3272 35.5046C21.1006 35.8005 20.8683 33.6074 20.6913 32.3459C20.5241 31.0747 20.3472 30.8446 19.2128 28.3666C18.0697 25.8789 16.6292 28.6613 15.3633 27.1051C14.621 26.1834 14.9737 25.1788 15.4198 24.4981C15.485 24.6917 15.5403 24.9036 15.5686 25.1155C21.3231 26.2661 25.1171 29.6464 25.7206 36.1499Z" fill="#47332E"/>
<path d="M10.8563 34.2053C10.8563 35.4023 9.56703 37.6208 8.35764 37.6208C7.14947 37.6208 5.23956 35.7286 5.23956 34.5316C5.23956 33.3335 7.09048 31.9855 8.29865 31.9855C9.50927 31.9855 10.8563 33.0071 10.8563 34.2053Z" fill="#47332E"/>
<path d="M7.98899 41.0851C7.98899 40.6468 6.70098 39.3694 6.25606 39.3694C5.8136 39.3694 5.45471 40.6468 5.45471 41.0851C5.45471 41.5247 5.8136 41.8802 6.25606 41.8802C6.70098 41.8802 7.98899 41.5247 7.98899 41.0851Z" fill="#47332E"/>
<path d="M4.60534 29.4504H4.59303C4.33739 29.4431 4.13461 29.2312 4.14198 28.9779C4.26366 24.4202 7.42231 22.9846 7.55628 22.9261C7.78734 22.8226 8.06511 22.9286 8.16835 23.1611C8.27282 23.3937 8.16716 23.664 7.93364 23.7675C7.82179 23.8187 5.17682 25.0497 5.06989 29.0023C5.06375 29.2519 4.85852 29.4504 4.60534 29.4504Z" fill="white"/>
<path d="M72.6891 38.7375L67.0255 30.0385L63.4957 31.9125L63.6677 35.9369L43.9979 29.8303L34.1568 60.9452L103.076 82.342L112.917 51.227L72.6891 38.7375Z" fill="#47332E"/>
<path d="M54.7818 50.2639C52.0644 58.8557 42.8292 63.6374 34.157 60.9452C25.4848 58.2529 20.657 49.1047 23.3745 40.5128C26.0919 31.921 35.327 27.138 43.998 29.8303C52.6715 32.5225 57.4993 41.6708 54.7818 50.2639Z" fill="#B38047"/>
<path d="M45.9998 47.5375C44.8027 51.3244 40.7309 53.4334 36.9085 52.245C33.0849 51.059 30.9574 47.0261 32.1558 43.2392C33.3529 39.451 37.4247 37.3432 41.2471 38.5305C45.0695 39.7165 47.1982 43.7494 45.9998 47.5375Z" fill="#C18F5D"/>
<path d="M58.6077 36.4373C58.6077 36.7929 59.4238 52.754 69.8807 52.4934C80.4383 52.2279 83.2356 59.7908 83.2356 59.7908L61.3645 59.7446L58.6077 36.4373Z" fill="#F5CC72"/>
<path d="M107.094 35.4949L106.84 32.5518C105.393 36.318 98.4982 52.1683 85.0535 51.8688C84.4353 51.8554 83.9228 52.34 83.9093 52.9525C83.8982 53.4115 84.1723 53.8134 84.5705 53.9899C84.702 54.0484 84.8495 54.0825 85.0032 54.0861C98.2254 54.3808 105.453 41.431 108.096 35.4096L107.094 35.4949Z" fill="#BCB8B3"/>
<path d="M82.2536 68.4302C88.0879 65.537 90.4502 58.5062 87.5312 52.726C84.6109 46.9457 77.5143 44.6042 71.68 47.4973C65.8456 50.3905 84.4241 54.2663 84.4241 54.2663C84.4241 54.2663 76.4192 71.3234 82.2536 68.4302Z" fill="#BCB8B3"/>
<path d="M102.846 52.3339C103.058 52.4276 103.3 52.4581 103.545 52.4045C104.149 52.273 104.53 51.6812 104.398 51.0833L102.533 42.7046L93.6445 41.9095C93.03 41.8547 92.4842 42.304 92.4302 42.914C92.3749 43.5241 92.8284 44.0635 93.4441 44.1195L100.699 44.7673L102.211 51.5607C102.29 51.9162 102.534 52.1951 102.846 52.3339Z" fill="#BCB8B3"/>
<path d="M109.064 47.1089C109.332 47.227 109.647 47.2429 109.942 47.1247C110.514 46.8946 110.791 46.248 110.56 45.6806L106.658 36.1293L95.9661 36.9548C95.3504 37.0023 94.8895 37.5356 94.9374 38.1469C94.9853 38.757 95.5212 39.2124 96.1406 39.1661L105.198 38.4672L108.484 46.5123C108.597 46.7887 108.81 46.9957 109.064 47.1089Z" fill="#BCB8B3"/>
<path d="M95.9 56.3437C96.0266 56.4009 96.1667 56.4338 96.3142 56.4399C96.9324 56.463 97.4511 55.9857 97.4757 55.3744L97.7362 48.7199L91.2247 46.3978C90.6421 46.1896 90.0018 46.4891 89.7916 47.0663C89.5827 47.641 89.885 48.2742 90.4664 48.4849L95.4355 50.2578L95.2388 55.288C95.2204 55.7543 95.4957 56.1635 95.9 56.3437Z" fill="#BCB8B3"/>
<path d="M112.789 33.0875C112.176 34.4379 110.576 35.0419 109.213 34.4355C107.85 33.8303 107.241 32.2449 107.851 30.8933C108.463 29.5429 110.065 28.9402 111.428 29.5453C112.791 30.1517 113.399 31.7372 112.789 33.0875ZM116.581 29.6988L115.841 22.5328C115.628 20.4494 113.219 19.3791 111.504 20.6041L105.61 24.822L101.908 27.4705C101.066 28.0744 100.529 28.889 100.282 29.767C99.3783 32.5871 101.906 36.2522 106.174 38.1481C110.644 40.1354 115.319 39.4243 116.616 36.5603L116.64 36.4933C116.972 35.8175 117.132 35.0382 117.046 34.1993L116.581 29.6988Z" fill="#BCB8B3"/>
<path d="M102.988 28.9536L102.709 28.861C102.503 28.7076 102.463 28.419 102.617 28.2157C103.317 27.2951 106.429 25.2543 106.781 25.0242C106.992 24.8853 107.283 24.9426 107.425 25.1557C107.566 25.3688 107.506 25.6549 107.291 25.7937C106.371 26.394 103.871 28.0975 103.359 28.7709C103.268 28.8902 103.129 28.9536 102.988 28.9536Z" fill="white"/>
<path d="M111.192 39.7372C109.513 39.7372 107.71 39.3366 105.982 38.5695C105.747 38.4648 105.644 38.192 105.748 37.9607C105.854 37.7281 106.13 37.6246 106.363 37.7293C108.445 38.6535 110.634 39.0054 112.513 38.7193C114.324 38.4441 115.631 37.61 116.193 36.3716C116.296 36.1403 116.569 36.038 116.807 36.1403C117.041 36.245 117.145 36.5165 117.039 36.7491C116.346 38.2821 114.789 39.305 112.655 39.6289C112.182 39.7007 111.692 39.7372 111.192 39.7372Z" fill="#46332A"/>
<path d="M150.127 47.003C150.851 49.1327 150.166 51.5315 147.504 54.0934C144.215 57.2581 137.907 60.6724 127.499 64.1428C123.572 65.453 119.744 66.5404 116.134 67.4049L109.164 46.891C111.138 46.0337 113.225 45.1972 115.394 44.3789C116.96 43.8005 118.564 43.2282 120.206 42.6803C120.89 42.4526 121.56 42.2383 122.219 42.0459C123.738 41.5868 125.185 41.2179 126.58 40.9232C129.054 40.3899 131.325 40.094 133.395 39.9892C143.566 39.4644 148.946 43.529 150.127 47.003Z" fill="#E2A842"/>
<path d="M127.499 64.6031C127.305 64.6031 127.124 64.4825 127.058 64.2902C126.977 64.0491 127.107 63.7873 127.352 63.7069C136.992 60.491 143.665 57.1449 147.18 53.7622C149.557 51.4755 150.401 49.2508 149.686 47.1491C149.604 46.9092 149.735 46.6474 149.979 46.5659C150.223 46.4843 150.485 46.6146 150.566 46.8557C151.406 49.3226 150.484 51.8676 147.829 54.4234C144.212 57.9023 137.423 61.3203 127.647 64.5787L127.499 64.6031Z" fill="#46332A"/>
<path d="M124.197 55.6435C125.723 60.1343 122.286 65.3312 116.518 67.2551C110.751 69.1778 104.84 67.0981 103.314 62.6085C101.79 58.119 103.789 48.6846 109.554 46.7607C115.322 44.838 122.672 51.154 124.197 55.6435Z" fill="#F1D483"/>
<path d="M127.072 47.7287C122.928 45.4517 118.495 44.6468 115.394 44.3789C116.96 43.8006 118.564 43.2282 120.206 42.6803C120.89 42.4526 121.56 42.2383 122.219 42.0459C125.108 42.9031 127.216 44.1719 128.744 45.5296C129.983 46.6267 128.523 48.519 127.072 47.7287Z" fill="#F1D483"/>
<path d="M135.809 43.9576C132.473 41.8437 128.771 41.1533 126.58 40.9232C129.054 40.3898 131.325 40.0939 133.395 39.9892C135.011 40.6857 136.211 41.5503 137.105 42.4501C137.945 43.2915 136.824 44.5908 135.809 43.9576Z" fill="#F1D483"/>
<path d="M176.801 191.934C176.801 190.24 140.699 188.868 96.164 188.868C51.6279 188.868 15.5242 190.24 15.5242 191.934C15.5242 193.626 51.6279 195 96.164 195C140.699 195 176.801 193.626 176.801 191.934Z" fill="#46332A"/>
<path d="M84.0025 68.7784C84.0025 68.7784 71.122 66.9726 77.5045 60.0477C77.5045 60.0477 68.0112 58.192 77.6765 50.1591L84.0025 68.7784Z" fill="#CE4729"/>
<path d="M106.518 50.8008C106.336 50.8008 106.161 50.6937 106.089 50.5171C105.99 50.2821 106.103 50.0118 106.339 49.9144C111.031 47.9929 114.717 49.1485 116.107 49.582C116.29 49.6404 116.427 49.6867 116.521 49.7074C116.655 49.6818 116.799 49.711 116.912 49.8036C117.111 49.9655 117.138 50.2553 116.974 50.4514C116.731 50.7448 116.41 50.6438 115.826 50.4611C114.403 50.0154 111.074 48.9731 106.696 50.7655L106.518 50.8008Z" fill="#46332A"/>
<path d="M91.1187 52.5762C96.4959 50.9664 99.6988 46.5341 100.574 40.9377C104.4 42.8714 107.457 46.2821 108.797 50.6754C109.931 54.3868 109.651 58.1859 108.27 61.5114C104.337 58.8824 99.2883 57.9619 94.3917 59.4279C89.4963 60.894 85.8067 64.4313 84.0025 68.7784C76.504 65.94 78.2677 58.5707 78.2677 58.5707C75.903 55.2574 76.6146 53.2495 77.6765 50.1591C81.3698 53.0657 86.581 53.9363 91.1187 52.5762Z" fill="#F4E0C7"/>
<path d="M108.27 61.5114C108.27 61.5114 106.61 53.0876 101.578 51.1747C101.578 51.1747 104.472 48.0002 100.574 40.9378C100.574 40.9378 107.502 40.5786 108.384 49.3214C108.384 49.3214 115.68 56.1038 108.27 61.5114Z" fill="#CE4729"/>
<path d="M121.805 57.1339C112.76 62.0423 102.012 60.7601 94.6818 54.7132C93.9874 54.1409 92.9624 54.936 93.3938 55.7202L93.4146 55.7592C99.7 67.1236 114.307 71.1723 126.045 64.8015C137.782 58.4332 142.202 44.0562 135.918 32.6906C135.772 32.4263 135.621 32.1645 135.464 31.9088C135.09 31.2902 134.114 31.6714 134.23 32.3849C135.807 42.0069 131.107 52.0855 121.805 57.1339Z" fill="#AFC547"/>
<path d="M126.589 65.7866C114.269 72.474 98.7536 67.9833 92.0049 55.7762C91.528 54.9153 91.8463 53.8353 92.7165 53.3628C93.5854 52.8916 94.6768 53.2069 95.1525 54.0678C100.951 64.5543 114.28 68.4119 124.865 62.6682C135.45 56.9232 139.343 43.7189 133.546 33.2312C133.069 32.3703 133.387 31.2902 134.257 30.8178C135.126 30.3453 136.218 30.6607 136.693 31.5228C143.442 43.7287 138.911 59.1004 126.589 65.7866Z" fill="#3E7232"/>
<path d="M136.867 35.9625C136.651 35.9625 136.456 35.8115 136.412 35.5923C135.933 33.23 134.709 32.2632 134.696 32.2535C134.495 32.0988 134.458 31.809 134.613 31.6093C134.769 31.4084 135.056 31.3682 135.262 31.5217C135.323 31.5679 136.77 32.6821 137.324 35.4109C137.374 35.6605 137.211 35.9028 136.959 35.9539L136.867 35.9625Z" fill="white"/>
<path d="M84.1773 191.689H25.9396C21.6699 191.689 18.1006 188.475 17.6938 184.264L6.53153 68.6457C6.06572 63.8262 9.89053 59.6569 14.7773 59.6569H95.3396C100.225 59.6569 104.051 63.8262 103.585 68.6457L92.4231 184.264C92.0175 188.475 88.4458 191.689 84.1773 191.689Z" fill="#BCB8B3"/>
<path d="M104.779 69.0512H5.33668C2.5713 69.0512 0.329468 66.8302 0.329468 64.0905C0.329468 61.3495 2.5713 59.1285 5.33668 59.1285H104.779C107.545 59.1285 109.788 61.3495 109.788 64.0905C109.788 66.8302 107.545 69.0512 104.779 69.0512Z" fill="#BCB8B3"/>
<path d="M120.902 191.689H62.6646C58.3949 191.689 54.8244 188.475 54.4188 184.264L51.4396 153.411L47.0384 107.824L43.2565 68.6457C42.7907 63.8262 46.6155 59.6569 51.5023 59.6569H132.065C136.95 59.6569 140.775 63.8262 140.31 68.6457L129.148 184.264C128.74 188.475 125.171 191.689 120.902 191.689Z" fill="#8C8781"/>
<path d="M43.3428 69.2947L138.957 82.6902L140.244 69.3605L43.3428 69.2947Z" fill="#46332A"/>
<path d="M141.504 69.0512H42.0621C39.2967 69.0512 37.0549 66.8302 37.0549 64.0905C37.0549 61.3495 39.2967 59.1285 42.0621 59.1285H141.504C144.269 59.1285 146.511 61.3495 146.511 64.0905C146.511 66.8302 144.269 69.0512 141.504 69.0512Z" fill="#8C8781"/>
<path d="M141.504 69.5127H42.0621C39.0435 69.5127 36.5891 67.0798 36.5891 64.0904C36.5891 63.8359 36.7968 63.6289 37.0537 63.6289C37.3105 63.6289 37.5195 63.8359 37.5195 64.0904C37.5195 66.572 39.5573 68.5909 42.0621 68.5909H141.504C141.761 68.5909 141.969 68.7967 141.969 69.0512C141.969 69.3069 141.761 69.5127 141.504 69.5127Z" fill="#46332A"/>
<path d="M79.1232 118.24C78.1953 116.507 78.0982 114.573 78.8184 112.804L80.0696 113.521C80.5809 113.814 81.204 113.378 81.0946 112.802L80.6005 110.189L79.9786 106.895C79.9 106.482 79.4698 106.236 79.0704 106.375L75.8798 107.484L73.3454 108.367C72.7887 108.561 72.7174 109.312 73.2286 109.604L74.4356 110.296C72.871 113.569 72.9447 117.347 74.6802 120.581C76.4844 123.938 79.8029 126.158 83.5503 126.597C84.2828 126.682 84.917 126.09 84.917 125.36V122.856C84.917 122.249 84.4868 121.704 83.8797 121.613C81.8517 121.303 80.1187 120.092 79.1232 118.24Z" fill="white"/>
<path d="M107.97 110.108L105.763 111.371C105.215 111.684 105.013 112.344 105.237 112.931C105.888 114.63 105.786 116.483 104.924 118.15C103.883 120.159 101.989 121.423 99.7739 121.644L99.7776 120.271C99.7788 119.687 99.0881 119.37 98.6382 119.748L96.5955 121.475L94.0231 123.652C93.7023 123.924 93.7011 124.416 94.0206 124.691L96.5832 126.879L98.6174 128.616C99.0635 128.997 99.7567 128.683 99.7579 128.099L99.7616 126.653C103.857 126.419 107.51 124.08 109.401 120.426C110.993 117.352 111.097 113.793 109.738 110.666C109.445 109.994 108.61 109.743 107.97 110.108Z" fill="white"/>
<path d="M97.2982 99.2225L96.0888 99.9104C95.5775 100.203 95.6464 100.954 96.2031 101.149L98.7325 102.038L101.922 103.157C102.32 103.297 102.753 103.052 102.83 102.639L103.462 99.3467L103.962 96.7335C104.073 96.1588 103.452 95.7205 102.94 96.0115L101.682 96.7275C99.5351 93.4775 95.9647 91.5536 91.9997 91.5536C88.2683 91.5536 84.8847 93.2559 82.708 96.1661C82.2717 96.7518 82.4733 97.5883 83.1099 97.9524L85.321 99.2176C85.8434 99.5159 86.5206 99.4161 86.8979 98.9509C88.1307 97.4252 89.9742 96.5412 91.9997 96.5412C94.1383 96.5412 96.0692 97.536 97.2982 99.2225Z" fill="white"/>
<path d="M54.4143 184.724C54.1783 184.724 53.9743 184.545 53.9522 184.308L46.5717 107.868C46.5471 107.613 46.7351 107.388 46.9907 107.365C47.2489 107.354 47.4725 107.524 47.4983 107.779L54.8776 184.22C54.9022 184.473 54.7142 184.697 54.4597 184.723L54.4143 184.724Z" fill="#46332A"/>
<path d="M69.1298 138.9C69.1298 137.152 68.1023 135.806 66.4505 135.806C64.7999 135.806 63.7589 137.152 63.7589 138.9C63.7589 140.699 64.9019 141.97 66.4505 141.97C67.9868 141.97 69.1298 140.712 69.1298 138.9ZM61.753 138.913C61.753 136.107 63.6052 133.919 66.4505 133.919C69.2822 133.919 71.1111 136.12 71.1111 138.913C71.1111 141.755 69.1802 143.845 66.4505 143.845C63.7072 143.845 61.753 141.755 61.753 138.913Z" fill="white"/>
<path d="M76.3211 137.654C77.0069 137.654 77.4776 137.315 77.4776 136.811C77.4776 136.347 77.045 136.019 76.3211 136.019H74.7184C74.4812 136.019 74.2907 136.209 74.2907 136.443V137.231C74.2907 137.465 74.4812 137.654 74.7184 137.654H76.3211ZM72.3856 134.569C72.3856 134.335 72.5761 134.145 72.8133 134.145H76.3469C78.2507 134.145 79.406 135.353 79.406 136.861C79.406 137.735 79.025 138.479 78.2851 138.959C78.0639 139.102 78.0417 139.394 78.2113 139.596C78.7276 140.215 78.7595 141.181 79.1381 142.374C79.331 142.983 78.8787 143.604 78.2347 143.604H78.1536C77.7345 143.604 77.367 143.34 77.2416 142.943C76.8434 141.666 76.6099 139.529 75.2678 139.529H74.2907V142.661C74.2907 143.182 73.8629 143.604 73.3369 143.604C72.8121 143.604 72.3856 143.182 72.3856 142.661V134.569Z" fill="white"/>
<path d="M95.8605 139.389L94.7039 136.422L93.5486 139.389H95.8605ZM94.227 134.145H95.1538C95.5102 134.145 95.8297 134.362 95.96 134.691L98.9663 142.363C99.1998 142.96 98.7549 143.604 98.1084 143.604C97.7249 143.604 97.3832 143.37 97.2468 143.017L96.5708 141.253H92.8382L92.1389 143.024C92.0012 143.375 91.6607 143.604 91.281 143.604H91.254C90.605 143.604 90.1601 142.958 90.3948 142.36L93.422 134.689C93.5523 134.36 93.8706 134.145 94.227 134.145Z" fill="white"/>
<path d="M101.312 134.145H101.618C101.942 134.145 102.243 134.308 102.419 134.576L106.035 140.12V135.089C106.035 134.567 106.461 134.145 106.986 134.145C107.513 134.145 107.94 134.567 107.94 135.089V142.655C107.94 143.18 107.51 143.604 106.98 143.604H106.708C106.383 143.604 106.08 143.442 105.903 143.17L102.276 137.617V142.655C102.276 143.18 101.847 143.604 101.318 143.604C100.788 143.604 100.359 143.18 100.359 142.655V135.089C100.359 134.567 100.784 134.145 101.312 134.145Z" fill="white"/>
<path d="M110.712 134.145C111.245 134.145 111.677 134.573 111.677 135.101V142.649C111.677 143.178 111.245 143.604 110.712 143.604C110.18 143.604 109.747 143.178 109.747 142.649V135.101C109.747 134.573 110.18 134.145 110.712 134.145Z" fill="white"/>
<path d="M113.165 139.001C113.165 136.095 115.234 133.919 118.014 133.919C119.44 133.919 120.658 134.482 121.496 135.477C121.93 135.993 121.695 136.79 121.051 136.999L120.941 137.035C120.548 137.163 120.128 137.017 119.872 136.697C119.391 136.102 118.776 135.832 117.989 135.832C116.327 135.832 115.158 137.152 115.158 138.95C115.158 140.712 116.277 141.944 117.863 141.944C118.794 141.944 119.561 141.56 120.049 140.852C120.275 140.524 120.673 140.357 121.063 140.449C121.714 140.6 122.027 141.355 121.655 141.904C120.811 143.147 119.51 143.845 117.877 143.845C115.12 143.845 113.165 141.856 113.165 139.001Z" fill="white"/>
<path d="M89.0737 142.16V139.428C89.0737 138.904 88.6435 138.478 88.1138 138.478H86.1977C85.6741 138.478 85.2525 138.898 85.2525 139.416C85.2525 139.934 85.6741 140.353 86.1977 140.353H87.1306C86.7754 141.498 85.8855 141.95 85.0227 141.95C83.6769 141.95 82.6236 140.868 82.6236 138.969C82.6236 137.207 83.5245 135.812 85.137 135.812C85.781 135.812 86.3575 136.035 86.7631 136.543C87.0052 136.846 87.3837 137.011 87.7647 136.924C88.4297 136.768 88.7382 135.981 88.3289 135.438C87.6013 134.474 86.4988 133.912 85.1112 133.912C82.3053 133.912 80.6804 136.227 80.6804 138.981C80.6804 141.837 82.4331 143.838 84.8457 143.838C85.8056 143.838 86.6279 143.511 87.2228 142.864C87.3186 143.282 87.6775 143.599 88.1298 143.599C88.6509 143.599 89.0749 143.18 89.0749 142.662L89.0737 142.16Z" fill="white"/>
<path d="M34.8179 70.1945C33.0505 70.684 30.424 62.2846 32.2491 59.9857C34.5856 57.0438 39.6518 55.9284 45.4308 56.1293C49.8087 56.2779 51.4028 55.4681 51.9657 54.7619C52.9145 53.5686 52.2115 51.0468 51.4667 48.3752C50.9529 46.5341 50.422 44.6285 50.2819 42.7156C49.7018 34.8166 54.1326 31.4351 54.3231 31.2939L54.7016 31.0126L55.176 30.9858C55.251 30.9858 62.8478 30.6692 63.6626 40.6553C64.3644 49.2581 63.6921 58.8386 63.6626 59.2429C63.5963 60.1939 62.6893 60.8636 61.7503 60.6554H61.7478C61.6028 60.6225 47.1797 57.6392 44.6688 64.4667C42.8952 63.8262 42.3901 61.5674 43.7335 60.2548C44.1182 59.8785 44.5348 59.5412 44.9785 59.2392C40.4777 59.1516 38.5714 60.6103 36.9306 62.6743C34.8437 65.302 34.3865 68.6652 34.8179 70.1945Z" fill="#F5CC72"/>
<path d="M50.5402 25.001C50.5402 25.001 54.1242 25.8717 55.1763 30.9859L53.4285 33.2385L50.5402 27.6884V25.001Z" fill="#F5CC72"/>
<path d="M52.3741 43.49C52.1516 43.49 51.9562 43.3329 51.9181 43.1089C51.1389 38.7082 52.8681 35.4096 52.9431 35.2708C53.0635 35.0455 53.345 34.9627 53.5699 35.0796C53.7973 35.1977 53.8833 35.4766 53.7653 35.7018C53.7481 35.7323 52.1123 38.8738 52.8325 42.9506C52.8767 43.2002 52.7071 43.4401 52.4539 43.4839L52.3741 43.49Z" fill="white"/>
<path d="M32.2494 60.4472L31.9606 60.3486C31.759 60.1915 31.7259 59.9017 31.8844 59.702C34.1287 56.8746 38.9588 55.445 45.447 55.6691C49.8581 55.8237 51.1954 54.986 51.601 54.4758C52.4048 53.4664 51.7005 50.9409 51.0184 48.4983C50.952 48.2535 51.097 47.999 51.3441 47.9321C51.5899 47.8639 51.8468 48.0076 51.9168 48.2535C52.6924 51.0395 53.4261 53.6709 52.331 55.0469C51.4142 56.1963 49.0875 56.7175 45.4151 56.5897C39.228 56.3766 34.6707 57.6819 32.6145 60.2706C32.5223 60.3875 32.3858 60.4472 32.2494 60.4472Z" fill="#46332A"/>
</svg>
