<svg width="323" height="277" viewBox="0 0 323 277" fill="none" xmlns="http://www.w3.org/2000/svg">
<path d="M293.921 253.179H319.823V252.973H293.921V253.179Z" fill="#ECECEC"/>
<path d="M220.216 255.423H227.014V255.216H220.216V255.423Z" fill="#ECECEC"/>
<path d="M278.13 245.504H293.138V245.296H278.13V245.504Z" fill="#ECECEC"/>
<path d="M9.02283 246.893H42.7998V246.686H9.02283V246.893Z" fill="#ECECEC"/>
<path d="M49.7627 246.893H54.7151V246.686H49.7627V246.893Z" fill="#ECECEC"/>
<path d="M70.8103 250.383H144.065V250.176H70.8103V250.383Z" fill="#ECECEC"/>
<path d="M290.195 161.133L282.749 136.344L273.987 107.165L273.986 107.171L273.985 107.168L259.635 161.133H258.362L254.767 149.164C254.767 149.158 254.767 149.15 254.763 149.139L242.154 107.17L242.153 107.172L242.152 107.168L227.802 161.133H226.532L222.013 146.085L218.623 134.804L210.321 107.168L210.319 107.173L210.318 107.167L201.142 141.665L195.967 161.133H194.697L187.251 136.344L178.49 107.165L178.488 107.171L178.487 107.168L164.137 161.133H162.867L158.347 146.085L154.896 134.599L146.656 107.168L146.654 107.173L146.652 107.167L137.477 141.665L132.302 161.133H131.032L127.437 149.164C127.437 149.158 127.437 149.15 127.432 149.139L114.824 107.17L114.823 107.172L114.821 107.168L100.472 161.133H99.1994L91.7532 136.344L82.9917 107.165L82.9909 107.171L82.9893 107.168L68.6396 161.133H67.3689L62.8497 146.085L59.5254 135.021L51.158 107.168L51.1565 107.173L51.1549 107.167L41.9789 141.665L36.8052 161.133V194.308H290.195V161.133Z" fill="#F5F5F5"/>
<path d="M315.197 199.387L306.281 169.707L295.79 134.771L295.789 134.777L295.787 134.773L278.605 199.387H277.082L272.778 185.057C272.777 185.048 272.778 185.04 272.772 185.028L257.675 134.776L257.674 134.778L257.673 134.773L240.491 199.387H238.97L233.559 181.371L229.5 167.864L219.56 134.773L219.559 134.779L219.556 134.772L208.569 176.079L202.374 199.387H200.854L191.938 169.707L181.448 134.771L181.446 134.777L181.444 134.773L164.263 199.387H162.742L157.33 181.371L153.198 167.618L143.332 134.773L143.33 134.779L143.328 134.772L132.341 176.079L126.146 199.387H124.625L120.321 185.057C120.32 185.048 120.321 185.04 120.315 185.028L105.218 134.776V134.778L105.215 134.773L88.0341 199.387H86.5108L77.5952 169.707L67.1047 134.771L67.1031 134.777L67.1016 134.773L49.9195 199.387H48.3993L42.9878 181.371L39.0067 168.123L28.9893 134.773L28.9869 134.779L28.9853 134.772L17.999 176.079L11.8032 199.387V239.109H315.197V199.387Z" fill="#F0F0F0"/>
<path d="M265.113 240.524H303.81L295.99 97.0261H272.933L265.113 240.524Z" fill="#F0F0F0"/>
<path d="M297.609 100.962H271.313V93.5515H297.609V100.962Z" fill="#ECECEC"/>
<path d="M218.193 240.524H256.89L249.07 97.0261H226.013L218.193 240.524Z" fill="#F0F0F0"/>
<path d="M250.689 100.962H224.393V93.5515H250.689V100.962Z" fill="#ECECEC"/>
<path d="M131.967 174.876V164.776L107.641 174.876V164.776L83.3144 174.876V164.776L58.988 174.876V164.776L29.638 176.961H29.3416V106.435H14.2419V240.524H19.9404H29.3416H156.294V184.317V176.961V164.776L131.967 174.876Z" fill="#E1E1E1"/>
<path d="M176.516 204.093H102.656V240.523H176.516V204.093Z" fill="#F0F0F0"/>
<path d="M92.1496 203.348H79.9136C78.1674 203.348 76.7512 204.845 76.7512 206.691V232.197C76.7512 233.767 77.778 235.074 79.1574 235.433V240.524H81.1758V235.54H85.0224V240.524H87.0408V235.54H90.8874V240.524H92.9058V235.433C94.2852 235.074 95.312 233.767 95.312 232.197V206.691C95.312 204.845 93.8958 203.348 92.1496 203.348Z" fill="#F0F0F0"/>
<path d="M69.5621 203.348H57.3261C55.5799 203.348 54.1637 204.845 54.1637 206.691V232.197C54.1637 233.767 55.1905 235.074 56.5699 235.433V240.524H58.5883V235.54H62.4349V240.524H64.4533V235.54H68.2999V240.524H70.3183V235.433C71.6977 235.074 72.7245 233.767 72.7245 232.197V206.691C72.7245 204.845 71.3083 203.348 69.5621 203.348Z" fill="#F0F0F0"/>
<path d="M46.9748 203.348H34.7388C32.9926 203.348 31.5764 204.845 31.5764 206.691V232.197C31.5764 233.767 32.6032 235.074 33.9826 235.433V240.524H36.001V235.54H39.8476V240.524H41.866V235.54H45.7126V240.524H47.731V235.433C49.1104 235.074 50.1372 233.767 50.1372 232.197V206.691C50.1372 204.845 48.721 203.348 46.9748 203.348Z" fill="#F0F0F0"/>
<path d="M269.667 217.95H227.595V240.524H269.667V217.95Z" fill="#E1E1E1"/>
<path d="M223.744 217.95H181.672V240.524H223.744V217.95Z" fill="#E1E1E1"/>
<path d="M316.966 217.95H274.893V240.524H316.966V217.95Z" fill="#E1E1E1"/>
<path d="M28.3528 84.3174C28.198 81.1713 34.6948 79.8628 35.932 82.479C37.1699 85.0952 34.6948 87.0576 34.6948 87.0576C34.6948 87.0576 38.407 88.6281 35.3134 91.031C32.2198 93.434 30.9827 91.031 30.9827 91.031C30.9827 91.031 27.4246 94.4152 26.4964 93.1067C25.5681 91.799 27.4246 90.7806 27.4246 90.7806C27.4246 90.7806 24.4342 90.9815 24.8471 87.8751C25.2592 84.7679 28.3528 84.3174 28.3528 84.3174Z" fill="#E1E1E1"/>
<path d="M18.9482 98.9735C18.8708 97.4005 22.1192 96.7466 22.7378 98.0543C23.3571 99.3628 22.1192 100.343 22.1192 100.343C22.1192 100.343 23.9757 101.128 22.4289 102.33C20.8821 103.532 20.2635 102.33 20.2635 102.33C20.2635 102.33 18.4845 104.022 18.02 103.369C17.5562 102.714 18.4845 102.206 18.4845 102.206C18.4845 102.206 16.9893 102.306 17.195 100.752C17.4014 99.1992 18.9482 98.9735 18.9482 98.9735Z" fill="#E1E1E1"/>
<path d="M17.6893 66.2127C17.4673 61.697 26.7934 59.819 28.5693 63.5742C30.346 67.3295 26.7934 70.1466 26.7934 70.1466C26.7934 70.1466 32.1219 72.4007 27.681 75.8501C23.2408 79.2995 21.4641 75.8501 21.4641 75.8501C21.4641 75.8501 16.3568 80.7081 15.0251 78.83C13.6925 76.9528 16.3568 75.4906 16.3568 75.4906C16.3568 75.4906 12.0644 75.779 12.6564 71.3195C13.2484 66.86 17.6893 66.2127 17.6893 66.2127Z" fill="#E1E1E1"/>
<path d="M240.557 68.7932C240.402 65.6471 246.899 64.3395 248.136 66.9548C249.374 69.571 246.899 71.5334 246.899 71.5334C246.899 71.5334 250.611 73.1039 247.517 75.5069C244.424 77.9098 243.187 75.5069 243.187 75.5069C243.187 75.5069 239.628 78.891 238.7 77.5833C237.773 76.2748 239.628 75.2564 239.628 75.2564C239.628 75.2564 236.638 75.4581 237.051 72.3509C237.463 69.2445 240.557 68.7932 240.557 68.7932Z" fill="#E1E1E1"/>
<path d="M231.152 83.4492C231.075 81.8762 234.323 81.2223 234.942 82.5309C235.561 83.8385 234.323 84.8197 234.323 84.8197C234.323 84.8197 236.179 85.605 234.632 86.8061C233.086 88.0079 232.467 86.8061 232.467 86.8061C232.467 86.8061 230.688 88.4981 230.224 87.8443C229.76 87.1904 230.688 86.6812 230.688 86.6812C230.688 86.6812 229.193 86.7813 229.399 85.2281C229.606 83.6749 231.152 83.4492 231.152 83.4492Z" fill="#E1E1E1"/>
<path d="M229.893 50.6886C229.671 46.1728 238.997 44.2948 240.773 48.0501C242.55 51.8061 238.997 54.6224 238.997 54.6224C238.997 54.6224 244.326 56.8765 239.885 60.326C235.445 63.7754 233.668 60.326 233.668 60.326C233.668 60.326 228.561 65.1839 227.229 63.3059C225.896 61.4286 228.561 59.9664 228.561 59.9664C228.561 59.9664 224.268 60.2549 224.86 55.7953C225.452 51.3358 229.893 50.6886 229.893 50.6886Z" fill="#E1E1E1"/>
<path d="M287.166 69.01C287.011 65.8639 293.508 64.5563 294.745 67.1716C295.983 69.7878 293.508 71.7502 293.508 71.7502C293.508 71.7502 297.22 73.3207 294.126 75.7237C291.033 78.1266 289.796 75.7237 289.796 75.7237C289.796 75.7237 286.238 79.1078 285.309 77.8001C284.381 76.4916 286.238 75.4732 286.238 75.4732C286.238 75.4732 283.247 75.6749 283.66 72.5677C284.072 69.4613 287.166 69.01 287.166 69.01Z" fill="#E1E1E1"/>
<path d="M277.761 83.666C277.684 82.093 280.932 81.4391 281.552 82.7468C282.17 84.0553 280.932 85.0365 280.932 85.0365C280.932 85.0365 282.789 85.8218 281.242 87.0229C279.695 88.2247 279.077 87.0229 279.077 87.0229C279.077 87.0229 277.298 88.7149 276.833 88.0611C276.369 87.4072 277.298 86.898 277.298 86.898C277.298 86.898 275.803 86.9981 276.008 85.4449C276.215 83.8917 277.761 83.666 277.761 83.666Z" fill="#E1E1E1"/>
<path d="M276.502 50.9054C276.28 46.3896 285.606 44.5116 287.382 48.2668C289.159 52.0229 285.606 54.8392 285.606 54.8392C285.606 54.8392 290.935 57.0933 286.494 60.5428C282.054 63.9922 280.277 60.5428 280.277 60.5428C280.277 60.5428 275.17 65.4007 273.838 63.5227C272.506 61.6454 275.17 60.1832 275.17 60.1832C275.17 60.1832 270.877 60.4717 271.469 56.0121C272.061 51.5526 276.502 50.9054 276.502 50.9054Z" fill="#E1E1E1"/>
<path d="M288.16 228.059C266.328 277.2 188.8 270.267 158.882 235.71C128.964 201.152 119.238 179.005 92.2498 191.913C65.2606 204.822 30.8487 201.369 28.8742 160.366C26.8996 119.363 58.5221 70.8757 108.708 56.5324C158.895 42.19 158.882 -8.57014 225.305 1.67232C261.519 7.25604 262.344 48.6731 257.23 82.9284C252.116 117.184 313.48 171.07 288.16 228.059Z" fill="#0F7AE1"/>
<g opacity="0.899994">
<path d="M288.16 228.059C266.328 277.2 188.8 270.267 158.882 235.71C128.964 201.152 119.238 179.005 92.2498 191.913C65.2606 204.822 30.8487 201.369 28.8742 160.366C26.8996 119.363 58.5221 70.8757 108.708 56.5324C158.895 42.19 158.882 -8.57014 225.305 1.67232C261.519 7.25604 262.344 48.6731 257.23 82.9284C252.116 117.184 313.48 171.07 288.16 228.059Z" fill="white"/>
</g>
<path d="M315.121 267.64C315.121 272.81 247.238 277 163.5 277C79.762 277 11.8789 272.81 11.8789 267.64C11.8789 262.471 79.762 258.281 163.5 258.281C247.238 258.281 315.121 262.471 315.121 267.64Z" fill="#F5F5F5"/>
<path d="M149.758 113.832V53.9849H112.937V113.832C112.937 140.544 108.08 167.007 98.6299 191.779H164.065C154.615 167.007 149.758 140.544 149.758 113.832Z" fill="#0F7AE1"/>
<g opacity="0.399994">
<path d="M164.068 191.78H98.6322C108.079 167.007 112.936 140.541 112.936 113.83V53.9852H149.759V113.83C149.759 127.188 150.971 140.479 153.368 153.532C155.764 166.584 159.344 179.398 164.068 191.78Z" fill="white"/>
</g>
<g opacity="0.399994">
<path d="M140.497 191.78H98.6323C108.078 167.007 112.935 140.541 112.935 113.83V53.9852H131.347V113.83C131.347 127.188 132.124 140.479 133.656 153.532C135.188 166.584 137.474 179.398 140.497 191.78Z" fill="white"/>
</g>
<path d="M150.732 55.6294H111.965V51.0723H150.732V55.6294Z" fill="#0F7AE1"/>
<g opacity="0.199997">
<path d="M132.953 55.6294H111.965V51.0723H132.953V55.6294Z" fill="white"/>
</g>
<g opacity="0.199997">
<path d="M149.758 65.5039H112.936V64.0623H149.758V65.5039Z" fill="black"/>
</g>
<g opacity="0.199997">
<path d="M149.758 78.7585H112.936V77.317H149.758V78.7585Z" fill="black"/>
</g>
<g opacity="0.199997">
<path d="M149.758 92.0189H112.936V90.5773H149.758V92.0189Z" fill="black"/>
</g>
<g opacity="0.199997">
<path d="M149.758 105.279H112.936V103.832H149.758V105.279Z" fill="black"/>
</g>
<g opacity="0.199997">
<path d="M149.81 118.534H112.882C112.894 118.056 112.906 117.577 112.912 117.093H149.781C149.787 117.577 149.798 118.056 149.81 118.534Z" fill="black"/>
</g>
<g opacity="0.199997">
<path d="M150.489 131.795H112.198C112.239 131.31 112.28 130.832 112.309 130.347H150.379C150.414 130.832 150.448 131.31 150.489 131.795Z" fill="black"/>
</g>
<g opacity="0.199997">
<path d="M151.986 145.049H110.707C110.783 144.571 110.847 144.092 110.91 143.608H151.783C151.847 144.086 151.917 144.571 151.986 145.049Z" fill="black"/>
</g>
<g opacity="0.199997">
<path d="M154.296 158.31H108.398C108.496 157.825 108.589 157.347 108.688 156.862H154.006C154.099 157.347 154.197 157.825 154.296 158.31Z" fill="black"/>
</g>
<g opacity="0.199997">
<path d="M157.481 171.565H105.218C105.351 171.086 105.485 170.602 105.607 170.123H157.087C157.215 170.607 157.342 171.086 157.481 171.565Z" fill="black"/>
</g>
<g opacity="0.199997">
<path d="M161.549 184.825H101.151C101.313 184.346 101.475 183.869 101.632 183.383H161.061C161.224 183.869 161.386 184.346 161.549 184.825Z" fill="black"/>
</g>
<path d="M87.198 113.832V53.9849H50.3775V113.832C50.3775 140.544 45.5198 167.007 36.0701 191.779H101.505C92.055 167.007 87.198 140.544 87.198 113.832Z" fill="#0F7AE1"/>
<g opacity="0.399994">
<path d="M101.508 191.78H36.0723C45.5188 167.007 50.3758 140.541 50.3758 113.83V53.9852H87.1986V113.83C87.1986 127.188 88.4107 140.479 90.8076 153.532C93.2044 166.584 96.7844 179.398 101.508 191.78Z" fill="white"/>
</g>
<g opacity="0.399994">
<path d="M77.9377 191.78H36.0725C45.5183 167.007 50.3753 140.541 50.3753 113.83V53.9852H68.7867V113.83C68.7867 127.188 69.564 140.479 71.0959 153.532C72.6279 166.584 74.9145 179.398 77.9377 191.78Z" fill="white"/>
</g>
<path d="M88.1721 55.6294H49.4053V51.0723H88.1721V55.6294Z" fill="#0F7AE1"/>
<g opacity="0.199997">
<path d="M70.3926 55.6294H49.4053V51.0723H70.3926V55.6294Z" fill="white"/>
</g>
<g opacity="0.199997">
<path d="M87.1985 65.5039H50.3757V64.0623H87.1985V65.5039Z" fill="black"/>
</g>
<g opacity="0.199997">
<path d="M87.1985 78.7585H50.3757V77.317H87.1985V78.7585Z" fill="black"/>
</g>
<g opacity="0.199997">
<path d="M87.1985 92.0189H50.3757V90.5773H87.1985V92.0189Z" fill="black"/>
</g>
<g opacity="0.199997">
<path d="M87.1985 105.279H50.3757V103.832H87.1985V105.279Z" fill="black"/>
</g>
<g opacity="0.199997">
<path d="M87.2502 118.534H50.3226C50.3344 118.056 50.3461 117.577 50.3523 117.093H87.2213C87.2276 117.577 87.2385 118.056 87.2502 118.534Z" fill="black"/>
</g>
<g opacity="0.199997">
<path d="M87.9292 131.795H49.6385C49.6792 131.31 49.7199 130.832 49.7488 130.347H87.8189C87.8541 130.832 87.8885 131.31 87.9292 131.795Z" fill="black"/>
</g>
<g opacity="0.199997">
<path d="M89.4264 145.049H48.147C48.2228 144.571 48.2869 144.092 48.3503 143.608H89.2231C89.2872 144.086 89.3568 144.571 89.4264 145.049Z" fill="black"/>
</g>
<g opacity="0.199997">
<path d="M91.7356 158.31H45.8376C45.9362 157.825 46.0292 157.347 46.1278 156.862H91.4455C91.5385 157.347 91.637 157.825 91.7356 158.31Z" fill="black"/>
</g>
<g opacity="0.199997">
<path d="M94.9214 171.565H42.658C42.7909 171.086 42.9246 170.602 43.0466 170.123H94.5272C94.6547 170.607 94.7822 171.086 94.9214 171.565Z" fill="black"/>
</g>
<g opacity="0.199997">
<path d="M98.9887 184.825H38.5909C38.7528 184.346 38.9155 183.869 39.0719 183.383H98.5015C98.6642 183.869 98.8261 184.346 98.9887 184.825Z" fill="black"/>
</g>
<path d="M101.478 185.297H73.6904V170.107H101.478V185.297Z" fill="#0F7AE1"/>
<path d="M132.375 185.297H104.588V170.107H132.375V185.297Z" fill="#0F7AE1"/>
<path d="M70.5803 185.297H42.7927V170.107H70.5803V185.297Z" fill="#0F7AE1"/>
<g opacity="0.199997">
<path d="M101.478 185.297H73.6906V170.107H101.478V185.297Z" fill="black"/>
<path d="M132.375 185.297H104.588V170.107H132.375V185.297Z" fill="black"/>
<path d="M70.5803 185.297H42.7927V170.107H70.5803V185.297Z" fill="black"/>
</g>
<path d="M104.624 185.297V170.108L73.7121 185.292V170.108L42.7996 185.292V170.108L11.8785 185.297V258.631H167.272V185.297H104.624Z" fill="#0F7AE1"/>
<g opacity="0.199997">
<path d="M167.272 185.297H122.106V258.631H167.272V185.297Z" fill="black"/>
</g>
<path d="M31.0215 246.615H36.3907V203.415C36.3907 200.961 38.2738 198.97 40.5963 198.97H44.0379C45.5205 198.97 46.7225 197.699 46.7225 196.133C46.7225 194.565 45.5205 193.294 44.0379 193.294H40.5963C35.3076 193.294 31.0215 197.826 31.0215 203.415V246.615Z" fill="#0F7AE1"/>
<g opacity="0.300003">
<path d="M31.0215 246.615H36.3907V203.415C36.3907 200.961 38.2738 198.97 40.5963 198.97H44.0379C45.5205 198.97 46.7225 197.699 46.7225 196.133C46.7225 194.565 45.5205 193.294 44.0379 193.294H40.5963C35.3076 193.294 31.0215 197.826 31.0215 203.415V246.615Z" fill="white"/>
</g>
<path d="M15.3813 246.615H20.7506V203.415C20.7506 200.961 22.6336 198.97 24.9562 198.97H28.3977C29.8804 198.97 31.0823 197.699 31.0823 196.133C31.0823 194.565 29.8804 193.294 28.3977 193.294H24.9562C19.6675 193.294 15.3813 197.826 15.3813 203.415V246.615Z" fill="#0F7AE1"/>
<g opacity="0.300003">
<path d="M15.3813 246.615H20.7506V203.415C20.7506 200.961 22.6336 198.97 24.9562 198.97H28.3977C29.8804 198.97 31.0823 197.699 31.0823 196.133C31.0823 194.565 29.8804 193.294 28.3977 193.294H24.9562C19.6675 193.294 15.3813 197.826 15.3813 203.415V246.615Z" fill="white"/>
</g>
<path d="M42.7904 236.329V258.63H0.523315V247.479L9.12532 236.329H42.7904Z" fill="#0F7AE1"/>
<g opacity="0.399994">
<path d="M42.7904 236.329V258.63H0.523315V247.479L9.12532 236.329H42.7904Z" fill="white"/>
</g>
<g opacity="0.199997">
<path d="M42.7903 236.329V258.63H31.8032V247.479L40.4052 236.329H42.7903Z" fill="black"/>
</g>
<g opacity="0.399994">
<path d="M0.523438 247.48H31.8034L40.4054 236.33H9.12544L0.523438 247.48Z" fill="white"/>
</g>
<g opacity="0.199997">
<path d="M59.495 201.46L54.595 205.929V258.631H75.2538V205.929V201.46H59.495Z" fill="white"/>
</g>
<g opacity="0.199997">
<path d="M70.354 205.929V258.631H75.254V205.929V201.461L70.354 205.929Z" fill="black"/>
</g>
<g opacity="0.399994">
<path d="M54.5947 205.929H70.3536L75.2536 201.461H59.4947L54.5947 205.929Z" fill="white"/>
</g>
<g opacity="0.199997">
<path d="M90.7749 201.46L85.8749 205.929V258.631H106.534V205.929V201.46H90.7749Z" fill="white"/>
</g>
<g opacity="0.199997">
<path d="M101.634 205.929V258.631H106.534V205.929V201.461L101.634 205.929Z" fill="black"/>
</g>
<g opacity="0.399994">
<path d="M85.8749 205.929H101.634L106.534 201.461H90.7749L85.8749 205.929Z" fill="white"/>
</g>
<path d="M71.8444 23.1644C71.6896 20.0184 78.1864 18.7107 79.4235 21.326C80.6615 23.9423 78.1864 25.9046 78.1864 25.9046C78.1864 25.9046 81.8986 27.4752 78.805 29.8781C75.7114 32.281 74.4743 29.8781 74.4743 29.8781C74.4743 29.8781 70.9162 33.2622 69.9879 31.9545C69.0605 30.646 70.9162 29.6276 70.9162 29.6276C70.9162 29.6276 67.9258 29.8293 68.3387 26.7221C68.7508 23.6157 71.8444 23.1644 71.8444 23.1644Z" fill="#0F7AE1"/>
<path d="M62.44 37.8207C62.3626 36.2476 65.6111 35.5938 66.2296 36.9015C66.8482 38.21 65.6111 39.1912 65.6111 39.1912C65.6111 39.1912 67.4667 39.9765 65.9199 41.1775C64.3732 42.3794 63.7546 41.1775 63.7546 41.1775C63.7546 41.1775 61.9755 42.8696 61.5118 42.2157C61.0481 41.5619 61.9755 41.0527 61.9755 41.0527C61.9755 41.0527 60.4804 41.1527 60.6868 39.5995C60.8933 38.0463 62.44 37.8207 62.44 37.8207Z" fill="#0F7AE1"/>
<path d="M61.1807 5.05991C60.9586 0.54417 70.2847 -1.33388 72.0606 2.42139C73.8373 6.17748 70.2847 8.99372 70.2847 8.99372C70.2847 8.99372 75.6133 11.2479 71.1723 14.6973C66.7321 18.1467 64.9554 14.6973 64.9554 14.6973C64.9554 14.6973 59.8481 19.5552 58.5164 17.6772C57.1839 15.8 59.8481 14.3377 59.8481 14.3377C59.8481 14.3377 55.5557 14.6262 56.1477 10.1667C56.7397 5.70714 61.1807 5.05991 61.1807 5.05991Z" fill="#0F7AE1"/>
<g opacity="0.800003">
<path d="M71.8444 23.1644C71.6896 20.0184 78.1864 18.7107 79.4235 21.326C80.6615 23.9423 78.1864 25.9046 78.1864 25.9046C78.1864 25.9046 81.8986 27.4752 78.805 29.8781C75.7114 32.281 74.4743 29.8781 74.4743 29.8781C74.4743 29.8781 70.9162 33.2622 69.9879 31.9545C69.0605 30.646 70.9162 29.6276 70.9162 29.6276C70.9162 29.6276 67.9258 29.8293 68.3387 26.7221C68.7508 23.6157 71.8444 23.1644 71.8444 23.1644Z" fill="white"/>
</g>
<g opacity="0.800003">
<path d="M62.44 37.8207C62.3626 36.2476 65.6111 35.5938 66.2296 36.9015C66.8482 38.21 65.6111 39.1912 65.6111 39.1912C65.6111 39.1912 67.4667 39.9765 65.9199 41.1775C64.3732 42.3794 63.7546 41.1775 63.7546 41.1775C63.7546 41.1775 61.9755 42.8696 61.5118 42.2157C61.0481 41.5619 61.9755 41.0527 61.9755 41.0527C61.9755 41.0527 60.4804 41.1527 60.6868 39.5995C60.8933 38.0463 62.44 37.8207 62.44 37.8207Z" fill="white"/>
</g>
<g opacity="0.800003">
<path d="M61.1807 5.05991C60.9586 0.54417 70.2847 -1.33388 72.0606 2.42139C73.8373 6.17748 70.2847 8.99372 70.2847 8.99372C70.2847 8.99372 75.6133 11.2479 71.1723 14.6973C66.7321 18.1467 64.9554 14.6973 64.9554 14.6973C64.9554 14.6973 59.8481 19.5552 58.5164 17.6772C57.1839 15.8 59.8481 14.3377 59.8481 14.3377C59.8481 14.3377 55.5557 14.6262 56.1477 10.1667C56.7397 5.70714 61.1807 5.05991 61.1807 5.05991Z" fill="white"/>
</g>
<path d="M134.404 23.1644C134.249 20.0184 140.746 18.7107 141.983 21.326C143.221 23.9423 140.746 25.9046 140.746 25.9046C140.746 25.9046 144.458 27.4752 141.365 29.8781C138.271 32.281 137.034 29.8781 137.034 29.8781C137.034 29.8781 133.476 33.2622 132.548 31.9545C131.62 30.646 133.476 29.6276 133.476 29.6276C133.476 29.6276 130.486 29.8293 130.899 26.7221C131.311 23.6157 134.404 23.1644 134.404 23.1644Z" fill="#0F7AE1"/>
<path d="M125 37.8207C124.923 36.2476 128.171 35.5938 128.79 36.9015C129.408 38.21 128.171 39.1912 128.171 39.1912C128.171 39.1912 130.027 39.9765 128.48 41.1775C126.933 42.3794 126.315 41.1775 126.315 41.1775C126.315 41.1775 124.535 42.8696 124.072 42.2157C123.608 41.5619 124.535 41.0527 124.535 41.0527C124.535 41.0527 123.04 41.1527 123.247 39.5995C123.453 38.0463 125 37.8207 125 37.8207Z" fill="#0F7AE1"/>
<path d="M123.741 5.05991C123.519 0.54417 132.845 -1.33388 134.621 2.42139C136.397 6.17748 132.845 8.99372 132.845 8.99372C132.845 8.99372 138.173 11.2479 133.732 14.6973C129.292 18.1467 127.515 14.6973 127.515 14.6973C127.515 14.6973 122.408 19.5552 121.076 17.6772C119.744 15.8 122.408 14.3377 122.408 14.3377C122.408 14.3377 118.116 14.6262 118.708 10.1667C119.3 5.70714 123.741 5.05991 123.741 5.05991Z" fill="#0F7AE1"/>
<g opacity="0.800003">
<path d="M134.404 23.1644C134.249 20.0184 140.746 18.7107 141.983 21.326C143.221 23.9423 140.746 25.9046 140.746 25.9046C140.746 25.9046 144.458 27.4752 141.365 29.8781C138.271 32.281 137.034 29.8781 137.034 29.8781C137.034 29.8781 133.476 33.2622 132.548 31.9545C131.62 30.646 133.476 29.6276 133.476 29.6276C133.476 29.6276 130.486 29.8293 130.899 26.7221C131.311 23.6157 134.404 23.1644 134.404 23.1644Z" fill="white"/>
</g>
<g opacity="0.800003">
<path d="M125 37.8207C124.923 36.2476 128.171 35.5938 128.79 36.9015C129.408 38.21 128.171 39.1912 128.171 39.1912C128.171 39.1912 130.027 39.9765 128.48 41.1775C126.933 42.3794 126.315 41.1775 126.315 41.1775C126.315 41.1775 124.535 42.8696 124.072 42.2157C123.608 41.5619 124.535 41.0527 124.535 41.0527C124.535 41.0527 123.04 41.1527 123.247 39.5995C123.453 38.0463 125 37.8207 125 37.8207Z" fill="white"/>
</g>
<g opacity="0.800003">
<path d="M123.741 5.05991C123.519 0.54417 132.845 -1.33388 134.621 2.42139C136.397 6.17748 132.845 8.99372 132.845 8.99372C132.845 8.99372 138.173 11.2479 133.732 14.6973C129.292 18.1467 127.515 14.6973 127.515 14.6973C127.515 14.6973 122.408 19.5552 121.076 17.6772C119.744 15.8 122.408 14.3377 122.408 14.3377C122.408 14.3377 118.116 14.6262 118.708 10.1667C119.3 5.70714 123.741 5.05991 123.741 5.05991Z" fill="white"/>
</g>
<path d="M94.3182 207.821V247.978C94.3182 252.548 90.8071 256.26 86.4748 256.26H59.2534C54.9289 256.26 51.4177 252.548 51.4177 247.978V207.821C51.4177 203.25 54.9289 199.538 59.2534 199.538H86.4748C90.8071 199.538 94.3182 203.25 94.3182 207.821Z" fill="#1A2E35"/>
<g opacity="0.100006">
<path d="M79.4602 207.821V247.978C79.4602 252.548 75.9491 256.26 71.6168 256.26H59.2534C54.9289 256.26 51.4177 252.548 51.4177 247.978V207.821C51.4177 203.25 54.9289 199.538 59.2534 199.538H71.6168C75.9491 199.538 79.4602 203.25 79.4602 207.821Z" fill="white"/>
</g>
<path d="M53.0311 256.258H92.7051" stroke="#1A2E35" stroke-width="2.66667" stroke-miterlimit="10" stroke-linecap="round" stroke-linejoin="round"/>
<path d="M54.7189 265.244V256.26L63.7932 265.244V256.26L72.8675 265.244V256.26L81.9426 265.244V256.26L91.017 265.244V256.26" stroke="#1A2E35" stroke-width="2.66667" stroke-miterlimit="10" stroke-linecap="round" stroke-linejoin="round"/>
<path d="M61.2153 199.538H84.5205" stroke="#1A2E35" stroke-width="2.66667" stroke-miterlimit="10" stroke-linecap="round" stroke-linejoin="round"/>
<path d="M64.5426 195.525H81.1929" stroke="#1A2E35" stroke-width="2.66667" stroke-miterlimit="10" stroke-linecap="round" stroke-linejoin="round"/>
<path d="M72.868 195.525V199.538" stroke="#1A2E35" stroke-width="2.66667" stroke-miterlimit="10" stroke-linecap="round" stroke-linejoin="round"/>
<path d="M66.7238 195.525L68.0641 199.538" stroke="#1A2E35" stroke-width="2.66667" stroke-miterlimit="10" stroke-linecap="round" stroke-linejoin="round"/>
<path d="M79.0123 195.525L77.672 199.538" stroke="#1A2E35" stroke-width="2.66667" stroke-miterlimit="10" stroke-linecap="round" stroke-linejoin="round"/>
<path d="M149.058 207.821V247.978C149.058 252.548 145.547 256.26 141.215 256.26H113.993C109.669 256.26 106.158 252.548 106.158 247.978V207.821C106.158 203.25 109.669 199.538 113.993 199.538H141.215C145.547 199.538 149.058 203.25 149.058 207.821Z" fill="#1A2E35"/>
<g opacity="0.100006">
<path d="M134.2 207.821V247.978C134.2 252.548 130.689 256.26 126.357 256.26H113.993C109.669 256.26 106.158 252.548 106.158 247.978V207.821C106.158 203.25 109.669 199.538 113.993 199.538H126.357C130.689 199.538 134.2 203.25 134.2 207.821Z" fill="white"/>
</g>
<path d="M107.771 256.258H147.445" stroke="#1A2E35" stroke-width="2.66667" stroke-miterlimit="10" stroke-linecap="round" stroke-linejoin="round"/>
<path d="M109.459 265.244V256.26L118.533 265.244V256.26L127.608 265.244V256.26L136.683 265.244V256.26L145.757 265.244V256.26" stroke="#1A2E35" stroke-width="2.66667" stroke-miterlimit="10" stroke-linecap="round" stroke-linejoin="round"/>
<path d="M115.955 199.538H139.26" stroke="#1A2E35" stroke-width="2.66667" stroke-miterlimit="10" stroke-linecap="round" stroke-linejoin="round"/>
<path d="M119.283 195.525H135.933" stroke="#1A2E35" stroke-width="2.66667" stroke-miterlimit="10" stroke-linecap="round" stroke-linejoin="round"/>
<path d="M127.608 195.525V199.538" stroke="#1A2E35" stroke-width="2.66667" stroke-miterlimit="10" stroke-linecap="round" stroke-linejoin="round"/>
<path d="M121.464 195.525L122.804 199.538" stroke="#1A2E35" stroke-width="2.66667" stroke-miterlimit="10" stroke-linecap="round" stroke-linejoin="round"/>
<path d="M133.752 195.525L132.412 199.538" stroke="#1A2E35" stroke-width="2.66667" stroke-miterlimit="10" stroke-linecap="round" stroke-linejoin="round"/>
<path d="M258.947 169.318H175.316V129.095H258.947V169.318Z" fill="#0F7AE1"/>
<g opacity="0.199997">
<path d="M258.947 169.318H175.316V129.095H258.947V169.318Z" fill="black"/>
</g>
<g opacity="0.199997">
<path d="M258.947 169.318H220.895V129.095H258.947V169.318Z" fill="black"/>
</g>
<g opacity="0.199997">
<path d="M236.982 149.207H175.316V136.458H236.982V149.207Z" fill="white"/>
</g>
<g opacity="0.199997">
<path d="M244.149 167.415H254.822V136.458H244.149V167.415Z" fill="black"/>
</g>
<g opacity="0.199997">
<path d="M244.149 167.415H253.74V137.548H244.149V167.415Z" fill="black"/>
</g>
<g opacity="0.199997">
<path d="M198.046 137.548H192.713V149.207H198.046V137.548Z" fill="white"/>
</g>
<g opacity="0.199997">
<path d="M203.92 137.548H198.587V149.207H203.92V137.548Z" fill="white"/>
</g>
<g opacity="0.199997">
<path d="M192.171 137.548H186.837V149.207H192.171V137.548Z" fill="white"/>
</g>
<g opacity="0.199997">
<path d="M180.962 149.207H186.296V137.548H180.962V149.207Z" fill="white"/>
</g>
<g opacity="0.199997">
<path d="M209.795 137.548H204.462V149.207H209.795V137.548Z" fill="white"/>
</g>
<g opacity="0.199997">
<path d="M231.208 149.207H235.952V137.548H231.208V149.207Z" fill="white"/>
</g>
<g opacity="0.199997">
<path d="M180.421 137.548H175.316V149.207H180.421V137.548Z" fill="white"/>
</g>
<g opacity="0.199997">
<path d="M215.671 137.548H210.337V149.207H215.671V137.548Z" fill="white"/>
</g>
<g opacity="0.199997">
<path d="M225.407 137.548H216.213V149.207H225.407V137.548Z" fill="white"/>
</g>
<g opacity="0.199997">
<path d="M230.666 137.548H225.948V149.207H230.666V137.548Z" fill="white"/>
</g>
<path d="M263.329 130.954H172.337V125.558H263.329V130.954Z" fill="#0F7AE1"/>
<g opacity="0.199997">
<path d="M263.329 130.954H223.382V125.558H263.329V130.954Z" fill="black"/>
</g>
<path d="M261.009 166.28V155.534C261.009 153.848 262.302 152.482 263.897 152.482H297.773C299.367 152.482 300.66 153.848 300.66 155.534V165.192" stroke="#1A2E35" stroke-width="2.66667" stroke-miterlimit="10"/>
<path d="M265.415 152.482V166.279" stroke="#1A2E35" stroke-width="2.66667" stroke-miterlimit="10"/>
<path d="M269.821 152.482V166.279" stroke="#1A2E35" stroke-width="2.66667" stroke-miterlimit="10"/>
<path d="M274.226 152.482V166.279" stroke="#1A2E35" stroke-width="2.66667" stroke-miterlimit="10"/>
<path d="M278.632 152.482V166.279" stroke="#1A2E35" stroke-width="2.66667" stroke-miterlimit="10"/>
<path d="M283.038 152.482V166.279" stroke="#1A2E35" stroke-width="2.66667" stroke-miterlimit="10"/>
<path d="M287.443 152.482V166.279" stroke="#1A2E35" stroke-width="2.66667" stroke-miterlimit="10"/>
<path d="M291.849 152.482V166.279" stroke="#1A2E35" stroke-width="2.66667" stroke-miterlimit="10"/>
<path d="M296.255 152.482V166.279" stroke="#1A2E35" stroke-width="2.66667" stroke-miterlimit="10"/>
<path d="M300.66 165.776H163.238V265.244H300.66V165.776Z" fill="#0F7AE1"/>
<path d="M183.564 233.282H172.337V210.583H183.564V233.282Z" fill="#0F7AE1"/>
<g opacity="0.199997">
<path d="M183.564 233.282H172.337V210.583H183.564V233.282Z" fill="white"/>
</g>
<path d="M200.579 233.282H189.352V210.583H200.579V233.282Z" fill="#0F7AE1"/>
<g opacity="0.199997">
<path d="M200.579 233.282H189.352V210.583H200.579V233.282Z" fill="white"/>
</g>
<path d="M217.594 233.282H206.367V210.583H217.594V233.282Z" fill="#0F7AE1"/>
<g opacity="0.199997">
<path d="M217.594 233.282H206.367V210.583H217.594V233.282Z" fill="white"/>
</g>
<path d="M234.609 233.282H223.382V210.583H234.609V233.282Z" fill="#0F7AE1"/>
<g opacity="0.199997">
<path d="M234.609 233.282H223.382V210.583H234.609V233.282Z" fill="white"/>
</g>
<path d="M251.624 233.282H240.397V210.583H251.624V233.282Z" fill="#0F7AE1"/>
<g opacity="0.199997">
<path d="M251.624 233.282H240.397V210.583H251.624V233.282Z" fill="white"/>
</g>
<g opacity="0.399994">
<path d="M173.46 217.016H183.564V211.798H173.46V217.016Z" fill="white"/>
<path d="M173.46 233.282H183.564V218.486H173.46V233.282Z" fill="white"/>
<path d="M190.475 217.016H200.58V211.798H190.475V217.016Z" fill="white"/>
<path d="M190.475 233.282H200.58V218.486H190.475V233.282Z" fill="white"/>
<path d="M207.49 217.016H217.594V211.798H207.49V217.016Z" fill="white"/>
<path d="M207.49 233.282H217.594V218.486H207.49V233.282Z" fill="white"/>
<path d="M224.505 217.016H234.609V211.798H224.505V217.016Z" fill="white"/>
<path d="M224.505 233.282H234.609V218.486H224.505V233.282Z" fill="white"/>
<path d="M241.52 217.016H251.624V211.798H241.52V217.016Z" fill="white"/>
<path d="M241.52 233.282H251.624V218.486H241.52V233.282Z" fill="white"/>
</g>
<g opacity="0.199997">
<path d="M300.66 165.776H261.009V265.244H300.66V165.776Z" fill="black"/>
</g>
<path d="M292.032 265.244H284.212V202.328C284.212 198.753 281.47 195.854 278.087 195.854H273.074C270.915 195.854 269.164 194.004 269.164 191.721C269.164 189.439 270.915 187.588 273.074 187.588H278.087C285.788 187.588 292.032 194.188 292.032 202.328V265.244Z" fill="#0F7AE1"/>
<g opacity="0.199997">
<path d="M292.032 265.244H284.212V202.328C284.212 198.753 281.47 195.854 278.087 195.854H273.074C270.915 195.854 269.164 194.004 269.164 191.721C269.164 189.439 270.915 187.588 273.074 187.588H278.087C285.788 187.588 292.032 194.188 292.032 202.328V265.244Z" fill="white"/>
</g>
<path d="M313.146 265.244H305.326V202.328C305.326 198.753 302.584 195.854 299.201 195.854H294.188C292.029 195.854 290.278 194.004 290.278 191.721C290.278 189.439 292.029 187.588 294.188 187.588H299.201C306.902 187.588 313.146 194.188 313.146 202.328V265.244Z" fill="#0F7AE1"/>
<g opacity="0.199997">
<path d="M313.146 265.244H305.326V202.328C305.326 198.753 302.584 195.854 299.201 195.854H294.188C292.029 195.854 290.278 194.004 290.278 191.721C290.278 189.439 292.029 187.588 294.188 187.588H299.201C306.902 187.588 313.146 194.188 313.146 202.328V265.244Z" fill="white"/>
</g>
<path d="M316.463 249.167H278.912V265.244H322.719V255.625L316.463 249.167Z" fill="#1A2E35"/>
<g opacity="0.199997">
<path d="M322.715 255.623V265.245H300.037V255.623L293.781 249.167H316.459L322.715 255.623Z" fill="black"/>
</g>
<g opacity="0.199997">
<path d="M293.781 249.167L300.037 255.623H322.715L316.459 249.167H293.781Z" fill="white"/>
</g>
<path d="M307.698 168.977H160.607V163.582H307.698V168.977Z" fill="#0F7AE1"/>
<g opacity="0.100006">
<path d="M307.698 168.977H160.607V163.582H307.698V168.977Z" fill="white"/>
</g>
<g opacity="0.199997">
<path d="M307.698 168.977H263.33V163.582H307.698V168.977Z" fill="black"/>
</g>
<path d="M183.564 200.218H172.337V177.519H183.564V200.218Z" fill="#0F7AE1"/>
<g opacity="0.199997">
<path d="M183.564 200.218H172.337V177.519H183.564V200.218Z" fill="white"/>
</g>
<path d="M200.579 200.218H189.352V177.519H200.579V200.218Z" fill="#0F7AE1"/>
<g opacity="0.199997">
<path d="M200.579 200.218H189.352V177.519H200.579V200.218Z" fill="white"/>
</g>
<path d="M217.594 200.218H206.367V177.519H217.594V200.218Z" fill="#0F7AE1"/>
<g opacity="0.199997">
<path d="M217.594 200.218H206.367V177.519H217.594V200.218Z" fill="white"/>
</g>
<path d="M234.609 200.218H223.382V177.519H234.609V200.218Z" fill="#0F7AE1"/>
<g opacity="0.199997">
<path d="M234.609 200.218H223.382V177.519H234.609V200.218Z" fill="white"/>
</g>
<path d="M251.624 200.218H240.397V177.519H251.624V200.218Z" fill="#0F7AE1"/>
<g opacity="0.199997">
<path d="M251.624 200.218H240.397V177.519H251.624V200.218Z" fill="white"/>
</g>
<g opacity="0.399994">
<path d="M173.46 183.952H183.564V178.734H173.46V183.952Z" fill="white"/>
<path d="M173.46 200.218H183.564V185.422H173.46V200.218Z" fill="white"/>
<path d="M190.475 183.952H200.58V178.734H190.475V183.952Z" fill="white"/>
<path d="M190.475 200.218H200.58V185.422H190.475V200.218Z" fill="white"/>
<path d="M207.49 183.952H217.594V178.734H207.49V183.952Z" fill="white"/>
<path d="M207.49 200.218H217.594V185.422H207.49V200.218Z" fill="white"/>
<path d="M224.505 183.952H234.609V178.734H224.505V183.952Z" fill="white"/>
<path d="M224.505 200.218H234.609V185.422H224.505V200.218Z" fill="white"/>
<path d="M241.52 183.952H251.624V178.734H241.52V183.952Z" fill="white"/>
<path d="M241.52 200.218H251.624V185.422H241.52V200.218Z" fill="white"/>
</g>
<path d="M154.586 266.243H179.9V245.852H160.936L154.586 256.598V266.243Z" fill="#1A2E35"/>
<g opacity="0.199997">
<path d="M154.585 266.243H179.9V245.852H160.935L154.585 256.598V266.243Z" fill="white"/>
</g>
<g opacity="0.199997">
<path d="M179.899 266.243H170.363V245.852H179.899V266.243Z" fill="black"/>
</g>
<path d="M183.496 268.655C183.496 266.307 181.696 264.404 179.475 264.404C177.254 264.404 175.454 266.307 175.454 268.655C175.454 271.003 177.254 272.905 179.475 272.905C181.696 272.905 183.496 271.003 183.496 268.655Z" fill="#1A2E35"/>
<g opacity="0.199997">
<path d="M183.496 268.655C183.496 266.307 181.696 264.404 179.475 264.404C177.254 264.404 175.454 266.307 175.454 268.655C175.454 271.003 177.254 272.905 179.475 272.905C181.696 272.905 183.496 271.003 183.496 268.655Z" fill="black"/>
</g>
<path d="M182.73 268.655C182.73 266.307 180.93 264.404 178.709 264.404C176.488 264.404 174.688 266.307 174.688 268.655C174.688 271.003 176.488 272.905 178.709 272.905C180.93 272.905 182.73 271.003 182.73 268.655Z" fill="#1A2E35"/>
<g opacity="0.199997">
<path d="M181.178 268.655C181.178 267.214 180.072 266.046 178.709 266.046C177.346 266.046 176.241 267.214 176.241 268.655C176.241 270.096 177.346 271.264 178.709 271.264C180.072 271.264 181.178 270.096 181.178 268.655Z" fill="black"/>
</g>
<path d="M214.129 268.655C214.129 266.307 212.329 264.404 210.108 264.404C207.888 264.404 206.087 266.307 206.087 268.655C206.087 271.003 207.888 272.905 210.108 272.905C212.329 272.905 214.129 271.003 214.129 268.655Z" fill="#1A2E35"/>
<g opacity="0.199997">
<path d="M214.129 268.655C214.129 266.307 212.329 264.404 210.108 264.404C207.888 264.404 206.087 266.307 206.087 268.655C206.087 271.003 207.888 272.905 210.108 272.905C212.329 272.905 214.129 271.003 214.129 268.655Z" fill="black"/>
</g>
<path d="M213.363 268.655C213.363 266.307 211.563 264.404 209.342 264.404C207.121 264.404 205.321 266.307 205.321 268.655C205.321 271.003 207.121 272.905 209.342 272.905C211.563 272.905 213.363 271.003 213.363 268.655Z" fill="#1A2E35"/>
<g opacity="0.199997">
<path d="M211.811 268.655C211.811 267.214 210.706 266.046 209.342 266.046C207.979 266.046 206.874 267.214 206.874 268.655C206.874 270.096 207.979 271.264 209.342 271.264C210.706 271.264 211.811 270.096 211.811 268.655Z" fill="black"/>
</g>
<path d="M221.256 263.919H171.334V240.332H221.256V263.919Z" fill="#1A2E35"/>
<g opacity="0.600006">
<path d="M221.256 263.919H171.334V240.332H221.256V263.919Z" fill="white"/>
</g>
<g opacity="0.199997">
<path d="M221.256 263.919H202.579V240.332H221.256V263.919Z" fill="black"/>
</g>
<g opacity="0.199997">
<path d="M220.214 262.733H203.714V241.368H220.214V262.733Z" fill="black"/>
</g>
<path d="M155.712 256.048L161.332 246.6H168.366V252.377H163.478L161.383 256.048H155.712Z" fill="#1A2E35"/>
<path d="M172.623 263.921V263.919H160.137L158.837 266.003H154.32V268.565H220.213V263.921H172.623Z" fill="#1A2E35"/>
<g opacity="0.199997">
<path d="M220.214 268.565H201.755V263.92H220.214V268.565Z" fill="black"/>
</g>
<path d="M168.18 268.655C168.18 266.307 166.379 264.404 164.159 264.404C161.938 264.404 160.137 266.307 160.137 268.655C160.137 271.003 161.938 272.905 164.159 272.905C166.379 272.905 168.18 271.003 168.18 268.655Z" fill="#1A2E35"/>
<g opacity="0.199997">
<path d="M168.18 268.655C168.18 266.307 166.379 264.404 164.159 264.404C161.938 264.404 160.137 266.307 160.137 268.655C160.137 271.003 161.938 272.905 164.159 272.905C166.379 272.905 168.18 271.003 168.18 268.655Z" fill="black"/>
</g>
<path d="M167.414 268.655C167.414 266.307 165.614 264.404 163.393 264.404C161.172 264.404 159.372 266.307 159.372 268.655C159.372 271.003 161.172 272.905 163.393 272.905C165.614 272.905 167.414 271.003 167.414 268.655Z" fill="#1A2E35"/>
<g opacity="0.199997">
<path d="M165.861 268.655C165.861 267.214 164.755 266.046 163.392 266.046C162.029 266.046 160.924 267.214 160.924 268.655C160.924 270.096 162.029 271.264 163.392 271.264C164.755 271.264 165.861 270.096 165.861 268.655Z" fill="white"/>
</g>
<path d="M198.813 268.655C198.813 266.307 197.013 264.404 194.792 264.404C192.571 264.404 190.771 266.307 190.771 268.655C190.771 271.003 192.571 272.905 194.792 272.905C197.013 272.905 198.813 271.003 198.813 268.655Z" fill="#1A2E35"/>
<g opacity="0.199997">
<path d="M198.813 268.655C198.813 266.307 197.013 264.404 194.792 264.404C192.571 264.404 190.771 266.307 190.771 268.655C190.771 271.003 192.571 272.905 194.792 272.905C197.013 272.905 198.813 271.003 198.813 268.655Z" fill="black"/>
</g>
<path d="M198.047 268.655C198.047 266.307 196.247 264.404 194.026 264.404C191.805 264.404 190.005 266.307 190.005 268.655C190.005 271.003 191.805 272.905 194.026 272.905C196.247 272.905 198.047 271.003 198.047 268.655Z" fill="#1A2E35"/>
<g opacity="0.199997">
<path d="M196.494 268.655C196.494 267.214 195.389 266.046 194.025 266.046C192.662 266.046 191.557 267.214 191.557 268.655C191.557 270.096 192.662 271.264 194.025 271.264C195.389 271.264 196.494 270.096 196.494 268.655Z" fill="white"/>
</g>
</svg>
