<svg width="138" height="138" viewBox="0 0 138 138" fill="none" xmlns="http://www.w3.org/2000/svg">
<g clip-path="url(#clip0_183_665)">
<path fill-rule="evenodd" clip-rule="evenodd" d="M0 69C0 50.7001 7.26962 33.1496 20.2096 20.2096C33.1496 7.26962 50.7001 0 69 0C87.2999 0 104.85 7.26962 117.79 20.2096C130.73 33.1496 138 50.7001 138 69C138 87.2999 130.73 104.85 117.79 117.79C104.85 130.73 87.2999 138 69 138C50.7001 138 33.1496 130.73 20.2096 117.79C7.26962 104.85 0 87.2999 0 69H0ZM65.0624 98.532L104.788 48.8704L97.612 43.1296L63.7376 85.4588L39.744 65.4672L33.856 72.5328L65.0624 98.5412V98.532Z" fill="#4ECB71"/>
</g>
<defs>
<clipPath id="clip0_183_665">
<rect width="138" height="138" fill="white"/>
</clipPath>
</defs>
</svg>
