<svg width="306" height="299" viewBox="0 0 306 299" fill="none" xmlns="http://www.w3.org/2000/svg">
<path d="M298.881 166.739C290.17 192.792 271.404 221.346 243.788 230.641C202.061 244.69 198.332 278.461 122.6 278.23C110.792 278.195 99.8312 276.976 89.7191 274.746C84.2831 273.549 79.0905 272.051 74.149 270.286C29.2864 254.316 4.72224 216.338 1.21704 175.753C-3.40233 122.376 33.4087 95.447 57.3964 79.5861C81.3841 63.7253 108.735 4.76834 183.187 4.41797C194.538 4.36893 205.91 5.46713 216.984 7.98074C242.264 13.7087 268.276 27.5178 283.902 48.56C285.075 50.1405 286.199 51.761 287.278 53.4153C308.353 85.774 310.758 131.221 298.881 166.739Z" fill="#0F7AE1"/>
<g opacity="0.699997">
<path d="M298.881 166.739C290.17 192.792 271.404 221.346 243.788 230.641C202.061 244.69 198.332 278.461 122.6 278.23C110.792 278.195 99.8312 276.976 89.7191 274.746C84.2831 273.549 79.0905 272.051 74.149 270.286C29.2864 254.316 4.72224 216.338 1.21704 175.753C-3.40233 122.376 33.4087 95.447 57.3964 79.5861C81.3841 63.7253 108.735 4.76834 183.187 4.41797C194.538 4.36893 205.91 5.46713 216.984 7.98074C242.264 13.7087 268.276 27.5178 283.902 48.56C285.075 50.1405 286.199 51.761 287.278 53.4153C308.353 85.774 310.758 131.221 298.881 166.739Z" fill="white"/>
</g>
<path d="M10.1316 8.92913L5.42383 14.3246H89.6473V8.92913" stroke="#1A2E35" stroke-width="1.33333" stroke-miterlimit="10" stroke-linecap="round" stroke-linejoin="round"/>
<path d="M10.1316 16.7226L5.42383 22.118H89.6473V16.7226" stroke="#1A2E35" stroke-width="1.33333" stroke-miterlimit="10" stroke-linecap="round" stroke-linejoin="round"/>
<path d="M10.1316 24.5158L5.42383 29.9106H89.6473V24.5158" stroke="#1A2E35" stroke-width="1.33333" stroke-miterlimit="10" stroke-linecap="round" stroke-linejoin="round"/>
<path d="M10.1316 32.309L5.42383 37.7045H89.6473V32.309" stroke="#1A2E35" stroke-width="1.33333" stroke-miterlimit="10" stroke-linecap="round" stroke-linejoin="round"/>
<path d="M10.1316 40.1021L5.42383 45.4976H89.6473V40.1021" stroke="#1A2E35" stroke-width="1.33333" stroke-miterlimit="10" stroke-linecap="round" stroke-linejoin="round"/>
<path d="M10.1316 47.8954L5.42383 53.2909H89.6473V47.8954" stroke="#1A2E35" stroke-width="1.33333" stroke-miterlimit="10" stroke-linecap="round" stroke-linejoin="round"/>
<path d="M10.1316 55.6885L5.42383 61.084H89.6473V55.6885" stroke="#1A2E35" stroke-width="1.33333" stroke-miterlimit="10" stroke-linecap="round" stroke-linejoin="round"/>
<path d="M10.1316 63.482L5.42383 68.8774H89.6473V63.482" stroke="#1A2E35" stroke-width="1.33333" stroke-miterlimit="10" stroke-linecap="round" stroke-linejoin="round"/>
<path d="M10.1316 71.2753L5.42383 76.6708H89.6473V71.2753" stroke="#1A2E35" stroke-width="1.33333" stroke-miterlimit="10" stroke-linecap="round" stroke-linejoin="round"/>
<path d="M10.1316 79.0684L5.42383 84.4639H89.6473V79.0684" stroke="#1A2E35" stroke-width="1.33333" stroke-miterlimit="10" stroke-linecap="round" stroke-linejoin="round"/>
<path d="M10.1316 86.8617L5.42383 92.2572H89.6473V86.8617" stroke="#1A2E35" stroke-width="1.33333" stroke-miterlimit="10" stroke-linecap="round" stroke-linejoin="round"/>
<path d="M10.1316 94.6548L5.42383 100.05H89.6473V94.6548" stroke="#1A2E35" stroke-width="1.33333" stroke-miterlimit="10" stroke-linecap="round" stroke-linejoin="round"/>
<path d="M10.1316 102.448L5.42383 107.844H89.6473V102.448" stroke="#1A2E35" stroke-width="1.33333" stroke-miterlimit="10" stroke-linecap="round" stroke-linejoin="round"/>
<path d="M10.1316 110.241L5.42383 115.637H89.6473V110.241" stroke="#1A2E35" stroke-width="1.33333" stroke-miterlimit="10" stroke-linecap="round" stroke-linejoin="round"/>
<path d="M10.1316 118.035L5.42383 123.43H89.6473V118.035" stroke="#1A2E35" stroke-width="1.33333" stroke-miterlimit="10" stroke-linecap="round" stroke-linejoin="round"/>
<path d="M10.1316 125.828L5.42383 131.223H89.6473V125.828" stroke="#1A2E35" stroke-width="1.33333" stroke-miterlimit="10" stroke-linecap="round" stroke-linejoin="round"/>
<path d="M10.1316 133.621L5.42383 139.017H89.6473V133.621" stroke="#1A2E35" stroke-width="1.33333" stroke-miterlimit="10" stroke-linecap="round" stroke-linejoin="round"/>
<path d="M93.6603 0.99994H5.29834V9.00903H93.6603V0.99994Z" stroke="#1A2E35" stroke-width="1.33333" stroke-miterlimit="10" stroke-linecap="round" stroke-linejoin="round"/>
<path d="M91.667 9.37493V88.5543" stroke="#1A2E35" stroke-width="1.33333" stroke-miterlimit="10" stroke-linecap="round" stroke-linejoin="round"/>
<path d="M93.2176 94.3916H90.3385V88.8082H93.2176V94.3916Z" stroke="#1A2E35" stroke-width="1.33333" stroke-miterlimit="10" stroke-linecap="round" stroke-linejoin="round"/>
<path d="M37.0632 167.91L37.0645 167.906C37.0768 167.875 37.0626 167.842 37.0316 167.828C37.0006 167.816 36.9645 167.829 36.9509 167.86C35.0879 172.105 33.7788 176.56 32.6853 181.055C31.6305 185.562 30.8662 190.134 30.3317 194.734L29.9986 198.191C29.947 198.768 29.8831 199.344 29.8411 199.922L29.7456 201.657C29.6952 202.813 29.6236 203.97 29.59 205.128L29.6223 208.603L29.661 210.339C29.6868 210.918 29.7294 211.496 29.7688 212.073C29.8579 213.228 29.9289 214.383 30.0361 215.536C30.2607 217.838 30.6112 220.13 30.9727 222.412C30.9772 222.44 31.003 222.463 31.034 222.463C31.0682 222.462 31.0954 222.435 31.0954 222.401V222.398C31.0895 221.24 31.0398 220.088 31.0134 218.936C30.9798 217.784 30.8778 216.638 30.894 215.486C30.8998 214.334 30.8694 213.185 30.8565 212.037L30.8236 210.314L30.8546 208.592L30.8707 205.149L30.965 201.708L31.0011 199.986C31.0237 199.412 31.067 198.84 31.0992 198.267L31.3135 194.828C31.7215 190.252 32.3587 185.692 33.2876 181.185C34.2139 176.682 35.361 172.197 37.0632 167.91Z" fill="#1A2E35"/>
<path d="M37.563 185.914C37.572 185.883 37.5553 185.848 37.5243 185.838C37.4926 185.827 37.4571 185.844 37.4462 185.875C36.4424 188.737 35.64 191.662 34.9622 194.619C34.3147 197.581 33.8061 200.582 33.4962 203.606C33.1864 206.619 32.8449 209.636 32.8029 212.665C32.7558 215.693 32.8048 218.725 33.1289 221.75C33.1321 221.778 33.1547 221.801 33.1844 221.804C33.2186 221.808 33.249 221.784 33.2522 221.75C33.6072 218.733 33.8235 215.725 34.0352 212.717C34.2515 209.71 34.2805 206.695 34.4793 203.688C34.6633 200.689 35.0442 197.703 35.5677 194.737C36.0796 191.769 36.7187 188.813 37.563 185.914Z" fill="#1A2E35"/>
<path d="M47.678 192.247C47.66 192.219 47.6219 192.21 47.5928 192.228C45.0611 193.81 42.803 195.802 40.8297 198.046C39.8601 199.186 38.9583 200.378 38.1856 201.675L37.6421 202.687L37.2167 203.738C37.0637 204.087 36.9559 204.446 36.8455 204.805C36.7364 205.163 36.6138 205.52 36.5156 205.881C35.7565 208.774 35.253 211.722 35.1168 214.685C34.9948 217.647 35.0516 220.612 35.4525 223.553C35.4563 223.58 35.4802 223.603 35.5093 223.606C35.5435 223.608 35.5732 223.582 35.5751 223.549L36.3465 214.771C36.6538 211.87 36.8416 208.95 37.4729 206.116C37.553 205.763 37.6563 205.418 37.7467 205.068C37.8383 204.718 37.9274 204.367 38.0591 204.035L38.4199 203.019L38.8847 202.061C39.5696 200.793 40.4075 199.581 41.308 198.43C43.1142 196.131 45.2393 194.034 47.658 192.331L47.6619 192.329C47.6884 192.31 47.6955 192.274 47.678 192.247Z" fill="#1A2E35"/>
<path d="M42.7825 203.524C41.4037 204.402 40.4825 205.783 39.7073 207.172C38.9681 208.592 38.3859 210.098 37.9837 211.642C37.8624 212.025 37.7668 212.412 37.6829 212.801L37.404 213.969C37.262 214.752 37.1503 215.544 37.1058 216.338C37.0948 217.135 37.0716 217.93 37.1265 218.724C37.1929 219.518 37.2846 220.31 37.4434 221.095C37.4486 221.117 37.4679 221.138 37.4925 221.143C37.5267 221.15 37.5596 221.129 37.5661 221.095C37.761 220.312 37.8888 219.536 37.9928 218.762C38.1173 217.988 38.2393 217.221 38.3329 216.452C38.4472 215.687 38.5498 214.924 38.6105 214.153C38.7183 213.392 38.7751 212.614 38.9443 211.862C39.2147 210.341 39.6608 208.855 40.2631 207.435C40.8634 206.026 41.6445 204.622 42.8458 203.629L42.8548 203.621C42.8781 203.601 42.8839 203.568 42.8671 203.542C42.849 203.514 42.8109 203.507 42.7825 203.524Z" fill="#1A2E35"/>
<path d="M28.5975 212.317C28.265 208.42 27.6137 204.562 26.9979 200.706C26.3801 196.85 25.6997 193.005 24.9845 189.168C24.2447 185.335 23.4707 181.509 22.6328 177.696C22.6264 177.665 22.5948 177.643 22.5618 177.649C22.5283 177.655 22.5063 177.687 22.5121 177.72C23.188 181.561 23.7993 185.413 24.3771 189.269C24.9696 193.122 25.5274 196.98 26.0218 200.844C26.5041 204.71 26.8804 208.585 27.3716 212.444L28.8157 224.044C28.8195 224.073 28.8434 224.096 28.8744 224.098C28.9086 224.099 28.937 224.073 28.939 224.04C28.9842 223.062 28.9854 222.085 29.01 221.105C29.0184 220.126 28.9693 219.151 28.9519 218.171C28.9151 216.213 28.746 214.267 28.5975 212.317Z" fill="#1A2E35"/>
<path d="M26.2294 212.26C26.0183 210.717 25.7311 209.183 25.4328 207.653L24.8783 205.378C24.6963 204.62 24.5246 203.859 24.2993 203.111C23.5118 200.092 22.5047 197.125 21.2808 194.25L20.8077 193.177L20.2816 192.128C19.9472 191.422 19.5424 190.749 19.1583 190.068C18.3327 188.741 17.4755 187.415 16.3084 186.34C16.2845 186.317 16.247 186.317 16.2238 186.34C16.1993 186.363 16.1986 186.402 16.2225 186.426L16.2283 186.431C17.3076 187.536 18.0939 188.899 18.8349 190.245C19.179 190.938 19.5418 191.62 19.8355 192.335L20.299 193.396L20.7102 194.478C21.8044 197.363 22.681 200.328 23.3413 203.342C23.7009 204.842 23.9397 206.369 24.2341 207.881L24.6033 210.164C24.7376 210.924 24.9022 211.678 25.0107 212.442C25.2573 213.966 25.5406 215.485 25.8105 217.01C26.05 218.538 26.3327 220.064 26.6593 221.591C26.6652 221.619 26.6903 221.642 26.72 221.642C26.7536 221.642 26.7813 221.615 26.782 221.581C26.7891 220.024 26.7523 218.466 26.6716 216.911C26.5799 215.357 26.3934 213.81 26.2294 212.26Z" fill="#1A2E35"/>
<path d="M22.9618 212.459C22.2304 210.414 21.3841 208.413 20.461 206.451C19.5147 204.499 18.4928 202.585 17.316 200.762C17.298 200.736 17.2605 200.726 17.2328 200.742C17.2037 200.759 17.1934 200.796 17.2108 200.825C18.2385 202.719 19.108 204.695 19.8955 206.692C20.6973 208.685 21.4196 210.708 22.0245 212.763C22.6423 214.814 23.0844 216.906 23.6377 218.968C24.2199 221.028 24.6905 223.109 25.3322 225.196C25.3399 225.22 25.3638 225.24 25.3915 225.241C25.4258 225.241 25.4542 225.214 25.4542 225.18C25.4858 223.004 25.2689 220.829 24.8403 218.698C24.453 216.554 23.6893 214.502 22.9618 212.459Z" fill="#1A2E35"/>
<path d="M22.8261 219.27C22.4517 217.989 21.8133 216.796 21.0877 215.673C20.3757 214.543 19.5488 213.475 18.5579 212.57C18.0473 212.134 17.5257 211.714 16.9486 211.373C16.3799 211.022 15.777 210.726 15.1231 210.558C15.0947 210.55 15.0643 210.564 15.0514 210.592C15.0379 210.622 15.0521 210.658 15.0824 210.672L15.0901 210.675C16.2734 211.194 17.2727 212.055 18.1183 212.997C18.9743 213.94 19.6579 215.022 20.2279 216.149C20.8269 217.268 21.1368 218.505 21.6577 219.658C21.8875 220.249 22.116 220.844 22.382 221.434C22.6079 222.037 22.8577 222.638 23.176 223.235L23.1773 223.238C23.1876 223.257 23.2076 223.27 23.2309 223.271C23.2657 223.273 23.2954 223.246 23.2967 223.212C23.3251 222.545 23.2851 221.882 23.2218 221.22C23.1243 220.565 22.9849 219.916 22.8261 219.27Z" fill="#1A2E35"/>
<path d="M23.0703 183.274C23.0703 183.274 16.5995 181.801 15.1064 174.925C13.6133 168.049 18.4244 170.995 14.111 160.19C9.797 149.384 10.7924 146.928 12.2861 143.818C13.7792 140.707 14.6087 141.689 15.9359 145.782C17.2631 149.875 22.0749 156.26 23.8998 168.212C25.7247 180.164 23.0703 183.274 23.0703 183.274Z" fill="#0F7AE1"/>
<path d="M35.8458 171.65C35.8458 171.65 31.5318 170.177 31.3665 162.155C31.2 154.132 34.5186 155.769 35.0163 145.782C35.514 135.795 36.1776 128.755 38.0025 128.591C39.8274 128.428 44.6392 133.503 46.2982 144.636C47.9572 155.769 44.1415 163.137 40.8228 166.411C37.5048 169.686 35.8458 171.65 35.8458 171.65Z" fill="#0F7AE1"/>
<path d="M20.7476 192.935C20.7476 192.935 19.7522 187.04 17.7614 184.257C15.77 181.474 11.4559 179.018 8.63562 173.616C5.81532 168.212 2.66323 165.592 2.82912 173.287C2.99502 180.983 6.47892 184.912 10.793 187.532C15.1064 190.151 20.7476 192.935 20.7476 192.935Z" fill="#0F7AE1"/>
<path d="M18.9227 203.085C18.9227 203.085 14.9411 195.555 9.13395 189.987C3.32681 184.421 -1.31838 181.638 0.339973 184.421C1.99962 187.204 3.99041 187.041 6.81071 191.952C9.63165 196.864 8.80215 200.466 12.7837 203.249C16.766 206.033 18.9227 203.085 18.9227 203.085Z" fill="#0F7AE1"/>
<path d="M18.4248 212.745C18.2589 212.254 18.093 208.652 12.4524 205.705C6.81119 202.758 1.50175 203.904 2.16599 205.378C2.82895 206.851 6.31349 209.307 9.79738 210.78C13.2819 212.254 18.4248 212.745 18.4248 212.745Z" fill="#0F7AE1"/>
<path d="M35.5136 193.262C35.5136 193.262 33.0251 190.151 34.3523 183.602C35.6795 177.053 38.6657 178.69 41.9843 175.252C45.3023 171.814 44.6387 171.323 47.9567 167.721C51.2754 164.12 54.2616 162.154 55.5887 163.628C56.9159 165.102 54.9251 169.686 52.9344 172.306C50.9436 174.925 47.7915 176.235 46.2977 179.509C44.8046 182.784 45.4682 188.023 41.6525 190.479C37.8368 192.935 35.5136 193.262 35.5136 193.262Z" fill="#0F7AE1"/>
<path d="M43.8094 195.063C43.8094 195.063 49.7818 188.35 54.0959 183.439C58.4099 178.527 60.0683 174.761 60.2348 178.036C60.4007 181.31 61.7279 183.929 58.2434 188.186C54.7595 192.443 43.8094 195.063 43.8094 195.063Z" fill="#0F7AE1"/>
<path d="M40.6571 205.869C40.6571 205.869 40.4912 203.249 49.9481 197.191C59.4051 191.134 63.3867 189.987 62.3913 192.443C61.3959 194.899 57.2484 197.355 52.7684 201.776C48.2891 206.196 40.6571 205.869 40.6571 205.869Z" fill="#0F7AE1"/>
<path d="M23.465 182.577C23.465 182.577 21.2457 170.832 18.9224 162.482C16.5998 154.132 15.1067 149.057 15.1067 149.057" stroke="#1A2E35" stroke-width="1.33333" stroke-miterlimit="10" stroke-linecap="round" stroke-linejoin="round"/>
<path d="M35.4633 171.774C35.4633 171.774 39.4958 159.044 40.823 151.349C42.1502 143.653 40.6571 137.923 39.9935 134.485" stroke="#1A2E35" stroke-width="1.33333" stroke-miterlimit="10" stroke-linecap="round" stroke-linejoin="round"/>
<path d="M20.2245 192.688C20.2245 192.688 17.7612 188.35 14.1114 184.093C10.461 179.836 7.64066 177.545 5.98166 173.451" stroke="#1A2E35" stroke-width="1.33333" stroke-miterlimit="10" stroke-linecap="round" stroke-linejoin="round"/>
<path d="M35.5137 193.262C35.5137 193.262 36.8409 185.403 39.993 181.31C43.1458 177.218 49.4506 170.832 51.9391 166.739" stroke="#1A2E35" stroke-width="1.33333" stroke-miterlimit="10" stroke-linecap="round" stroke-linejoin="round"/>
<path d="M18.035 212.566C18.035 212.566 12.4518 208.979 8.47025 207.015" stroke="#1A2E35" stroke-width="1.33333" stroke-miterlimit="10" stroke-linecap="round" stroke-linejoin="round"/>
<path d="M50.0019 245.567C49.6288 235.631 38.4425 229.008 38.4425 229.008H31.3657H28.3749H21.2981C21.2981 229.008 10.1118 235.631 9.73865 245.567C9.36554 255.502 22.4168 291.929 22.4168 291.929H28.3749H31.3657H37.3238C37.3238 291.929 50.3751 255.502 50.0019 245.567Z" fill="#1A2E35"/>
<path d="M50.0019 245.567C49.6288 235.631 38.4425 229.008 38.4425 229.008H31.3657H28.3749H21.2981C21.2981 229.008 10.1118 235.631 9.73865 245.567C9.36554 255.502 22.4168 291.929 22.4168 291.929H28.3749H31.3657H37.3238C37.3238 291.929 50.3751 255.502 50.0019 245.567Z" stroke="#1A2E35" stroke-width="1.33333" stroke-miterlimit="10" stroke-linecap="round" stroke-linejoin="round"/>
<path d="M40.6499 219.24H18.7737L21.2977 229.008H38.1259L40.6499 219.24Z" fill="#1A2E35"/>
<path d="M40.6499 219.24H18.7737L21.2977 229.008H38.1259L40.6499 219.24Z" stroke="#1A2E35" stroke-width="1.33333" stroke-miterlimit="10" stroke-linecap="round" stroke-linejoin="round"/>
<path d="M303.22 291.93H3.25662" stroke="#1A2E35" stroke-width="1.33333" stroke-miterlimit="10" stroke-linecap="round" stroke-linejoin="round"/>
<path d="M188.099 27.4959V246.388C188.099 252.397 183.163 257.267 177.075 257.267H81.2293C75.1413 257.267 70.2057 252.397 70.2057 246.388V27.4902C70.2057 21.4851 75.1388 16.6178 81.2241 16.6178H122.363L122.398 16.742C123.423 20.3825 125.783 22.7515 128.402 22.7515H129.903C132.521 22.7515 134.881 20.3825 135.906 16.742L135.947 16.6178H177.075C183.163 16.6178 188.099 21.4877 188.099 27.4959Z" fill="white"/>
<path d="M188.099 27.4959V246.388C188.099 252.397 183.163 257.267 177.075 257.267H81.2293C75.1413 257.267 70.2057 252.397 70.2057 246.388V27.4902C70.2057 21.4851 75.1388 16.6178 81.2241 16.6178H122.363L122.398 16.742C123.423 20.3825 125.783 22.7515 128.402 22.7515H129.903C132.521 22.7515 134.881 20.3825 135.906 16.742L135.947 16.6178H177.075C183.163 16.6178 188.099 21.4877 188.099 27.4959Z" stroke="#1A2E35" stroke-width="1.33333" stroke-miterlimit="10"/>
<path d="M147.25 172.041H113.06C111.333 172.041 109.934 170.66 109.934 168.956V162.69C109.934 160.986 111.333 159.606 113.06 159.606H147.25C148.976 159.606 150.376 160.986 150.376 162.69V168.956C150.376 170.66 148.976 172.041 147.25 172.041Z" fill="#1A2E35"/>
<path d="M147.25 172.041H113.06C111.333 172.041 109.934 170.66 109.934 168.956V162.69C109.934 160.986 111.333 159.606 113.06 159.606H147.25C148.976 159.606 150.376 160.986 150.376 162.69V168.956C150.376 170.66 148.976 172.041 147.25 172.041Z" stroke="#1A2E35" stroke-width="1.33333" stroke-miterlimit="10" stroke-linecap="round" stroke-linejoin="round"/>
<path d="M70.2054 189.169V246.388C70.2054 252.397 75.1411 257.267 81.2296 257.267H177.075C183.163 257.267 188.099 252.397 188.099 246.389V189.169H70.2054Z" fill="#DCDCDC"/>
<path d="M70.2054 189.169V246.388C70.2054 252.397 75.1411 257.267 81.2296 257.267H177.075C183.163 257.267 188.099 252.397 188.099 246.389V189.169H70.2054Z" stroke="#1A2E35" stroke-width="1.33333" stroke-miterlimit="10" stroke-linecap="round" stroke-linejoin="round"/>
<path d="M106.111 206.795H76.7208C75.9106 206.795 75.2542 206.147 75.2542 205.347V197.527C75.2542 196.727 75.9106 196.079 76.7208 196.079H106.111C106.921 196.079 107.577 196.727 107.577 197.527V205.347C107.577 206.147 106.921 206.795 106.111 206.795Z" fill="white"/>
<path d="M142.283 206.795H112.893C112.083 206.795 111.426 206.147 111.426 205.347V197.527C111.426 196.727 112.083 196.079 112.893 196.079H142.283C143.093 196.079 143.749 196.727 143.749 197.527V205.347C143.749 206.147 143.093 206.795 142.283 206.795Z" fill="white"/>
<path d="M178.455 206.795H149.065C148.254 206.795 147.598 206.147 147.598 205.347V197.527C147.598 196.727 148.254 196.079 149.065 196.079H178.455C179.265 196.079 179.922 196.727 179.922 197.527V205.347C179.922 206.147 179.265 206.795 178.455 206.795Z" fill="white"/>
<path d="M106.111 220.487H76.7208C75.9106 220.487 75.2542 219.839 75.2542 219.04V211.219C75.2542 210.419 75.9106 209.771 76.7208 209.771H106.111C106.921 209.771 107.577 210.419 107.577 211.219V219.04C107.577 219.839 106.921 220.487 106.111 220.487Z" fill="white"/>
<path d="M142.283 220.487H112.893C112.083 220.487 111.426 219.839 111.426 219.04V211.219C111.426 210.419 112.083 209.771 112.893 209.771H142.283C143.093 209.771 143.749 210.419 143.749 211.219V219.04C143.749 219.839 143.093 220.487 142.283 220.487Z" fill="white"/>
<path d="M178.455 220.487H149.065C148.254 220.487 147.598 219.839 147.598 219.04V211.219C147.598 210.419 148.254 209.771 149.065 209.771H178.455C179.265 209.771 179.922 210.419 179.922 211.219V219.04C179.922 219.839 179.265 220.487 178.455 220.487Z" fill="white"/>
<path d="M106.111 234.179H76.7208C75.9106 234.179 75.2542 233.531 75.2542 232.732V224.911C75.2542 224.112 75.9106 223.464 76.7208 223.464H106.111C106.921 223.464 107.577 224.112 107.577 224.911V232.732C107.577 233.531 106.921 234.179 106.111 234.179Z" fill="white"/>
<path d="M142.283 234.179H112.893C112.083 234.179 111.426 233.531 111.426 232.732V224.911C111.426 224.112 112.083 223.464 112.893 223.464H142.283C143.093 223.464 143.749 224.112 143.749 224.911V232.732C143.749 233.531 143.093 234.179 142.283 234.179Z" fill="white"/>
<path d="M178.455 234.179H149.065C148.254 234.179 147.598 233.531 147.598 232.732V224.911C147.598 224.112 148.254 223.464 149.065 223.464H178.455C179.265 223.464 179.922 224.112 179.922 224.911V232.732C179.922 233.531 179.265 234.179 178.455 234.179Z" fill="white"/>
<path d="M142.283 247.872H112.893C112.083 247.872 111.426 247.223 111.426 246.424V238.604C111.426 237.804 112.083 237.156 112.893 237.156H142.283C143.093 237.156 143.749 237.804 143.749 238.604V246.424C143.749 247.223 143.093 247.872 142.283 247.872Z" fill="white"/>
<path d="M176.018 247.872H155.854L151.502 242.881L155.854 237.156H176.018V247.872Z" fill="white"/>
<path d="M130.446 66.1908L130.154 65.9749L129.863 66.1908C129.863 66.1908 115.003 74.5293 108.301 77.692C108.301 77.692 111.506 95.5199 113.837 103.57C116.168 111.622 125.201 115.935 130.154 118.81C135.108 115.935 144.141 111.622 146.472 103.57C148.803 95.5199 152.008 77.692 152.008 77.692C145.307 74.5293 130.446 66.1908 130.446 66.1908Z" fill="#0F7AE1"/>
<path d="M128.631 100.659L118.777 92.3239C117.829 91.5226 117.72 90.1154 118.532 89.1803C119.343 88.2452 120.77 88.1369 121.718 88.9389L128.181 94.4057L139.237 81.9726C140.06 81.0464 141.487 80.9546 142.426 81.7668C143.363 82.579 143.457 83.9881 142.634 84.9136L128.631 100.659Z" fill="white"/>
<path d="M91.6923 141.991H78.2886V128.764H91.6923V141.991Z" fill="white" stroke="#1A2E35" stroke-width="1.33333" stroke-miterlimit="10"/>
<path d="M109.758 141.991H96.3542V128.764H109.758V141.991Z" fill="white" stroke="#1A2E35" stroke-width="1.33333" stroke-miterlimit="10"/>
<path d="M127.823 141.991H114.42V128.764H127.823V141.991Z" fill="white" stroke="#1A2E35" stroke-width="1.33333" stroke-miterlimit="10"/>
<path d="M145.889 141.991H132.486V128.764H145.889V141.991Z" fill="white" stroke="#1A2E35" stroke-width="1.33333" stroke-miterlimit="10"/>
<path d="M163.955 141.991H150.551V128.764H163.955V141.991Z" fill="white" stroke="#1A2E35" stroke-width="1.33333" stroke-miterlimit="10"/>
<path d="M182.021 141.991H168.617V128.764H182.021V141.991Z" fill="white" stroke="#1A2E35" stroke-width="1.33333" stroke-miterlimit="10"/>
<path d="M188.099 37.6809V27.4958C188.099 21.4882 183.163 16.6176 177.075 16.6176H135.947L135.907 16.7418C134.881 20.383 132.521 22.7514 129.903 22.7514H128.401C125.784 22.7514 123.423 20.383 122.398 16.7418L122.363 16.6176H81.2238C75.1385 16.6176 70.2054 21.4856 70.2054 27.4901V37.6809H188.099Z" fill="#DCDCDC"/>
<path d="M188.099 37.6809V27.4958C188.099 21.4882 183.163 16.6176 177.075 16.6176H135.947L135.907 16.7418C134.881 20.383 132.521 22.7514 129.903 22.7514H128.401C125.784 22.7514 123.423 20.383 122.398 16.7418L122.363 16.6176H81.2238C75.1385 16.6176 70.2054 21.4856 70.2054 27.4901V37.6809H188.099Z" stroke="#1A2E35" stroke-width="1.33333" stroke-miterlimit="10" stroke-linecap="round" stroke-linejoin="round"/>
<path d="M188.099 240.012C188.099 249.544 180.267 257.267 170.614 257.267H87.6908C78.037 257.267 70.2055 249.544 70.2055 240.012V33.8665C70.2055 24.3401 78.037 16.6176 87.6908 16.6176H122.363L122.397 16.7419C123.423 20.383 125.783 22.752 128.401 22.752H129.903C132.521 22.752 134.881 20.383 135.906 16.7419L135.946 16.6176H170.614C180.267 16.6176 188.099 24.3401 188.099 33.8665V240.012ZM195.596 79.7769V57.9142H193.592V29.9247C193.592 20.3964 185.764 12.672 176.108 12.672H82.1961C72.5404 12.672 64.7127 20.3964 64.7127 29.9247V252.337C64.7127 261.865 72.5404 269.59 82.1961 269.59H176.108C185.764 269.59 193.592 261.865 193.592 252.337V98.41H195.596V85.4909H193.592V79.7769H195.596Z" fill="#0F7AE1"/>
<path d="M188.099 240.012C188.099 249.544 180.267 257.267 170.614 257.267H87.6908C78.037 257.267 70.2055 249.544 70.2055 240.012V33.8665C70.2055 24.3401 78.037 16.6176 87.6908 16.6176H122.363L122.397 16.7419C123.423 20.383 125.783 22.752 128.401 22.752H129.903C132.521 22.752 134.881 20.383 135.906 16.7419L135.946 16.6176H170.614C180.267 16.6176 188.099 24.3401 188.099 33.8665V240.012ZM195.596 79.7769V57.9142H193.592V29.9247C193.592 20.3964 185.764 12.672 176.108 12.672H82.1961C72.5404 12.672 64.7127 20.3964 64.7127 29.9247V252.337C64.7127 261.865 72.5404 269.59 82.1961 269.59H176.108C185.764 269.59 193.592 261.865 193.592 252.337V98.41H195.596V85.4909H193.592V79.7769H195.596Z" stroke="#1A2E35" stroke-width="1.33333" stroke-miterlimit="10" stroke-linecap="round" stroke-linejoin="round"/>
<path d="M188.099 240.626C188.099 249.816 180.549 257.267 171.236 257.267H87.0695C77.7552 257.267 70.2058 249.816 70.2058 240.626V33.2531C70.2058 24.0655 77.7533 16.6176 87.0631 16.6176H122.364L122.398 16.7425C123.424 20.383 125.784 22.752 128.402 22.752H129.903C132.521 22.752 134.882 20.383 135.907 16.7425L135.947 16.6176H171.236C180.549 16.6176 188.099 24.0681 188.099 33.2588V240.626ZM174.706 15.0487H83.5992C74.2868 15.0487 66.7374 22.4985 66.7374 31.688V250.573C66.7374 259.763 74.2868 267.213 83.5992 267.213H174.706C184.018 267.213 191.568 259.763 191.568 250.574V31.688C191.568 22.4985 184.018 15.0487 174.706 15.0487Z" fill="#1A2E35"/>
<path d="M188.099 240.626C188.099 249.816 180.549 257.267 171.236 257.267H87.0695C77.7552 257.267 70.2058 249.816 70.2058 240.626V33.2531C70.2058 24.0655 77.7533 16.6176 87.0631 16.6176H122.364L122.398 16.7425C123.424 20.383 125.784 22.752 128.402 22.752H129.903C132.521 22.752 134.882 20.383 135.907 16.7425L135.947 16.6176H171.236C180.549 16.6176 188.099 24.0681 188.099 33.2588V240.626ZM174.706 15.0487H83.5992C74.2868 15.0487 66.7374 22.4985 66.7374 31.688V250.573C66.7374 259.763 74.2868 267.213 83.5992 267.213H174.706C184.018 267.213 191.568 259.763 191.568 250.574V31.688C191.568 22.4985 184.018 15.0487 174.706 15.0487V15.0487Z" stroke="#1A2E35" stroke-width="1.33333" stroke-miterlimit="10" stroke-linecap="round" stroke-linejoin="round"/>
<path d="M130.434 17.4423C130.434 16.548 129.699 15.8231 128.793 15.8231C127.886 15.8231 127.151 16.548 127.151 17.4423C127.151 18.3367 127.886 19.0623 128.793 19.0623C129.699 19.0623 130.434 18.3367 130.434 17.4423Z" fill="white"/>
<path d="M80.6841 23.649C80.6841 25.2881 78.8192 25.8779 78.8114 27.1284V27.2137H80.6215V27.7654H78.2059V27.2991C78.2059 25.5441 80.0708 25.2027 80.0708 23.6726C80.0708 23.1133 79.8817 22.8184 79.4253 22.8184C78.9767 22.8184 78.7798 23.1369 78.7798 23.6185V24.1H78.2059V23.6573C78.2059 22.826 78.5913 22.2744 79.4408 22.2744C80.2987 22.2744 80.6841 22.8184 80.6841 23.649Z" fill="#1A2E35"/>
<path d="M83.6995 23.6416V23.7811C83.6995 24.3404 83.4716 24.7366 83.0308 24.8997C83.4949 25.0704 83.6995 25.4825 83.6995 26.0259V26.445C83.6995 27.2763 83.3064 27.8197 82.4562 27.8197C81.6145 27.8197 81.2207 27.2763 81.2207 26.445V26.0724H81.7952V26.4839C81.7952 26.9731 81.9999 27.2681 82.4407 27.2681C82.8894 27.2681 83.0856 26.9808 83.0856 26.4298V26.01C83.0856 25.4742 82.8578 25.2182 82.393 25.2029H82.0625V24.6589H82.4246C82.8339 24.6429 83.0856 24.3869 83.0856 23.9136V23.6645C83.0856 23.1058 82.8894 22.8186 82.4407 22.8186C81.9999 22.8186 81.7952 23.1211 81.7952 23.6104V23.89H81.2207V23.6416C81.2207 22.8103 81.6145 22.2746 82.4562 22.2746C83.3064 22.2746 83.6995 22.8103 83.6995 23.6416Z" fill="#1A2E35"/>
<path d="M84.8885 27.765H84.2985V27.0114H84.8885V27.765ZM84.8885 24.8061H84.2985V24.0525H84.8885V24.8061Z" fill="#1A2E35"/>
<path d="M86.132 24.5427C86.3057 24.2471 86.5807 24.0917 86.9512 24.0917C87.6593 24.0917 87.9737 24.6045 87.9737 25.381V26.4448C87.9737 27.2761 87.5722 27.8201 86.7304 27.8201C85.8887 27.8201 85.4949 27.2761 85.4949 26.4448V26.0804H86.0694V26.4836C86.0694 26.9728 86.2741 27.2678 86.7149 27.2678C87.1552 27.2678 87.3598 26.9728 87.3598 26.4836V25.4275C87.3598 24.9389 87.1552 24.6433 86.7149 24.6433C86.3767 24.6433 86.1482 24.83 86.0927 25.2255V25.3504H85.5188L85.6685 22.3291H87.8401V22.8724H86.2185L86.132 24.5427Z" fill="#1A2E35"/>
<path d="M89.1393 25.6686V26.484C89.1393 26.9732 89.3439 27.2682 89.7925 27.2682C90.2334 27.2682 90.4451 26.9732 90.4451 26.484V25.6686C90.4451 25.1788 90.2334 24.8845 89.7925 24.8845C89.3439 24.8845 89.1393 25.1788 89.1393 25.6686ZM91.0358 23.634V23.7347H90.4613V23.5952C90.4613 23.106 90.2567 22.8187 89.8087 22.8187C89.3439 22.8187 89.1393 23.1136 89.1393 23.6958V24.9151C89.2884 24.5424 89.5879 24.3328 90.0281 24.3328C90.7369 24.3328 91.0519 24.8374 91.0519 25.6215V26.4452C91.0519 27.2758 90.6336 27.8198 89.7925 27.8198C88.9424 27.8198 88.5254 27.2758 88.5254 26.4452V23.6729C88.5254 22.8104 88.9191 22.2747 89.7925 22.2747C90.6427 22.2747 91.0358 22.8028 91.0358 23.634Z" fill="#1A2E35"/>
<path d="M151.176 27.7103H149.621V23.873H151.176V27.7103Z" fill="#1A2E35"/>
<path d="M153.25 27.7103H151.695V23.1048H153.25V27.7103Z" fill="#1A2E35"/>
<path d="M155.324 27.7103H153.768V22.5588H155.324V27.7103Z" fill="#1A2E35"/>
<path d="M157.398 27.7103H155.842V21.6091H157.398V27.7103Z" fill="#1A2E35"/>
<path d="M167.832 27.093H176.128V22.488H167.832V27.093ZM176.647 27.6045H167.314V21.9765H176.647V27.6045Z" fill="#1A2E35"/>
<path d="M173.536 26.5363H168.61V23.0448H173.536V26.5363Z" fill="#1A2E35"/>
<path d="M177.496 25.454H176.323V24.1277H177.496V25.454Z" fill="#1A2E35"/>
<path d="M163.892 26.3802C163.831 26.3802 163.769 26.365 163.714 26.3318C161.814 25.2183 160.558 26.2522 160.506 26.2955C160.362 26.4197 160.141 26.4038 160.016 26.2611C159.89 26.1184 159.903 25.9031 160.048 25.7783C160.115 25.7197 161.72 24.3628 164.07 25.7407C164.235 25.8375 164.29 26.049 164.192 26.2121C164.126 26.3204 164.011 26.3802 163.892 26.3802Z" fill="#1A2E35"/>
<path d="M164.594 25.2241C164.534 25.2241 164.472 25.2088 164.416 25.1757C161.67 23.5641 159.824 25.1235 159.805 25.1381C159.661 25.2643 159.441 25.2496 159.314 25.1075C159.187 24.9649 159.2 24.747 159.345 24.6221C159.368 24.6018 161.594 22.7207 164.773 24.5846C164.938 24.6814 164.993 24.8929 164.894 25.056C164.829 25.1642 164.713 25.2241 164.594 25.2241Z" fill="#1A2E35"/>
<path d="M165.232 23.8855C165.171 23.8855 165.109 23.8702 165.054 23.8371C161.576 21.7961 159.264 23.7173 159.167 23.8008C159.021 23.925 158.801 23.9097 158.675 23.767C158.548 23.625 158.562 23.4084 158.707 23.2835C158.735 23.2593 161.482 20.9406 165.41 23.2459C165.576 23.3428 165.63 23.5543 165.532 23.7173C165.466 23.8256 165.351 23.8855 165.232 23.8855Z" fill="#1A2E35"/>
<path d="M162.842 26.957C162.842 27.4334 162.451 27.8195 161.968 27.8195C161.485 27.8195 161.094 27.4334 161.094 26.957C161.094 26.4798 161.485 26.0944 161.968 26.0944C162.451 26.0944 162.842 26.4798 162.842 26.957Z" fill="#1A2E35"/>
<path d="M166.857 242.769L170.003 239.665C170.381 239.292 170.381 238.687 170.003 238.314C169.625 237.941 169.012 237.941 168.634 238.314L165.488 241.418L162.343 238.314C161.964 237.941 161.352 237.941 160.973 238.314C160.595 238.687 160.595 239.292 160.973 239.665L164.119 242.769L160.973 245.874C160.595 246.247 160.595 246.851 160.973 247.225C161.163 247.411 161.411 247.505 161.658 247.505C161.906 247.505 162.154 247.411 162.343 247.225L165.488 244.12L168.634 247.225C168.823 247.411 169.071 247.505 169.319 247.505C169.566 247.505 169.814 247.411 170.003 247.225C170.381 246.851 170.381 246.247 170.003 245.874L166.857 242.769Z" fill="#1A2E35"/>
<path d="M89.7247 205.113V198.835C89.686 198.854 89.6098 198.883 89.4969 198.921C89.3839 198.959 89.26 198.995 89.1244 199.03C88.9888 199.066 88.8642 199.1 88.7513 199.131C88.6383 199.163 88.5596 199.188 88.5144 199.207V198.223C88.6047 198.191 88.7177 198.147 88.8533 198.09C88.9888 198.032 89.1328 197.967 89.2838 197.894C89.4355 197.821 89.5776 197.739 89.7105 197.65C89.8422 197.561 89.9507 197.468 90.0346 197.373H91.061V205.113H89.7247Z" fill="#1A2E35"/>
<path d="M125.886 205.113V204.176L127.823 201.224C127.965 201.007 128.098 200.8 128.224 200.603C128.35 200.405 128.453 200.2 128.534 199.986C128.615 199.773 128.655 199.539 128.655 199.284C128.655 198.997 128.603 198.778 128.501 198.625C128.397 198.472 128.236 198.395 128.016 198.395C127.809 198.395 127.648 198.453 127.532 198.567C127.416 198.682 127.337 198.832 127.295 199.016C127.253 199.201 127.232 199.405 127.232 199.628V199.953H125.915V199.609C125.915 199.15 125.984 198.748 126.123 198.4C126.262 198.053 126.483 197.781 126.787 197.583C127.09 197.386 127.486 197.287 127.978 197.287C128.649 197.287 129.153 197.465 129.488 197.822C129.824 198.179 129.992 198.676 129.992 199.313C129.992 199.632 129.947 199.92 129.856 200.178C129.766 200.435 129.646 200.682 129.498 200.918C129.349 201.154 129.188 201.396 129.014 201.644L127.406 204.052H129.788V205.113H125.886Z" fill="#1A2E35"/>
<path d="M163.663 205.227C163.173 205.227 162.777 205.136 162.478 204.955C162.177 204.774 161.959 204.516 161.824 204.18C161.688 203.847 161.62 203.457 161.62 203.011V202.743H162.947V202.838V202.972C162.953 203.215 162.976 203.421 163.015 203.594C163.053 203.765 163.126 203.896 163.233 203.986C163.339 204.074 163.486 204.119 163.673 204.119C163.873 204.119 164.023 204.072 164.123 203.975C164.223 203.88 164.292 203.74 164.326 203.555C164.363 203.37 164.38 203.15 164.38 202.896C164.38 202.501 164.317 202.19 164.191 201.964C164.066 201.738 163.822 201.615 163.46 201.597H163.368H163.237V200.536H163.339H163.441C163.796 200.529 164.041 200.435 164.177 200.253C164.312 200.072 164.38 199.781 164.38 199.379C164.38 199.055 164.33 198.8 164.23 198.615C164.13 198.43 163.938 198.338 163.654 198.338C163.376 198.338 163.191 198.44 163.097 198.644C163.004 198.847 162.953 199.112 162.947 199.437V199.576V199.723H161.62V199.351C161.62 198.911 161.7 198.537 161.858 198.228C162.015 197.919 162.247 197.684 162.55 197.521C162.853 197.358 163.221 197.278 163.654 197.278C164.099 197.278 164.474 197.357 164.777 197.517C165.08 197.676 165.311 197.907 165.469 198.209C165.627 198.512 165.707 198.882 165.707 199.322C165.707 199.781 165.61 200.156 165.416 200.449C165.222 200.743 164.974 200.934 164.67 201.023C164.877 201.087 165.058 201.197 165.213 201.353C165.368 201.509 165.489 201.712 165.575 201.964C165.663 202.216 165.707 202.52 165.707 202.877C165.707 203.342 165.641 203.751 165.508 204.105C165.375 204.458 165.159 204.734 164.86 204.931C164.559 205.128 164.16 205.227 163.663 205.227Z" fill="#1A2E35"/>
<path d="M89.1536 215.879H90.3736V212.515L89.1536 215.879ZM90.3736 218.831V216.929H88.0304V215.802L90.0735 211.091H91.6324V215.879H92.4361V216.929H91.6324V218.831H90.3736Z" fill="#1A2E35"/>
<path d="M127.919 218.946C127.396 218.946 126.992 218.851 126.704 218.66C126.417 218.468 126.218 218.197 126.109 217.847C125.999 217.497 125.944 217.086 125.944 216.614H127.251C127.251 216.875 127.269 217.107 127.305 217.307C127.34 217.508 127.411 217.664 127.517 217.775C127.624 217.887 127.781 217.939 127.987 217.933C128.213 217.933 128.373 217.861 128.467 217.718C128.56 217.575 128.62 217.374 128.646 217.116C128.671 216.858 128.684 216.557 128.684 216.213C128.684 215.914 128.667 215.652 128.631 215.429C128.595 215.207 128.526 215.033 128.423 214.909C128.32 214.785 128.158 214.722 127.939 214.722C127.752 214.722 127.597 214.785 127.474 214.909C127.351 215.033 127.261 215.197 127.203 215.401H126.051L126.128 211.091H129.653V212.276H127.251L127.174 214.139C127.271 214.025 127.411 213.933 127.595 213.863C127.779 213.792 127.984 213.752 128.21 213.738C128.623 213.719 128.959 213.806 129.217 213.996C129.475 214.187 129.666 214.464 129.788 214.827C129.911 215.191 129.972 215.624 129.972 216.127C129.972 216.535 129.945 216.911 129.89 217.255C129.835 217.599 129.733 217.897 129.585 218.148C129.436 218.4 129.228 218.595 128.961 218.735C128.693 218.876 128.345 218.946 127.919 218.946Z" fill="#1A2E35"/>
<path d="M163.717 217.914C163.904 217.914 164.046 217.856 164.143 217.742C164.24 217.628 164.307 217.468 164.346 217.264C164.385 217.06 164.404 216.821 164.404 216.547C164.404 216.267 164.393 216.017 164.371 215.798C164.348 215.578 164.288 215.403 164.191 215.272C164.094 215.142 163.933 215.077 163.707 215.077C163.597 215.077 163.495 215.097 163.402 215.138C163.308 215.18 163.228 215.233 163.16 215.296C163.093 215.359 163.039 215.424 163 215.487V216.701C163 216.917 163.021 217.118 163.063 217.302C163.105 217.488 163.179 217.635 163.286 217.747C163.393 217.858 163.536 217.914 163.717 217.914ZM163.707 218.936C163.223 218.936 162.829 218.825 162.526 218.602C162.222 218.379 162.001 218.075 161.862 217.689C161.723 217.304 161.654 216.872 161.654 216.394V213.681C161.654 213.178 161.712 212.725 161.829 212.32C161.945 211.915 162.151 211.595 162.448 211.359C162.745 211.124 163.162 211.005 163.697 211.005C164.156 211.005 164.528 211.081 164.816 211.23C165.103 211.38 165.314 211.598 165.45 211.884C165.586 212.171 165.653 212.525 165.653 212.945C165.653 212.964 165.655 212.985 165.658 213.008C165.661 213.03 165.663 213.05 165.663 213.07H164.375C164.375 212.725 164.333 212.467 164.249 212.296C164.165 212.123 163.985 212.037 163.707 212.037C163.539 212.037 163.404 212.088 163.3 212.191C163.197 212.293 163.122 212.46 163.073 212.692C163.024 212.925 163 213.235 163 213.624V214.551C163.091 214.404 163.228 214.288 163.411 214.202C163.596 214.116 163.81 214.073 164.056 214.073C164.482 214.067 164.817 214.159 165.063 214.35C165.308 214.541 165.484 214.805 165.59 215.143C165.697 215.481 165.75 215.866 165.75 216.3C165.75 216.803 165.686 217.253 165.556 217.651C165.427 218.049 165.214 218.363 164.917 218.592C164.62 218.822 164.217 218.936 163.707 218.936Z" fill="#1A2E35"/>
<path d="M88.9257 232.551L90.4846 225.824H88.3641V224.811H91.8015V225.623L90.2232 232.551H88.9257Z" fill="#1A2E35"/>
<path d="M127.895 227.955C128.057 227.948 128.184 227.892 128.277 227.787C128.371 227.682 128.438 227.537 128.476 227.353C128.515 227.168 128.534 226.958 128.534 226.721C128.534 226.429 128.486 226.19 128.389 226.005C128.292 225.821 128.128 225.728 127.895 225.728C127.669 225.728 127.503 225.821 127.397 226.005C127.29 226.19 127.237 226.426 127.237 226.712C127.237 226.948 127.258 227.16 127.299 227.348C127.341 227.536 127.411 227.682 127.508 227.787C127.605 227.892 127.734 227.948 127.895 227.955ZM127.895 231.652C128.108 231.652 128.268 231.589 128.374 231.461C128.481 231.334 128.551 231.173 128.583 230.979C128.615 230.784 128.631 230.585 128.631 230.382C128.637 230.165 128.622 229.957 128.583 229.755C128.544 229.555 128.471 229.391 128.365 229.264C128.258 229.136 128.102 229.073 127.895 229.073C127.695 229.073 127.542 229.136 127.435 229.264C127.329 229.391 127.254 229.554 127.212 229.751C127.17 229.948 127.15 230.159 127.15 230.382C127.15 230.585 127.167 230.786 127.203 230.984C127.238 231.18 127.311 231.342 127.421 231.466C127.531 231.59 127.689 231.652 127.895 231.652ZM127.895 232.656C127.398 232.656 126.998 232.557 126.695 232.36C126.391 232.162 126.175 231.886 126.046 231.533C125.917 231.179 125.852 230.77 125.852 230.305C125.852 230.082 125.873 229.877 125.915 229.689C125.957 229.501 126.018 229.331 126.099 229.178C126.18 229.025 126.278 228.89 126.394 228.771C126.511 228.654 126.643 228.557 126.791 228.48C126.559 228.321 126.363 228.102 126.205 227.825C126.047 227.548 125.965 227.197 125.959 226.77C125.959 226.349 126.028 225.984 126.167 225.675C126.305 225.367 126.52 225.131 126.811 224.969C127.101 224.807 127.463 224.725 127.895 224.725C128.334 224.725 128.696 224.808 128.98 224.973C129.264 225.139 129.475 225.375 129.614 225.681C129.752 225.986 129.818 226.349 129.813 226.77C129.806 227.203 129.727 227.557 129.576 227.83C129.423 228.104 129.232 228.321 128.999 228.48C129.148 228.557 129.28 228.654 129.396 228.771C129.512 228.89 129.61 229.025 129.691 229.178C129.772 229.331 129.833 229.501 129.875 229.689C129.917 229.877 129.938 230.082 129.938 230.305C129.945 230.77 129.882 231.179 129.749 231.533C129.617 231.886 129.401 232.162 129.101 232.36C128.8 232.557 128.399 232.656 127.895 232.656Z" fill="#1A2E35"/>
<path d="M127.895 244.967C128.095 244.967 128.244 244.906 128.341 244.786C128.438 244.664 128.502 244.518 128.534 244.345C128.567 244.174 128.583 244.005 128.583 243.839V240.447C128.583 240.269 128.568 240.092 128.54 239.917C128.511 239.742 128.447 239.593 128.35 239.472C128.254 239.352 128.102 239.291 127.895 239.291C127.689 239.291 127.537 239.352 127.44 239.472C127.343 239.593 127.281 239.742 127.251 239.917C127.223 240.092 127.208 240.269 127.208 240.447V243.839C127.208 244.005 127.225 244.174 127.261 244.345C127.296 244.518 127.363 244.664 127.46 244.786C127.556 244.906 127.702 244.967 127.895 244.967ZM127.895 246.104C127.437 246.104 127.058 246.009 126.758 245.818C126.457 245.626 126.231 245.362 126.079 245.025C125.928 244.687 125.852 244.298 125.852 243.859V240.428C125.852 239.976 125.925 239.579 126.07 239.239C126.215 238.898 126.438 238.632 126.739 238.441C127.039 238.249 127.424 238.154 127.895 238.154C128.367 238.154 128.753 238.249 129.052 238.441C129.353 238.632 129.576 238.898 129.721 239.239C129.866 239.579 129.938 239.976 129.938 240.428V243.859C129.938 244.298 129.862 244.687 129.711 245.025C129.559 245.362 129.334 245.626 129.033 245.818C128.733 246.009 128.354 246.104 127.895 246.104Z" fill="#1A2E35"/>
<path d="M163.581 228.575C163.762 228.575 163.905 228.532 164.012 228.442C164.119 228.353 164.204 228.257 164.269 228.155V226.951C164.269 226.729 164.249 226.526 164.211 226.345C164.172 226.163 164.102 226.016 164.002 225.905C163.902 225.794 163.759 225.738 163.572 225.738C163.391 225.738 163.25 225.795 163.151 225.91C163.05 226.024 162.981 226.184 162.942 226.387C162.903 226.592 162.884 226.831 162.884 227.104C162.884 227.378 162.896 227.627 162.918 227.849C162.94 228.072 163 228.249 163.097 228.379C163.194 228.51 163.355 228.575 163.581 228.575ZM163.572 232.656C163.12 232.656 162.749 232.579 162.458 232.426C162.168 232.274 161.955 232.05 161.819 231.757C161.683 231.464 161.616 231.108 161.616 230.687V230.639V230.582H162.894C162.894 230.926 162.937 231.185 163.024 231.356C163.111 231.528 163.297 231.615 163.581 231.615C163.756 231.615 163.891 231.563 163.988 231.461C164.085 231.359 164.156 231.19 164.201 230.955C164.246 230.719 164.269 230.41 164.269 230.028V229.101C164.178 229.248 164.043 229.362 163.862 229.445C163.681 229.528 163.465 229.572 163.213 229.579C162.794 229.585 162.459 229.488 162.211 229.288C161.962 229.087 161.785 228.814 161.678 228.47C161.572 228.126 161.519 227.738 161.519 227.305C161.519 226.795 161.587 226.348 161.722 225.962C161.858 225.577 162.077 225.274 162.381 225.055C162.684 224.835 163.081 224.725 163.572 224.725C164.056 224.725 164.45 224.832 164.753 225.045C165.056 225.259 165.277 225.553 165.416 225.929C165.555 226.305 165.624 226.735 165.624 227.219V229.961C165.624 230.464 165.564 230.92 165.445 231.327C165.325 231.735 165.119 232.059 164.825 232.298C164.531 232.536 164.114 232.656 163.572 232.656Z" fill="#1A2E35"/>
<path d="M119.053 169.536V161.797H122.345V162.791H120.486V165.017H121.948V166.001H120.486V168.563H122.364V169.536H119.053Z" fill="#0F7AE1"/>
<path d="M123.197 169.536V161.797H124.194L126.102 166.211V161.797H127.283V169.536H126.334L124.417 164.912V169.536H123.197Z" fill="#0F7AE1"/>
<path d="M129.259 169.536V162.838H128.009V161.797H131.921V162.838H130.692V169.536H129.259Z" fill="#0F7AE1"/>
<path d="M132.638 169.536V161.797H135.93V162.791H134.071V165.017H135.533V166.001H134.071V168.563H135.95V169.536H132.638Z" fill="#0F7AE1"/>
<path d="M138.215 165.103H138.66C138.938 165.103 139.159 165.064 139.324 164.984C139.489 164.904 139.606 164.777 139.677 164.602C139.748 164.427 139.784 164.202 139.784 163.928C139.784 163.539 139.711 163.248 139.566 163.053C139.421 162.86 139.145 162.762 138.738 162.762H138.215V165.103ZM136.782 169.537V161.798H138.66C139.19 161.798 139.637 161.859 140.002 161.984C140.367 162.108 140.644 162.319 140.835 162.619C141.025 162.918 141.12 163.326 141.12 163.842C141.12 164.155 141.091 164.434 141.033 164.683C140.975 164.931 140.877 165.143 140.738 165.318C140.598 165.494 140.407 165.629 140.161 165.725L141.255 169.537H139.822L138.873 165.992H138.215V169.537H136.782Z" fill="#0F7AE1"/>
<path d="M99.7009 57.9623L98.333 51.2546H99.4324L100.33 55.9997L101.169 51.2546H102.294L100.925 57.9623H99.7009Z" fill="#1A2E35"/>
<path d="M102.99 57.9623V51.2546H105.843V52.1158H104.232V54.0453H105.499V54.8983H104.232V57.1176H105.86V57.9623H102.99Z" fill="#1A2E35"/>
<path d="M107.823 54.1197H108.21C108.45 54.1197 108.642 54.0853 108.784 54.0165C108.927 53.9471 109.029 53.8369 109.091 53.6853C109.153 53.5337 109.183 53.3388 109.183 53.1018C109.183 52.7648 109.12 52.5119 108.994 52.3438C108.868 52.1756 108.629 52.0909 108.277 52.0909H107.823V54.1197ZM106.581 57.9622V51.2545H108.21C108.668 51.2545 109.056 51.3086 109.371 51.4163C109.688 51.5239 109.928 51.7074 110.094 51.9666C110.258 52.2265 110.341 52.5794 110.341 53.0266C110.341 53.2974 110.316 53.5401 110.265 53.7554C110.215 53.9707 110.13 54.1548 110.01 54.3064C109.889 54.458 109.723 54.5752 109.51 54.658L110.458 57.9622H109.216L108.394 54.8899H107.823V57.9622H106.581Z" fill="#1A2E35"/>
<path d="M111.306 51.2548H112.532V57.9625H111.306V51.2548Z" fill="#1A2E35"/>
<path d="M113.58 57.9623V51.2546H116.375V52.0993H114.822V54.0536H116.089V54.9066H114.822V57.9623H113.58Z" fill="#1A2E35"/>
<path d="M117.054 51.2548H118.279V57.9625H117.054V51.2548Z" fill="#1A2E35"/>
<path d="M121.158 58.0535C120.66 58.0535 120.27 57.9573 119.988 57.7636C119.705 57.5706 119.508 57.3069 119.397 56.9725C119.284 56.6387 119.228 56.2539 119.228 55.8176V53.4243C119.228 52.9663 119.284 52.5688 119.397 52.2319C119.508 51.8955 119.705 51.6356 119.988 51.4534C120.27 51.2712 120.66 51.1802 121.158 51.1802C121.629 51.1802 121.996 51.2585 122.262 51.4165C122.527 51.5738 122.716 51.7987 122.828 52.0911C122.94 52.3841 122.996 52.723 122.996 53.1097V53.6728H121.804V53.0931C121.804 52.9052 121.794 52.7345 121.775 52.5797C121.755 52.4255 121.702 52.3019 121.616 52.2115C121.529 52.1204 121.38 52.0745 121.167 52.0745C120.954 52.0745 120.799 52.1229 120.701 52.2191C120.603 52.3159 120.54 52.4459 120.512 52.609C120.484 52.7714 120.47 52.9555 120.47 53.1593V56.0749C120.47 56.317 120.489 56.517 120.529 56.6743C120.568 56.8323 120.639 56.9508 120.742 57.0311C120.846 57.1107 120.987 57.1508 121.167 57.1508C121.374 57.1508 121.521 57.1024 121.607 57.0062C121.694 56.9094 121.748 56.7807 121.771 56.6208C121.793 56.4609 121.804 56.2813 121.804 56.0826V55.478H122.996V56.0163C122.996 56.4138 122.943 56.7661 122.837 57.0725C122.731 57.3782 122.544 57.6184 122.278 57.7923C122.013 57.9662 121.639 58.0535 121.158 58.0535Z" fill="#1A2E35"/>
<path d="M125.086 55.6354H126.009L125.547 52.8198L125.086 55.6354ZM123.516 57.9624L124.876 51.2547H126.202L127.561 57.9624H126.411L126.143 56.4138H124.96L124.683 57.9624H123.516Z" fill="#1A2E35"/>
<path d="M128.601 57.9623V52.1572H127.519V51.2546H130.909V52.1572H129.843V57.9623H128.601Z" fill="#1A2E35"/>
<path d="M131.564 51.2548H132.789V57.9625H131.564V51.2548Z" fill="#1A2E35"/>
<path d="M135.685 57.1508C135.891 57.1508 136.044 57.1069 136.142 57.0183C136.239 56.9298 136.306 56.8088 136.339 56.654C136.372 56.4998 136.389 56.331 136.389 56.1488V53.06C136.389 52.872 136.372 52.7039 136.339 52.5548C136.306 52.4058 136.239 52.2885 136.142 52.2026C136.044 52.1172 135.891 52.0745 135.685 52.0745C135.488 52.0745 135.34 52.1172 135.24 52.2026C135.138 52.2885 135.072 52.4058 135.038 52.5548C135.004 52.7039 134.988 52.872 134.988 53.06V56.1488C134.988 56.331 135.003 56.4998 135.034 56.654C135.065 56.8088 135.131 56.9298 135.231 57.0183C135.332 57.1069 135.483 57.1508 135.685 57.1508ZM135.685 58.0535C135.203 58.0535 134.82 57.9649 134.535 57.7885C134.249 57.612 134.045 57.3579 133.922 57.0266C133.799 56.6954 133.737 56.303 133.737 55.8507V53.3415C133.737 52.8892 133.799 52.5007 133.922 52.1783C134.045 51.8554 134.249 51.6082 134.535 51.4369C134.82 51.2655 135.203 51.1802 135.685 51.1802C136.177 51.1802 136.564 51.2655 136.846 51.4369C137.129 51.6082 137.333 51.8554 137.459 52.1783C137.585 52.5007 137.648 52.8892 137.648 53.3415V55.859C137.648 56.3062 137.585 56.6941 137.459 57.0222C137.333 57.3508 137.129 57.605 136.846 57.7846C136.564 57.9636 136.177 58.0535 135.685 58.0535Z" fill="#1A2E35"/>
<path d="M138.563 57.9623V51.2546H139.427L141.08 55.0805V51.2546H142.104V57.9623H141.282L139.62 53.9542V57.9623H138.563Z" fill="#1A2E35"/>
<path d="M147.004 58.0535C146.507 58.0535 146.116 57.9573 145.834 57.7636C145.551 57.5706 145.354 57.3069 145.243 56.9725C145.13 56.6387 145.074 56.2539 145.074 55.8176V53.4243C145.074 52.9663 145.13 52.5688 145.243 52.2319C145.354 51.8955 145.551 51.6356 145.834 51.4534C146.116 51.2712 146.507 51.1802 147.004 51.1802C147.475 51.1802 147.842 51.2585 148.108 51.4165C148.374 51.5738 148.563 51.7987 148.674 52.0911C148.787 52.3841 148.842 52.723 148.842 53.1097V53.6728H147.651V53.0931C147.651 52.9052 147.64 52.7345 147.621 52.5797C147.602 52.4255 147.549 52.3019 147.462 52.2115C147.375 52.1204 147.226 52.0745 147.013 52.0745C146.8 52.0745 146.645 52.1229 146.547 52.2191C146.449 52.3159 146.386 52.4459 146.358 52.609C146.33 52.7714 146.316 52.9555 146.316 53.1593V56.0749C146.316 56.317 146.336 56.517 146.375 56.6743C146.414 56.8323 146.485 56.9508 146.589 57.0311C146.693 57.1107 146.833 57.1508 147.013 57.1508C147.22 57.1508 147.367 57.1024 147.453 57.0062C147.54 56.9094 147.594 56.7807 147.617 56.6208C147.639 56.4609 147.651 56.2813 147.651 56.0826V55.478H148.842V56.0163C148.842 56.4138 148.789 56.7661 148.683 57.0725C148.577 57.3782 148.39 57.6184 148.124 57.7923C147.859 57.9662 147.485 58.0535 147.004 58.0535Z" fill="#1A2E35"/>
<path d="M151.553 57.1508C151.76 57.1508 151.913 57.1069 152.01 57.0183C152.108 56.9298 152.174 56.8088 152.208 56.654C152.241 56.4998 152.258 56.331 152.258 56.1488V53.06C152.258 52.872 152.241 52.7039 152.208 52.5548C152.174 52.4058 152.108 52.2885 152.01 52.2026C151.913 52.1172 151.76 52.0745 151.553 52.0745C151.357 52.0745 151.209 52.1172 151.108 52.2026C151.007 52.2885 150.941 52.4058 150.907 52.5548C150.873 52.7039 150.857 52.872 150.857 53.06V56.1488C150.857 56.331 150.872 56.4998 150.903 56.654C150.934 56.8088 150.999 56.9298 151.1 57.0183C151.201 57.1069 151.352 57.1508 151.553 57.1508ZM151.553 58.0535C151.072 58.0535 150.689 57.9649 150.404 57.7885C150.118 57.612 149.914 57.3579 149.791 57.0266C149.668 56.6954 149.606 56.303 149.606 55.8507V53.3415C149.606 52.8892 149.668 52.5007 149.791 52.1783C149.914 51.8554 150.118 51.6082 150.404 51.4369C150.689 51.2655 151.072 51.1802 151.553 51.1802C152.046 51.1802 152.432 51.2655 152.715 51.4369C152.997 51.6082 153.202 51.8554 153.328 52.1783C153.454 52.5007 153.517 52.8892 153.517 53.3415V55.859C153.517 56.3062 153.454 56.6941 153.328 57.0222C153.202 57.3508 152.997 57.605 152.715 57.7846C152.432 57.9636 152.046 58.0535 151.553 58.0535Z" fill="#1A2E35"/>
<path d="M155.673 57.1097H156.051C156.336 57.1097 156.54 57.0594 156.663 56.96C156.786 56.8607 156.862 56.716 156.89 56.5256C156.918 56.3351 156.932 56.102 156.932 55.8255V53.259C156.932 52.9883 156.912 52.7704 156.873 52.6042C156.834 52.4385 156.753 52.3175 156.63 52.2398C156.506 52.1627 156.307 52.1239 156.034 52.1239H155.673V57.1097ZM154.431 57.962V51.255H156.034C156.588 51.255 157.02 51.3289 157.33 51.4779C157.641 51.6276 157.862 51.8563 157.994 52.1653C158.125 52.4749 158.19 52.8666 158.19 53.3412V55.793C158.19 56.2791 158.125 56.6829 157.994 57.0059C157.862 57.3289 157.644 57.569 157.339 57.7263C157.034 57.8837 156.616 57.962 156.084 57.962H154.431Z" fill="#1A2E35"/>
<path d="M159.106 57.9623V51.2546H161.959V52.1158H160.348V54.0453H161.615V54.8983H160.348V57.1176H161.976V57.9623H159.106Z" fill="#1A2E35"/>
<path d="M251.114 5.18457V36.5413" stroke="#1A2E35" stroke-width="1.33333" stroke-miterlimit="10" stroke-linecap="round" stroke-linejoin="round" stroke-dasharray="6.67 6.67"/>
<path d="M251.114 90.0562V116.47C251.114 125.203 243.939 132.283 235.089 132.283H201.402" stroke="#1A2E35" stroke-width="1.33333" stroke-linecap="round" stroke-linejoin="round" stroke-dasharray="6.67 6.67"/>
<path d="M202.579 128.313L195.612 132.283L202.579 136.254V128.313Z" fill="#1A2E35"/>
<path d="M278.403 91.0469L221.118 79.4138L229.556 38.9473L286.842 50.581L278.403 91.0469Z" fill="#1A2E35"/>
<path d="M275.437 87.2842L218.152 75.6511L226.59 35.1846L283.876 46.8176L275.437 87.2842Z" fill="white"/>
<path d="M275.437 87.2842L218.152 75.6511L226.59 35.1846L283.876 46.8176L275.437 87.2842Z" stroke="#1A2E35" stroke-width="1.33333" stroke-miterlimit="10"/>
<path d="M226.591 35.1846L251.014 61.2344L283.876 46.8176" stroke="#1A2E35" stroke-width="1.33333" stroke-miterlimit="10" stroke-linecap="round" stroke-linejoin="round"/>
<path d="M242.102 262.997C242.102 262.997 230.906 248.272 216.935 238.059C202.964 227.845 190.984 223.665 187.695 224.64C184.407 225.615 181.518 228.747 181.518 228.747L142.481 267.42C142.481 267.42 129.606 277.456 128.183 278.333C126.76 279.211 120.117 283.304 116.044 284.563C111.971 285.821 105.303 285.625 105.266 286.849C105.229 288.073 106.131 289.019 108.124 289.843C110.118 290.668 115.038 292.191 119.69 292.328C124.342 292.465 127.27 293.163 128.656 293.51C130.042 293.857 134.023 295.659 135 294.156C135.977 292.653 137.325 283.963 137.663 283.054C138.001 282.145 150.374 273.319 159.036 269.132C167.699 264.945 178.306 258.059 181.354 254.779C184.401 251.499 188.901 246.424 188.901 246.424C188.901 246.424 202.788 259.391 207.57 265.505C212.352 271.619 220.039 279.197 233.969 285.579C247.9 291.962 253.024 286.751 253.957 281.571C254.89 276.392 242.102 262.997 242.102 262.997Z" fill="white"/>
<path d="M242.102 262.997C242.102 262.997 230.906 248.272 216.935 238.059C202.964 227.845 190.984 223.665 187.695 224.64C184.407 225.615 181.518 228.747 181.518 228.747L142.481 267.42C142.481 267.42 129.606 277.456 128.183 278.333C126.76 279.211 120.117 283.304 116.044 284.563C111.971 285.821 105.303 285.625 105.266 286.849C105.229 288.073 106.131 289.019 108.124 289.843C110.118 290.668 115.038 292.191 119.69 292.328C124.342 292.465 127.27 293.163 128.656 293.51C130.042 293.857 134.023 295.659 135 294.156C135.977 292.653 137.325 283.963 137.663 283.054C138.001 282.145 150.374 273.319 159.036 269.132C167.699 264.945 178.306 258.059 181.354 254.779C184.401 251.499 188.901 246.424 188.901 246.424C188.901 246.424 202.788 259.391 207.57 265.505C212.352 271.619 220.039 279.197 233.969 285.579C247.9 291.962 253.024 286.751 253.957 281.571C254.89 276.392 242.102 262.997 242.102 262.997Z" stroke="#1A2E35" stroke-width="1.33333" stroke-miterlimit="10" stroke-linecap="round" stroke-linejoin="round"/>
<path d="M216.935 238.058C202.964 227.846 190.984 223.665 187.696 224.64C184.407 225.616 181.519 228.747 181.519 228.747L142.942 266.963C143.78 269.274 145.686 272.258 150.027 274.21C153.064 272.315 156.243 270.482 159.037 269.132C167.699 264.945 178.306 258.058 181.354 254.779C184.402 251.499 188.9 246.424 188.9 246.424C188.9 246.424 202.788 259.391 207.57 265.505C212.352 271.619 225.315 288.734 240.169 292.59C267.511 299.691 266.578 285.936 267.511 280.756C268.443 275.576 242.101 262.997 242.101 262.997C242.101 262.997 230.906 248.272 216.935 238.058Z" fill="#1A2E35"/>
<path d="M216.935 238.058C202.964 227.846 190.984 223.665 187.696 224.64C184.407 225.616 181.519 228.747 181.519 228.747L142.942 266.963C143.78 269.274 145.686 272.258 150.027 274.21C153.064 272.315 156.243 270.482 159.037 269.132C167.699 264.945 178.306 258.058 181.354 254.779C184.402 251.499 188.9 246.424 188.9 246.424C188.9 246.424 202.788 259.391 207.57 265.505C212.352 271.619 225.315 288.734 240.169 292.59C267.511 299.691 266.578 285.936 267.511 280.756C268.443 275.576 242.101 262.997 242.101 262.997C242.101 262.997 230.906 248.272 216.935 238.058V238.058Z" stroke="#1A2E35" stroke-width="1.33333" stroke-miterlimit="10" stroke-linecap="round" stroke-linejoin="round"/>
<path d="M105.266 286.849C105.229 288.073 106.131 289.019 108.124 289.843C110.118 290.667 115.038 292.191 119.69 292.328C124.342 292.464 127.27 293.163 128.656 293.51C130.042 293.858 134.023 295.659 135 294.156C135.839 292.864 136.953 286.266 137.464 283.86C133.213 283.998 128.378 282.168 128.378 282.168C128.378 282.168 128.72 281.106 128.183 278.334C126.76 279.211 120.117 283.304 116.044 284.562C111.971 285.822 105.303 285.625 105.266 286.849Z" fill="white"/>
<path d="M105.266 286.849C105.229 288.073 106.131 289.019 108.124 289.843C110.118 290.667 115.038 292.191 119.69 292.328C124.342 292.464 127.27 293.163 128.656 293.51C130.042 293.858 134.023 295.659 135 294.156C135.839 292.864 136.953 286.266 137.464 283.86C133.213 283.998 128.378 282.168 128.378 282.168C128.378 282.168 128.72 281.106 128.183 278.334C126.76 279.211 120.117 283.304 116.044 284.562C111.971 285.822 105.303 285.625 105.266 286.849Z" stroke="#1A2E35" stroke-width="1.33333" stroke-miterlimit="10" stroke-linecap="round" stroke-linejoin="round"/>
<path d="M226.356 206.648C223.848 203.912 225.432 198.963 225.432 198.963C224.64 205.997 232.824 209.904 232.824 209.904C232.824 209.904 228.865 209.383 226.356 206.648ZM290.111 206.387C286.415 203.131 278.099 195.315 272.292 185.546C266.483 175.777 268.067 172.651 263.711 164.965C259.355 157.28 253.02 153.503 244.44 155.196C237.469 156.573 233.897 160.7 232.801 162.199C232.556 162.536 232.304 162.863 232.031 163.179C230.778 164.63 226.811 169.989 223.848 182.55C220.284 197.66 220.417 205.085 225.829 208.601C231.24 212.118 235.068 210.555 236.652 212.248C238.236 213.942 238.764 216.026 237.444 216.026C236.124 216.026 235.464 215.244 235.464 215.244C235.464 215.244 238.5 219.803 241.404 218.501C244.308 217.198 247.608 212.509 245.496 206.257C243.384 200.004 237.708 193.622 236.784 192.45C235.86 191.277 234.012 177.73 234.012 177.73C234.012 177.73 234.144 173.172 239.292 174.734C244.44 176.298 251.436 179.163 253.68 183.723C255.924 188.282 264.24 198.572 271.5 201.698C278.76 204.824 281.663 207.69 284.304 215.375C286.943 223.06 286.943 225.534 286.943 225.534C286.943 225.534 292.355 223.06 293.411 217.459C294.467 211.858 293.807 209.644 290.111 206.387Z" fill="#1A2E35"/>
<path d="M226.356 206.648C223.848 203.912 225.432 198.963 225.432 198.963C224.64 205.997 232.824 209.904 232.824 209.904C232.824 209.904 228.865 209.383 226.356 206.648ZM290.111 206.387C286.415 203.131 278.099 195.315 272.292 185.546C266.483 175.776 268.067 172.651 263.711 164.965C259.355 157.28 253.02 153.503 244.44 155.196C237.469 156.573 233.897 160.7 232.801 162.199C232.556 162.536 232.304 162.863 232.031 163.179C230.778 164.63 226.811 169.989 223.848 182.55C220.284 197.66 220.417 205.085 225.829 208.601C231.24 212.118 235.068 210.555 236.652 212.248C238.236 213.942 238.764 216.026 237.444 216.026C236.124 216.026 235.464 215.244 235.464 215.244C235.464 215.244 238.5 219.803 241.404 218.501C244.308 217.198 247.608 212.509 245.496 206.257C243.384 200.004 237.708 193.622 236.784 192.45C235.86 191.277 234.012 177.73 234.012 177.73C234.012 177.73 234.144 173.172 239.292 174.734C244.44 176.298 251.436 179.163 253.68 183.723C255.924 188.282 264.24 198.572 271.5 201.698C278.76 204.824 281.663 207.69 284.304 215.375C286.943 223.06 286.943 225.534 286.943 225.534C286.943 225.534 292.355 223.06 293.411 217.459C294.467 211.858 293.807 209.644 290.111 206.387V206.387Z" stroke="#1A2E35" stroke-width="1.33333" stroke-miterlimit="10" stroke-linecap="round" stroke-linejoin="round"/>
<path d="M242.684 264.197C242.684 264.197 225.154 261.135 220.81 262.667C216.466 264.197 205.141 282.568 203.124 284.711C201.108 286.855 198.936 287.773 197.074 287.773C195.212 287.773 188.541 286.549 184.663 287.314C180.785 288.08 175.975 290.529 176.441 292.825C176.906 295.122 179.078 296.194 186.214 297.265C193.35 298.337 200.953 295.734 202.969 294.662C204.986 293.591 207.313 292.06 207.933 291.754C208.554 291.447 214.139 290.222 217.242 288.232C220.345 286.242 223.758 283.027 223.758 283.027C223.758 283.027 236.944 288.998 241.909 291.601C246.873 294.203 254.63 295.887 258.973 295.887C263.317 295.887 272.781 294.662 275.108 293.591C277.434 292.519 281.779 288.386 281.779 283.64C281.779 278.894 282.295 272.266 280.718 271.983C279.142 271.698 277.745 272.311 276.194 272.158C274.643 272.005 266.11 267.26 263.938 266.34C261.766 265.422 242.684 264.197 242.684 264.197Z" fill="#1A2E35"/>
<path d="M242.684 264.197C242.684 264.197 225.154 261.135 220.81 262.667C216.466 264.197 205.141 282.568 203.124 284.711C201.108 286.855 198.936 287.773 197.074 287.773C195.212 287.773 188.541 286.549 184.663 287.314C180.785 288.08 175.975 290.529 176.441 292.825C176.906 295.122 179.078 296.194 186.214 297.265C193.35 298.337 200.953 295.734 202.969 294.662C204.986 293.591 207.313 292.06 207.933 291.754C208.554 291.447 214.139 290.222 217.242 288.232C220.345 286.242 223.758 283.027 223.758 283.027C223.758 283.027 236.944 288.998 241.909 291.601C246.873 294.203 254.63 295.887 258.973 295.887C263.317 295.887 272.781 294.662 275.108 293.591C277.434 292.519 281.779 288.386 281.779 283.64C281.779 278.894 282.295 272.266 280.718 271.983C279.142 271.698 277.745 272.311 276.194 272.158C274.643 272.005 266.11 267.26 263.938 266.34C261.766 265.422 242.684 264.197 242.684 264.197Z" stroke="#1A2E35" stroke-width="1.33333" stroke-miterlimit="10" stroke-linecap="round" stroke-linejoin="round"/>
<path d="M215.534 268.124C217.409 266.033 219.74 263.51 220.81 262.667C222.749 261.137 237.136 262.775 237.136 262.775" stroke="white" stroke-width="1.33333" stroke-miterlimit="10" stroke-linecap="round" stroke-linejoin="round"/>
<path d="M212.788 271.239C212.788 271.239 213.453 270.469 214.414 269.384" stroke="white" stroke-width="1.33333" stroke-miterlimit="10" stroke-linecap="round" stroke-linejoin="round"/>
<path d="M202.653 285.173C200.773 286.978 198.793 287.773 197.073 287.773C195.212 287.773 188.542 286.549 184.663 287.314C180.785 288.079 175.975 290.529 176.441 292.826C176.906 295.121 179.078 296.193 186.214 297.264C193.351 298.336 200.952 295.734 202.969 294.662C204.935 293.617 207.191 292.14 207.879 291.782C204.478 290.197 203.157 287.102 202.653 285.173Z" fill="white"/>
<path d="M202.653 285.173C200.773 286.978 198.793 287.773 197.073 287.773C195.212 287.773 188.542 286.549 184.663 287.314C180.785 288.079 175.975 290.529 176.441 292.826C176.906 295.121 179.078 296.193 186.214 297.264C193.351 298.336 200.952 295.734 202.969 294.662C204.935 293.617 207.191 292.14 207.879 291.782C204.478 290.197 203.157 287.102 202.653 285.173Z" stroke="#1A2E35" stroke-width="1.33333" stroke-miterlimit="10" stroke-linecap="round" stroke-linejoin="round"/>
<path d="M197.54 290.988C196.789 289.785 197.627 288.473 198.406 287.621C197.949 287.723 197.503 287.773 197.073 287.773C195.212 287.773 188.542 286.549 184.663 287.314C180.784 288.08 175.975 290.529 176.441 292.826C176.906 295.121 179.078 296.193 186.214 297.265C193.351 298.336 200.952 295.734 202.969 294.663C203.278 294.498 203.594 294.323 203.91 294.143C201.945 293.877 198.622 292.724 197.54 290.988Z" fill="white"/>
<path d="M197.54 290.988C196.789 289.785 197.627 288.473 198.406 287.621C197.949 287.723 197.503 287.773 197.073 287.773C195.212 287.773 188.542 286.549 184.663 287.314C180.784 288.08 175.975 290.529 176.441 292.826C176.906 295.121 179.078 296.193 186.214 297.265C193.351 298.336 200.952 295.734 202.969 294.663C203.278 294.498 203.594 294.323 203.91 294.143C201.945 293.877 198.622 292.724 197.54 290.988Z" stroke="#1A2E35" stroke-width="1.33333" stroke-miterlimit="10" stroke-linecap="round" stroke-linejoin="round"/>
<path d="M245.364 200.917C245.364 200.917 233.22 201.046 231.901 205.606C230.581 210.165 231.768 232.568 231.636 239.993C231.504 247.417 231.504 252.237 232.428 254.061C233.352 255.885 238.764 259.271 239.16 259.401C239.556 259.532 239.029 263.569 239.029 263.569C239.029 263.569 248.4 264.742 253.68 264.872C258.96 265.002 263.711 266.956 268.596 270.734C273.48 274.511 276.647 276.986 276.647 276.986L279.683 273.73C279.683 273.73 280.871 284.802 282.192 289.881C283.512 294.962 287.999 295.222 289.319 295.222C290.64 295.222 294.995 295.092 294.995 295.092C294.995 295.092 290.771 287.406 288.923 282.196C287.075 276.986 285.887 272.558 285.887 272.558C285.887 272.558 286.811 271.124 286.811 267.999C286.811 264.872 286.151 263.048 286.284 259.923C286.415 256.796 292.091 243.12 289.715 227.879C287.339 212.639 288.131 208.341 282.323 205.345C276.515 202.349 263.844 200.525 260.279 200.266C256.716 200.004 245.364 200.917 245.364 200.917Z" fill="#0F7AE1"/>
<path d="M245.364 200.917C245.364 200.917 233.22 201.046 231.901 205.606C230.581 210.165 231.768 232.568 231.636 239.993C231.504 247.417 231.504 252.237 232.428 254.061C233.352 255.885 238.764 259.271 239.16 259.401C239.556 259.532 239.029 263.569 239.029 263.569C239.029 263.569 248.4 264.742 253.68 264.872C258.96 265.002 263.711 266.956 268.596 270.734C273.48 274.511 276.647 276.986 276.647 276.986L279.683 273.73C279.683 273.73 280.871 284.802 282.192 289.881C283.512 294.962 287.999 295.222 289.319 295.222C290.64 295.222 294.995 295.092 294.995 295.092C294.995 295.092 290.771 287.406 288.923 282.196C287.075 276.986 285.887 272.558 285.887 272.558C285.887 272.558 286.811 271.124 286.811 267.999C286.811 264.872 286.151 263.048 286.284 259.923C286.415 256.796 292.091 243.12 289.715 227.879C287.339 212.639 288.131 208.341 282.323 205.345C276.515 202.349 263.844 200.525 260.279 200.266C256.716 200.004 245.364 200.917 245.364 200.917Z" stroke="#1A2E35" stroke-width="1.33333" stroke-miterlimit="10" stroke-linecap="round" stroke-linejoin="round"/>
<path d="M226.356 206.648C223.848 203.913 225.432 198.963 225.432 198.963C224.64 205.997 232.824 209.904 232.824 209.904C232.824 209.904 228.865 209.383 226.356 206.648ZM236.784 192.45C236.581 192.192 236.333 191.334 236.07 190.154C233.299 185.587 230.794 180.869 230.136 178.63C229.14 175.233 229.91 168.775 230.428 165.381C228.64 168.185 225.984 173.496 223.848 182.55C220.284 197.66 220.417 205.085 225.829 208.602C231.24 212.118 235.068 210.555 236.652 212.248C238.236 213.942 238.764 216.027 237.444 216.027C236.124 216.027 235.464 215.244 235.464 215.244C235.464 215.244 238.5 219.803 241.404 218.501C244.308 217.198 247.608 212.509 245.496 206.257C243.384 200.005 237.708 193.622 236.784 192.45Z" fill="#1A2E35"/>
<path d="M226.356 206.648C223.848 203.913 225.432 198.963 225.432 198.963C224.64 205.997 232.824 209.904 232.824 209.904C232.824 209.904 228.865 209.383 226.356 206.648ZM236.784 192.45C236.581 192.192 236.333 191.334 236.07 190.154C233.299 185.587 230.794 180.869 230.136 178.63C229.14 175.233 229.91 168.775 230.428 165.381C228.64 168.185 225.984 173.496 223.848 182.55C220.284 197.66 220.417 205.085 225.829 208.602C231.24 212.118 235.068 210.555 236.652 212.248C238.236 213.942 238.764 216.027 237.444 216.027C236.124 216.027 235.464 215.244 235.464 215.244C235.464 215.244 238.5 219.803 241.404 218.501C244.308 217.198 247.608 212.509 245.496 206.257C243.384 200.005 237.708 193.622 236.784 192.45V192.45Z" stroke="#1A2E35" stroke-width="1.33333" stroke-miterlimit="10" stroke-linecap="round" stroke-linejoin="round"/>
<path d="M262.145 261.127C264.422 261.452 265.913 261.66 265.913 261.66" stroke="#1A2E35" stroke-width="1.33333" stroke-miterlimit="10" stroke-linecap="round" stroke-linejoin="round"/>
<path d="M240.727 241.094C240.727 241.094 238.071 256.817 239.197 257.452C239.955 257.879 251.748 259.63 259.41 260.735" stroke="#1A2E35" stroke-width="1.33333" stroke-miterlimit="10" stroke-linecap="round" stroke-linejoin="round"/>
<path d="M240.324 258.245L239.028 263.57" stroke="#1A2E35" stroke-width="1.33333" stroke-miterlimit="10" stroke-linecap="round" stroke-linejoin="round"/>
<path d="M268.809 268.171C268.809 268.171 276.776 270.871 280.718 271.982C284.662 273.095 285.224 272.697 285.224 272.697" stroke="#1A2E35" stroke-width="1.33333" stroke-miterlimit="10" stroke-linecap="round" stroke-linejoin="round"/>
<path d="M255.452 212.667L261.406 216.002L261.568 211.079" stroke="#1A2E35" stroke-width="1.33333" stroke-miterlimit="10" stroke-linecap="round" stroke-linejoin="round"/>
<path d="M247.325 212.032L246.199 212.905" stroke="#1A2E35" stroke-width="1.33333" stroke-miterlimit="10" stroke-linecap="round" stroke-linejoin="round"/>
<path d="M239.842 222.672L239.761 219.655" stroke="#1A2E35" stroke-width="1.33333" stroke-miterlimit="10" stroke-linecap="round" stroke-linejoin="round"/>
<path d="M237.026 171.09C237.026 171.09 230.137 177.023 230.137 178.63C230.137 180.237 232.391 187.282 233.268 190.125C234.145 192.967 236.274 196.181 238.278 198.282C240.282 200.383 244.165 202.855 245.042 202.855C245.918 202.855 247.045 202.238 247.045 202.238C247.045 202.238 247.547 212.372 249.3 215.957C251.053 219.541 251.931 219.417 252.306 218.552C252.682 217.687 257.316 202.732 257.316 202.732L259.571 192.102L254.811 179.989C254.811 179.989 248.173 174.181 243.664 172.697C239.155 171.213 237.026 171.09 237.026 171.09Z" fill="white"/>
<path d="M237.026 171.09C237.026 171.09 230.137 177.023 230.137 178.63C230.137 180.237 232.391 187.282 233.268 190.125C234.145 192.967 236.274 196.181 238.278 198.282C240.282 200.383 244.165 202.855 245.042 202.855C245.918 202.855 247.045 202.238 247.045 202.238C247.045 202.238 247.547 212.372 249.3 215.957C251.053 219.541 251.931 219.417 252.306 218.552C252.682 217.687 257.316 202.732 257.316 202.732L259.571 192.102L254.811 179.989C254.811 179.989 248.173 174.181 243.664 172.697C239.155 171.213 237.026 171.09 237.026 171.09Z" stroke="#1A2E35" stroke-width="1.33333" stroke-miterlimit="10" stroke-linecap="round" stroke-linejoin="round"/>
<path d="M240.908 192.473C240.908 192.473 240.908 194.698 241.284 194.822C241.66 194.945 243.288 195.439 243.789 194.203" stroke="#1A2E35" stroke-width="1.33333" stroke-miterlimit="10" stroke-linecap="round" stroke-linejoin="round"/>
<path d="M242.286 197.293C242.286 197.293 246.043 197.787 247.296 195.192" stroke="#1A2E35" stroke-width="1.33333" stroke-miterlimit="10" stroke-linecap="round" stroke-linejoin="round"/>
<path d="M247.046 202.237C247.046 202.237 251.179 199.024 253.434 196.057C253.434 196.057 250.929 201.867 250.177 203.35C249.426 204.832 249.049 205.945 249.049 205.945L247.046 202.237Z" fill="#1A2E35"/>
<path d="M247.046 202.237C247.046 202.237 251.179 199.024 253.434 196.057C253.434 196.057 250.929 201.867 250.177 203.35C249.426 204.832 249.049 205.945 249.049 205.945L247.046 202.237Z" stroke="#1A2E35" stroke-width="1.33333" stroke-miterlimit="10" stroke-linecap="round" stroke-linejoin="round"/>
<path d="M244.791 186.787C244.791 186.787 248.173 187.776 249.551 185.675" stroke="#1A2E35" stroke-width="1.33333" stroke-miterlimit="10" stroke-linecap="round" stroke-linejoin="round"/>
<path d="M243.288 183.821C243.288 183.821 247.045 181.72 249.676 182.585" stroke="#1A2E35" stroke-width="1.33333" stroke-miterlimit="10" stroke-linecap="round" stroke-linejoin="round"/>
<path d="M234.396 188.27C234.396 188.27 236.149 189.506 238.153 187.9" stroke="#1A2E35" stroke-width="1.33333" stroke-miterlimit="10" stroke-linecap="round" stroke-linejoin="round"/>
<path d="M237.902 185.18C237.902 185.18 236.023 183.945 233.268 185.304" stroke="#1A2E35" stroke-width="1.33333" stroke-miterlimit="10" stroke-linecap="round" stroke-linejoin="round"/>
<path d="M273.084 216.678C273.084 216.678 271.632 221.627 272.159 225.014C272.688 228.4 271.895 239.342 271.895 239.863C271.895 240.384 268.992 241.686 269.123 242.598C269.256 243.51 269.784 245.203 269.784 245.203L265.56 243.51L259.884 250.935C259.884 250.935 264.372 255.233 272.027 259.401C279.683 263.57 284.963 262.267 284.963 262.267C284.963 262.267 287.999 243.901 288.395 235.695C288.791 227.489 290.639 216.678 287.735 208.993C285.467 202.988 275.46 202.219 273.215 212.509" fill="#0F7AE1"/>
<path d="M273.084 216.678C273.084 216.678 271.632 221.627 272.159 225.014C272.688 228.4 271.895 239.342 271.895 239.863C271.895 240.384 268.992 241.686 269.123 242.598C269.256 243.51 269.784 245.203 269.784 245.203L265.56 243.51L259.884 250.935C259.884 250.935 264.372 255.233 272.027 259.401C279.683 263.57 284.963 262.267 284.963 262.267C284.963 262.267 287.999 243.901 288.395 235.695C288.791 227.489 290.639 216.678 287.735 208.993C285.467 202.988 275.46 202.219 273.215 212.509" stroke="#1A2E35" stroke-width="1.33333" stroke-miterlimit="10" stroke-linecap="round" stroke-linejoin="round"/>
<path d="M280.114 237.265L281.399 236.737" stroke="#1A2E35" stroke-width="1.33333" stroke-miterlimit="10" stroke-linecap="round" stroke-linejoin="round"/>
<path d="M273.479 239.993L278.504 237.927" stroke="#1A2E35" stroke-width="1.33333" stroke-miterlimit="10" stroke-linecap="round" stroke-linejoin="round"/>
<path d="M270.708 245.464C270.708 245.464 281.796 242.728 281.663 243.64C281.532 244.552 277.835 244.943 277.835 244.943" stroke="#1A2E35" stroke-width="1.33333" stroke-miterlimit="10" stroke-linecap="round" stroke-linejoin="round"/>
<path d="M271.895 245.985C271.895 245.985 280.08 246.897 281.532 250.283" stroke="#1A2E35" stroke-width="1.33333" stroke-miterlimit="10" stroke-linecap="round" stroke-linejoin="round"/>
<path d="M280.14 253.645C280.777 254.01 281.309 254.255 281.663 254.322" stroke="#1A2E35" stroke-width="1.33333" stroke-miterlimit="10" stroke-linecap="round" stroke-linejoin="round"/>
<path d="M271.235 247.157C271.235 247.157 275.587 250.702 278.794 252.811" stroke="#1A2E35" stroke-width="1.33333" stroke-miterlimit="10" stroke-linecap="round" stroke-linejoin="round"/>
<path d="M220.127 223.148C220.127 223.148 217.15 229.422 218.277 230.454C219.403 231.486 226.162 237.918 226.806 238.236C227.449 238.553 229.3 244.111 230.266 246.255C231.232 248.399 231.794 253.402 233.645 254.116C235.497 254.831 239.439 251.099 239.519 249.194C239.6 247.288 239.519 246.572 237.749 244.111C235.979 241.65 231.955 233.709 231.955 233.709L220.932 221.878L220.127 223.148Z" fill="white"/>
<path d="M220.127 223.148C220.127 223.148 217.15 229.422 218.277 230.454C219.403 231.486 226.162 237.918 226.806 238.236C227.449 238.553 229.3 244.111 230.266 246.255C231.232 248.399 231.794 253.402 233.645 254.116C235.497 254.831 239.439 251.099 239.519 249.194C239.6 247.288 239.519 246.572 237.749 244.111C235.979 241.65 231.955 233.709 231.955 233.709L220.932 221.878L220.127 223.148Z" stroke="#1A2E35" stroke-width="1.33333" stroke-miterlimit="10" stroke-linecap="round" stroke-linejoin="round"/>
<path d="M214.977 215.367L227.449 235.377L237.025 236.647L227.69 218.463L214.977 215.367Z" fill="#1A2E35"/>
<path d="M214.977 215.367L227.449 235.377L237.025 236.647L227.69 218.463L214.977 215.367Z" stroke="#1A2E35" stroke-width="1.33333" stroke-miterlimit="10" stroke-linecap="round" stroke-linejoin="round"/>
<path d="M265.56 243.51C265.56 243.51 251.304 233.611 247.608 231.136C243.912 228.66 242.328 227.228 242.328 227.228C242.328 227.228 241.932 224.754 241.008 223.711C240.084 222.669 239.16 222.409 237.444 222.539C235.728 222.669 234.276 222.929 233.22 222.539C232.164 222.148 230.184 218.892 229.92 220.325C229.656 221.758 229.788 222.799 231.108 223.841C232.428 224.884 234.276 225.274 234.804 225.535C235.332 225.795 233.968 226.007 233.968 226.007C233.968 226.007 231.295 227.116 227.369 226.722C224.079 226.392 221.365 225.133 220.944 225.014C220.02 224.754 220.152 226.056 221.208 226.837C222.264 227.619 222.924 228.01 222.924 228.01C222.924 228.01 219.624 227.489 220.02 228.53C220.416 229.573 221.868 230.485 222.792 231.136C223.716 231.787 224.64 232.959 225.432 233.35C226.224 233.741 226.356 235.564 227.676 236.346C228.996 237.127 228.607 237.043 231.981 237.345C237.371 237.829 242.592 237.258 242.592 237.258L259.884 250.935L265.56 243.51Z" fill="white"/>
<path d="M265.56 243.51C265.56 243.51 251.304 233.611 247.608 231.136C243.912 228.66 242.328 227.228 242.328 227.228C242.328 227.228 241.932 224.754 241.008 223.711C240.084 222.669 239.16 222.409 237.444 222.539C235.728 222.669 234.276 222.929 233.22 222.539C232.164 222.148 230.184 218.892 229.92 220.325C229.656 221.758 229.788 222.799 231.108 223.841C232.428 224.884 234.276 225.274 234.804 225.535C235.332 225.795 233.968 226.007 233.968 226.007C233.968 226.007 231.295 227.116 227.369 226.722C224.079 226.392 221.365 225.133 220.944 225.014C220.02 224.754 220.152 226.056 221.208 226.837C222.264 227.619 222.924 228.01 222.924 228.01C222.924 228.01 219.624 227.489 220.02 228.53C220.416 229.573 221.868 230.485 222.792 231.136C223.716 231.787 224.64 232.959 225.432 233.35C226.224 233.741 226.356 235.564 227.676 236.346C228.996 237.127 228.607 237.043 231.981 237.345C237.371 237.829 242.592 237.258 242.592 237.258L259.884 250.935L265.56 243.51Z" stroke="#1A2E35" stroke-width="1.33333" stroke-miterlimit="10" stroke-linecap="round" stroke-linejoin="round"/>
<path d="M222.924 228.01C222.924 228.01 226.224 229.573 226.752 229.573H233.88" stroke="#1A2E35" stroke-width="1.33333" stroke-miterlimit="10" stroke-linecap="round" stroke-linejoin="round"/>
<path d="M222.228 230.853C222.228 230.853 224.008 231.101 224.472 231.406C224.936 231.712 227.956 232.304 228.885 232.457C229.814 232.61 233.065 232.533 233.065 232.533" stroke="#1A2E35" stroke-width="1.33333" stroke-miterlimit="10" stroke-linecap="round" stroke-linejoin="round"/>
<path d="M225.432 233.35C225.432 233.35 229.117 235.13 229.814 235.283C230.51 235.436 234.303 235.13 234.303 235.13" stroke="#1A2E35" stroke-width="1.33333" stroke-miterlimit="10" stroke-linecap="round" stroke-linejoin="round"/>
<path d="M268.728 192.45C261.336 184.765 255.66 176.298 255.66 176.298C255.66 176.298 254.208 196.748 257.376 205.475C260.544 214.202 272.159 210.555 276.251 208.341C280.343 206.127 281.796 204.433 284.303 204.824C284.303 204.824 276.119 200.134 268.728 192.45Z" fill="#1A2E35"/>
<path d="M268.728 192.45C261.336 184.765 255.66 176.298 255.66 176.298C255.66 176.298 254.208 196.748 257.376 205.475C260.544 214.202 272.159 210.555 276.251 208.341C280.343 206.127 281.796 204.433 284.303 204.824C284.303 204.824 276.119 200.134 268.728 192.45V192.45Z" stroke="#1A2E35" stroke-width="1.33333" stroke-miterlimit="10" stroke-linecap="round" stroke-linejoin="round"/>
<path d="M238.998 170.053C234.388 164.652 237.025 171.091 237.025 171.091C237.025 171.091 245.852 179.409 254.811 179.99C254.811 179.99 243.607 175.455 238.998 170.053Z" fill="#1A2E35"/>
<path d="M238.998 170.053C234.388 164.652 237.025 171.091 237.025 171.091C237.025 171.091 245.852 179.409 254.811 179.99C254.811 179.99 243.607 175.455 238.998 170.053Z" stroke="#1A2E35" stroke-width="1.33333" stroke-miterlimit="10" stroke-linecap="round" stroke-linejoin="round"/>
</svg>
