<svg width="25" height="25" viewBox="0 0 25 25" fill="none" xmlns="http://www.w3.org/2000/svg">
<path d="M12.9955 1.06052C13.0257 1.35729 12.9368 1.65389 12.7483 1.88511C12.5599 2.11633 12.2873 2.26323 11.9905 2.29352C10.1564 2.48427 8.41383 3.19078 6.96471 4.33121C5.5156 5.47163 4.41926 6.99929 3.8027 8.7372C3.18613 10.4751 3.07458 12.3522 3.48097 14.1509C3.88736 15.9496 4.79506 17.5963 6.0989 18.9003C7.40274 20.2044 9.04937 21.1123 10.848 21.5189C12.6467 21.9256 14.5237 21.8143 16.2617 21.198C17.9997 20.5816 19.5275 19.4855 20.6682 18.0366C21.8088 16.5876 22.5155 14.8451 22.7065 13.011C22.7195 12.8624 22.7619 12.7178 22.8312 12.5857C22.9006 12.4537 22.9955 12.3367 23.1105 12.2416C23.2254 12.1465 23.3582 12.0753 23.5009 12.032C23.6437 11.9887 23.7937 11.9743 23.9421 11.9895C24.0905 12.0047 24.2344 12.0493 24.3654 12.1207C24.4964 12.192 24.6119 12.2887 24.7052 12.4051C24.7985 12.5216 24.8677 12.6554 24.9088 12.7988C24.9499 12.9422 24.962 13.0924 24.9445 13.2405C24.7102 15.498 23.841 17.6428 22.4376 19.4265C21.0341 21.2101 19.154 22.5596 17.0151 23.3184C14.8761 24.0773 12.5659 24.2145 10.3521 23.7141C8.1384 23.2138 6.11177 22.0963 4.50711 20.4913C2.90246 18.8863 1.78547 16.8594 1.28561 14.6455C0.785746 12.4317 0.923467 10.1215 1.68281 7.98271C2.44216 5.84393 3.79204 3.9641 5.57602 2.56109C7.36 1.15809 9.50504 0.289334 11.7625 0.0555192C12.0593 0.0253411 12.3559 0.11426 12.5871 0.302723C12.8184 0.491187 12.9653 0.763765 12.9955 1.06052ZM14.5255 0.961519C14.5599 0.817654 14.6223 0.681974 14.7091 0.562244C14.796 0.442514 14.9056 0.341084 15.0317 0.263759C15.1577 0.186435 15.2978 0.134733 15.4439 0.111613C15.59 0.0884924 15.7392 0.0944074 15.883 0.129019C16.45 0.264019 17.0035 0.441019 17.5375 0.65402C17.8071 0.769634 18.0208 0.985944 18.1332 1.25685C18.2456 1.52776 18.2477 1.83185 18.1392 2.10432C18.0306 2.37678 17.82 2.59608 17.5521 2.71548C17.2842 2.83488 16.9802 2.84494 16.705 2.74352C16.2667 2.56986 15.8165 2.42751 15.358 2.31752C15.0681 2.2478 14.8177 2.0658 14.6619 1.81153C14.506 1.55726 14.4575 1.25153 14.527 0.961519H14.5255ZM24.346 7.46102C24.2356 7.18374 24.0196 6.96166 23.7455 6.84366C23.4714 6.72565 23.1616 6.72137 22.8843 6.83177C22.607 6.94217 22.3849 7.15819 22.2669 7.43232C22.1489 7.70645 22.1446 8.01624 22.255 8.29352C22.4275 8.72852 22.5715 9.17852 22.6825 9.64052C22.7522 9.93073 22.9342 10.1814 23.1887 10.3374C23.3146 10.4146 23.4546 10.4663 23.6006 10.4894C23.7465 10.5126 23.8956 10.5067 24.0393 10.4723C24.183 10.4378 24.3185 10.3754 24.4381 10.2885C24.5576 10.2017 24.6589 10.0921 24.7362 9.96616C24.8134 9.84017 24.8651 9.7002 24.8882 9.55425C24.9113 9.4083 24.9055 9.25922 24.871 9.11552C24.736 8.55214 24.5605 7.99921 24.346 7.46102ZM19.435 2.88902C19.631 2.66409 19.9083 2.52619 20.2059 2.50565C20.5035 2.48512 20.7971 2.58363 21.022 2.77952C21.4825 3.18002 21.913 3.61502 22.309 4.08002C22.5024 4.30738 22.5975 4.60223 22.5734 4.89971C22.5494 5.19719 22.4082 5.47293 22.1808 5.66627C21.9534 5.85961 21.6586 5.95472 21.3611 5.93067C21.0636 5.90662 20.7879 5.76538 20.5945 5.53802C20.2716 5.15826 19.9206 4.80327 19.5445 4.47602C19.3196 4.28007 19.1817 4.0028 19.1612 3.70519C19.1406 3.40759 19.2392 3.11401 19.435 2.88902ZM13 5.62502C13 5.32665 12.8815 5.0405 12.6705 4.82952C12.4596 4.61855 12.1734 4.50002 11.875 4.50002C11.5767 4.50002 11.2905 4.61855 11.0796 4.82952C10.8686 5.0405 10.75 5.32665 10.75 5.62502V13.125C10.75 13.7475 11.254 14.25 11.875 14.25H16.375C16.6734 14.25 16.9596 14.1315 17.1705 13.9205C17.3815 13.7095 17.5 13.4234 17.5 13.125C17.5 12.8267 17.3815 12.5405 17.1705 12.3295C16.9596 12.1185 16.6734 12 16.375 12H13V5.62502Z" fill="#00706B"/>
</svg>
