<svg width="23" height="23" viewBox="0 0 23 23" fill="none" xmlns="http://www.w3.org/2000/svg">
<path d="M17.25 5.75V18.6875C17.2496 19.0686 17.098 19.434 16.8285 19.7035C16.559 19.973 16.1936 20.1246 15.8125 20.125H7.1875C6.80637 20.1246 6.44096 19.973 6.17145 19.7035C5.90195 19.434 5.75038 19.0686 5.75 18.6875L5.75 5.75C5.75038 5.36887 5.90195 5.00346 6.17145 4.73395C6.44096 4.46445 6.80637 4.31288 7.1875 4.3125H7.90625V3.59375C7.90663 3.21262 8.0582 2.8472 8.3277 2.5777C8.59721 2.3082 8.96262 2.15663 9.34375 2.15625H13.6562C14.0373 2.15682 14.4026 2.30845 14.6721 2.57791C14.9415 2.84737 15.0932 3.21268 15.0938 3.59375V4.3125H15.8125C16.1936 4.31307 16.5589 4.4647 16.8283 4.73416C17.0978 5.00362 17.2494 5.36893 17.25 5.75ZM7.1875 18.6875H15.8125V5.75H13.6562V3.59375H9.34375V5.75H7.1875L7.1875 18.6875Z" fill="white"/>
<path d="M8.625 15.8125H14.375V17.25H8.625V15.8125Z" fill="white"/>
</svg>
