<svg width="26" height="16" viewBox="0 0 26 16" fill="none" xmlns="http://www.w3.org/2000/svg">
<path d="M3.54885e-09 2.375C3.54885e-09 1.87772 0.256807 1.40081 0.713927 1.04917C1.17105 0.697544 1.79103 0.5 2.4375 0.5H17.0625C17.709 0.5 18.329 0.697544 18.7861 1.04917C19.2432 1.40081 19.5 1.87772 19.5 2.375V4.25H21.1575C21.5227 4.25025 21.8832 4.31362 22.2122 4.43543C22.5413 4.55724 22.8306 4.73438 23.0588 4.95375L25.4654 7.26625C25.8116 7.59898 26.0002 8.01253 26 8.43875V11.125C26 11.6223 25.7432 12.0992 25.2861 12.4508C24.829 12.8025 24.209 13 23.5625 13H22.75C22.75 13.663 22.4076 14.2989 21.7981 14.7678C21.1886 15.2366 20.362 15.5 19.5 15.5C18.638 15.5 17.8114 15.2366 17.2019 14.7678C16.5924 14.2989 16.25 13.663 16.25 13H8.125C8.12593 13.3332 8.04026 13.6632 7.873 13.9706C7.70574 14.278 7.46028 14.5566 7.15105 14.79C6.84182 15.0233 6.47506 15.2068 6.07233 15.3296C5.6696 15.4523 5.23903 15.5119 4.80593 15.5048C4.37282 15.4977 3.94593 15.4241 3.55035 15.2883C3.15476 15.1525 2.79847 14.9572 2.50242 14.7139C2.20636 14.4707 1.97651 14.1843 1.82639 13.8717C1.67627 13.5592 1.6089 13.2266 1.62825 12.8938C1.1522 12.7649 0.7399 12.5255 0.448247 12.2087C0.156594 11.8919 -2.72219e-05 11.5132 3.54885e-09 11.125L3.54885e-09 2.375ZM2.10275 11.695C2.39655 11.325 2.81046 11.0202 3.30379 10.8105C3.79711 10.6007 4.35289 10.4934 4.91648 10.4989C5.48008 10.5045 6.0321 10.6228 6.51829 10.8421C7.00448 11.0614 7.4081 11.3743 7.6895 11.75H16.6855C16.9713 11.3703 17.3814 11.0549 17.875 10.835V2.375C17.875 2.20924 17.7894 2.05027 17.637 1.93306C17.4847 1.81585 17.278 1.75 17.0625 1.75H2.4375C2.22201 1.75 2.01535 1.81585 1.86298 1.93306C1.7106 2.05027 1.625 2.20924 1.625 2.375V11.125C1.62487 11.2453 1.66988 11.3631 1.75463 11.4642C1.83937 11.5653 1.96025 11.6454 2.10275 11.695ZM19.5 10.5C20.0705 10.5 20.6309 10.6155 21.125 10.835C21.619 11.0544 22.0293 11.37 22.3145 11.75H23.5625C23.778 11.75 23.9847 11.6842 24.137 11.5669C24.2894 11.4497 24.375 11.2908 24.375 11.125V8.4375C24.3747 8.29566 24.3116 8.15813 24.1963 8.0475L21.7913 5.735C21.7153 5.6618 21.6189 5.60268 21.5092 5.562C21.3995 5.52132 21.2793 5.50013 21.1575 5.5H19.5V10.5ZM4.875 11.75C4.44402 11.75 4.0307 11.8817 3.72595 12.1161C3.4212 12.3505 3.25 12.6685 3.25 13C3.25 13.3315 3.4212 13.6495 3.72595 13.8839C4.0307 14.1183 4.44402 14.25 4.875 14.25C5.30598 14.25 5.7193 14.1183 6.02405 13.8839C6.3288 13.6495 6.5 13.3315 6.5 13C6.5 12.6685 6.3288 12.3505 6.02405 12.1161C5.7193 11.8817 5.30598 11.75 4.875 11.75ZM19.5 11.75C19.069 11.75 18.6557 11.8817 18.351 12.1161C18.0462 12.3505 17.875 12.6685 17.875 13C17.875 13.3315 18.0462 13.6495 18.351 13.8839C18.6557 14.1183 19.069 14.25 19.5 14.25C19.931 14.25 20.3443 14.1183 20.649 13.8839C20.9538 13.6495 21.125 13.3315 21.125 13C21.125 12.6685 20.9538 12.3505 20.649 12.1161C20.3443 11.8817 19.931 11.75 19.5 11.75Z" fill="#252A34"/>
</svg>
