<svg width="30" height="30" viewBox="0 0 30 30" fill="none" xmlns="http://www.w3.org/2000/svg">
<path d="M22.6166 28.3333H7.38331C7.06264 28.3258 6.7466 28.2551 6.45326 28.1253C6.15991 27.9956 5.895 27.8093 5.67367 27.5771C5.45234 27.345 5.27892 27.0715 5.16333 26.7723C5.04773 26.4731 4.99223 26.154 4.99998 25.8333V9.35834H6.66665V25.8333C6.65869 25.9352 6.67095 26.0376 6.7027 26.1347C6.73446 26.2317 6.7851 26.3216 6.8517 26.399C6.9183 26.4765 6.99956 26.54 7.09079 26.5859C7.18202 26.6318 7.28144 26.6593 7.38331 26.6667H22.6166C22.7185 26.6593 22.8179 26.6318 22.9092 26.5859C23.0004 26.54 23.0817 26.4765 23.1483 26.399C23.2149 26.3216 23.2655 26.2317 23.2973 26.1347C23.329 26.0376 23.3413 25.9352 23.3333 25.8333V9.35834H25V25.8333C25.0077 26.154 24.9522 26.4731 24.8366 26.7723C24.721 27.0715 24.5476 27.345 24.3263 27.5771C24.105 27.8093 23.8401 27.9956 23.5467 28.1253C23.2534 28.2551 22.9373 28.3258 22.6166 28.3333Z" fill="#00706B"/>
<path d="M25.65 7.49998H4.16671C3.94569 7.49998 3.73373 7.41218 3.57745 7.2559C3.42117 7.09962 3.33337 6.88766 3.33337 6.66665C3.33337 6.44563 3.42117 6.23367 3.57745 6.07739C3.73373 5.92111 3.94569 5.83331 4.16671 5.83331H25.65C25.8711 5.83331 26.083 5.92111 26.2393 6.07739C26.3956 6.23367 26.4834 6.44563 26.4834 6.66665C26.4834 6.88766 26.3956 7.09962 26.2393 7.2559C26.083 7.41218 25.8711 7.49998 25.65 7.49998Z" fill="#00706B"/>
<path d="M17.5 10.8333H19.1667V23.3333H17.5V10.8333Z" fill="#00706B"/>
<path d="M10.8334 10.8333H12.5V23.3333H10.8334V10.8333Z" fill="#00706B"/>
<path d="M19.1667 4.88335H17.5834V3.33335H12.4167V4.88335H10.8334V3.33335C10.8328 2.90539 10.9969 2.49363 11.2917 2.18335C11.5865 1.87308 11.9893 1.68808 12.4167 1.66669H17.5834C18.0108 1.68808 18.4136 1.87308 18.7084 2.18335C19.0031 2.49363 19.1672 2.90539 19.1667 3.33335V4.88335Z" fill="#00706B"/>
</svg>
