<svg width="20" height="30" viewBox="0 0 20 30" fill="none" xmlns="http://www.w3.org/2000/svg">
<path d="M16.7961 7.40037C15.2461 4.77428 13.0457 2.59183 10.407 1.06345L9.9375 0.791931L9.46805 1.06345C6.78443 2.61221 4.55604 4.84045 3.0071 7.52397C1.45816 10.2075 0.643308 13.2516 0.644533 16.3501C0.644533 16.552 0.648048 16.757 0.654904 16.9595C0.748185 19.7049 1.79813 22.0151 3.69123 23.6402C5.1399 24.8839 6.99815 25.6431 9.00024 25.8242V29.0625H10.8752V14.0625H9V23.9372C5.83219 23.5702 2.67932 21.3324 2.52867 16.8957C2.52246 16.7144 2.5193 16.5308 2.5193 16.3501C2.52488 13.6747 3.20815 11.0443 4.50536 8.70437C5.80256 6.36447 7.67141 4.39133 9.9375 2.9691C12.2035 4.39136 14.0723 6.36451 15.3695 8.70441C16.6667 11.0443 17.3499 13.6747 17.3555 16.3501C17.3555 16.5308 17.3523 16.7144 17.3461 16.8958C17.2256 20.445 15.1836 22.5868 12.7498 23.4897V25.4741C14.0127 25.1161 15.1839 24.4906 16.1838 23.6401C18.0769 22.015 19.1268 19.7048 19.2201 16.9594C19.227 16.7569 19.2305 16.5519 19.2305 16.35C19.2321 13.203 18.3916 10.1129 16.7961 7.40037V7.40037Z" fill="white"/>
</svg>
