<svg width="14" height="17" viewBox="0 0 14 17" fill="none" xmlns="http://www.w3.org/2000/svg">
<path d="M7.00001 0.1875C5.1773 0.189543 3.42987 0.878311 2.14102 2.10272C0.852176 3.32712 0.127158 4.98718 0.125007 6.71875C0.122824 8.13379 0.60937 9.51043 1.51001 10.6375C1.51001 10.6375 1.69751 10.872 1.72813 10.9059L7.00001 16.8125L12.2744 10.9029C12.3019 10.8714 12.49 10.6375 12.49 10.6375L12.4906 10.6357C13.3908 9.50914 13.8771 8.13314 13.875 6.71875C13.8729 4.98718 13.1478 3.32712 11.859 2.10272C10.5701 0.878311 8.82271 0.189543 7.00001 0.1875ZM7.00001 9.09375C6.50555 9.09375 6.0222 8.95446 5.61108 8.69349C5.19996 8.43252 4.87953 8.0616 4.69031 7.62762C4.50109 7.19365 4.45158 6.71612 4.54804 6.25541C4.64451 5.79471 4.88261 5.37152 5.23224 5.03937C5.58187 4.70722 6.02733 4.48102 6.51228 4.38938C6.99723 4.29774 7.4999 4.34478 7.95672 4.52454C8.41353 4.70429 8.80398 5.0087 9.07868 5.39927C9.35338 5.78984 9.50001 6.24902 9.50001 6.71875C9.49918 7.3484 9.23552 7.95203 8.76686 8.39726C8.2982 8.84249 7.66279 9.09296 7.00001 9.09375Z" fill="#00706B"/>
</svg>
