<svg width="24" height="24" viewBox="0 0 24 24" fill="none" xmlns="http://www.w3.org/2000/svg">
<path d="M23.55 20.8789L23.2855 20.6456C22.5353 19.9771 21.8786 19.2106 21.3333 18.3667C20.7377 17.202 20.3807 15.9301 20.2833 14.6256V10.7833C20.2801 10.3166 20.2385 9.85098 20.1589 9.39111C18.8414 9.12032 17.658 8.40257 16.809 7.35938C15.96 6.3162 15.4975 5.01167 15.5 3.66667V3.17667C14.6879 2.77703 13.8154 2.51424 12.9177 2.39889V1.41889C12.9177 1.1435 12.8084 0.8794 12.6136 0.684675C12.4189 0.48995 12.1548 0.380554 11.8794 0.380554C11.604 0.380554 11.3399 0.48995 11.1452 0.684675C10.9505 0.8794 10.8411 1.1435 10.8411 1.41889V2.43778C8.83108 2.72132 6.99153 3.72247 5.66203 5.25639C4.33253 6.79032 3.60287 8.75344 3.60775 10.7833V14.6256C3.51034 15.9301 3.15335 17.202 2.55775 18.3667C2.02177 19.2085 1.37568 19.9749 0.636637 20.6456L0.372192 20.8789V23.0722H23.55V20.8789Z" fill="#00706B"/>
</svg>
