<svg width="20" height="20" viewBox="0 0 20 20" fill="none" xmlns="http://www.w3.org/2000/svg">
<path fill-rule="evenodd" clip-rule="evenodd" d="M6.17034 14.4641C9.02242 14.0475 10.9862 14.0833 13.842 14.4787C14.0488 14.5087 14.2378 14.6125 14.3741 14.771C14.5103 14.9294 14.5846 15.1318 14.5833 15.3408C14.5833 15.5408 14.5145 15.735 14.3903 15.8866C14.1739 16.1511 13.9522 16.4111 13.7253 16.6666H14.8258C14.8949 16.5841 14.9645 16.5 15.0349 16.4146C15.2821 16.1115 15.4169 15.7323 15.4166 15.3412C15.4166 14.4975 14.8008 13.7704 13.9562 13.6537C11.0328 13.2491 8.9895 13.2104 6.04992 13.64C5.19659 13.7646 4.58325 14.5029 4.58325 15.3525C4.58325 15.7296 4.70617 16.1025 4.93909 16.4046C5.00784 16.4937 5.07575 16.5812 5.14325 16.6671H6.217C6.00593 16.4144 5.80005 16.1574 5.5995 15.8962C5.48032 15.7399 5.41603 15.5486 5.41659 15.3521C5.41659 14.9033 5.73909 14.5271 6.17034 14.4641ZM9.99992 10.4166C10.3282 10.4166 10.6533 10.352 10.9566 10.2263C11.2599 10.1007 11.5355 9.91656 11.7677 9.68441C11.9998 9.45227 12.184 9.17667 12.3096 8.87336C12.4353 8.57004 12.4999 8.24495 12.4999 7.91665C12.4999 7.58834 12.4353 7.26325 12.3096 6.95994C12.184 6.65662 11.9998 6.38103 11.7677 6.14888C11.5355 5.91673 11.2599 5.73258 10.9566 5.60695C10.6533 5.48131 10.3282 5.41665 9.99992 5.41665C9.33688 5.41665 8.70099 5.68004 8.23215 6.14888C7.76331 6.61772 7.49992 7.25361 7.49992 7.91665C7.49992 8.57969 7.76331 9.21557 8.23215 9.68441C8.70099 10.1533 9.33688 10.4166 9.99992 10.4166V10.4166ZM9.99992 11.25C10.884 11.25 11.7318 10.8988 12.3569 10.2737C12.9821 9.64855 13.3333 8.8007 13.3333 7.91665C13.3333 7.03259 12.9821 6.18474 12.3569 5.55962C11.7318 4.9345 10.884 4.58331 9.99992 4.58331C9.11586 4.58331 8.26802 4.9345 7.6429 5.55962C7.01777 6.18474 6.66659 7.03259 6.66659 7.91665C6.66659 8.8007 7.01777 9.64855 7.6429 10.2737C8.26802 10.8988 9.11586 11.25 9.99992 11.25V11.25Z" fill="white"/>
<path fill-rule="evenodd" clip-rule="evenodd" d="M9.99996 17.5C14.142 17.5 17.5 14.1421 17.5 9.99999C17.5 5.85791 14.142 2.49999 9.99996 2.49999C5.85788 2.49999 2.49996 5.85791 2.49996 9.99999C2.49996 14.1421 5.85788 17.5 9.99996 17.5ZM9.99996 18.3333C14.6025 18.3333 18.3333 14.6025 18.3333 9.99999C18.3333 5.39749 14.6025 1.66666 9.99996 1.66666C5.39746 1.66666 1.66663 5.39749 1.66663 9.99999C1.66663 14.6025 5.39746 18.3333 9.99996 18.3333Z" fill="white"/>
</svg>
