<svg width="19" height="22" viewBox="0 0 19 22" fill="none" xmlns="http://www.w3.org/2000/svg">
<path d="M5.75 7.90625C5.94062 7.90625 6.12344 7.98198 6.25823 8.11677C6.39302 8.25156 6.46875 8.43438 6.46875 8.625V17.25C6.46875 17.4406 6.39302 17.6234 6.25823 17.7582C6.12344 17.893 5.94062 17.9688 5.75 17.9688C5.55938 17.9688 5.37656 17.893 5.24177 17.7582C5.10698 17.6234 5.03125 17.4406 5.03125 17.25V8.625C5.03125 8.43438 5.10698 8.25156 5.24177 8.11677C5.37656 7.98198 5.55938 7.90625 5.75 7.90625ZM9.34375 7.90625C9.53437 7.90625 9.71719 7.98198 9.85198 8.11677C9.98678 8.25156 10.0625 8.43438 10.0625 8.625V17.25C10.0625 17.4406 9.98678 17.6234 9.85198 17.7582C9.71719 17.893 9.53437 17.9688 9.34375 17.9688C9.15313 17.9688 8.97031 17.893 8.83552 17.7582C8.70073 17.6234 8.625 17.4406 8.625 17.25V8.625C8.625 8.43438 8.70073 8.25156 8.83552 8.11677C8.97031 7.98198 9.15313 7.90625 9.34375 7.90625ZM13.6562 8.625C13.6562 8.43438 13.5805 8.25156 13.4457 8.11677C13.3109 7.98198 13.1281 7.90625 12.9375 7.90625C12.7469 7.90625 12.5641 7.98198 12.4293 8.11677C12.2945 8.25156 12.2188 8.43438 12.2188 8.625V17.25C12.2188 17.4406 12.2945 17.6234 12.4293 17.7582C12.5641 17.893 12.7469 17.9688 12.9375 17.9688C13.1281 17.9688 13.3109 17.893 13.4457 17.7582C13.5805 17.6234 13.6562 17.4406 13.6562 17.25V8.625Z" fill="#F8F8F8"/>
<path fill-rule="evenodd" clip-rule="evenodd" d="M18.6875 4.3125C18.6875 4.69375 18.536 5.05938 18.2665 5.32897C17.9969 5.59855 17.6312 5.75 17.25 5.75H16.5312V18.6875C16.5312 19.45 16.2283 20.1813 15.6892 20.7204C15.15 21.2596 14.4187 21.5625 13.6562 21.5625H5.03125C4.26875 21.5625 3.53748 21.2596 2.99832 20.7204C2.45915 20.1813 2.15625 19.45 2.15625 18.6875V5.75H1.4375C1.05625 5.75 0.690617 5.59855 0.421034 5.32897C0.15145 5.05938 0 4.69375 0 4.3125V2.875C0 2.49375 0.15145 2.12812 0.421034 1.85853C0.690617 1.58895 1.05625 1.4375 1.4375 1.4375H6.46875C6.46875 1.05625 6.6202 0.690618 6.88978 0.421034C7.15937 0.15145 7.525 0 7.90625 0L10.7812 0C11.1625 0 11.5281 0.15145 11.7977 0.421034C12.0673 0.690618 12.2188 1.05625 12.2188 1.4375H17.25C17.6312 1.4375 17.9969 1.58895 18.2665 1.85853C18.536 2.12812 18.6875 2.49375 18.6875 2.875V4.3125ZM3.76338 5.75L3.59375 5.83481V18.6875C3.59375 19.0687 3.7452 19.4344 4.01478 19.704C4.28437 19.9735 4.65 20.125 5.03125 20.125H13.6562C14.0375 20.125 14.4031 19.9735 14.6727 19.704C14.9423 19.4344 15.0938 19.0687 15.0938 18.6875V5.83481L14.9241 5.75H3.76338ZM1.4375 4.3125V2.875H17.25V4.3125H1.4375Z" fill="#F8F8F8"/>
</svg>
